<svg width="31" height="31" viewBox="0 0 31 31" fill="none" xmlns="http://www.w3.org/2000/svg">
<path d="M19.5203 15.2675C20.823 14.4038 21.8129 13.1435 22.3434 11.6732C22.874 10.203 22.9169 8.60096 22.4658 7.10443C22.0148 5.60789 21.0937 4.29641 19.8391 3.36419C18.5845 2.43197 17.063 1.92859 15.5 1.92859C13.937 1.92859 12.4155 2.43197 11.1609 3.36419C9.90629 4.29641 8.98527 5.60789 8.53421 7.10443C8.08316 8.60096 8.12607 10.203 8.65658 11.6732C9.18709 13.1435 10.177 14.4038 11.4797 15.2675C9.27324 16.0884 7.3701 17.5636 6.02493 19.4957C4.67975 21.4277 3.9567 23.7245 3.95251 26.0788V28.0938C3.95251 28.3507 4.05458 28.5971 4.23626 28.7788C4.41793 28.9604 4.66434 29.0625 4.92126 29.0625H26.0788C26.3357 29.0625 26.5821 28.9604 26.7638 28.7788C26.9454 28.5971 27.0475 28.3507 27.0475 28.0938V26.0788C27.0433 23.7245 26.3203 21.4277 24.9751 19.4957C23.6299 17.5636 21.7268 16.0884 19.5203 15.2675ZM16.1685 13.5625C15.988 13.7415 15.7445 13.8424 15.4903 13.8434C15.3628 13.8442 15.2364 13.8197 15.1184 13.7715C15.0004 13.7233 14.893 13.6523 14.8025 13.5625C14.7117 13.4724 14.6396 13.3653 14.5905 13.2472C14.5413 13.1292 14.516 13.0026 14.516 12.8747C14.516 12.7468 14.5413 12.6202 14.5905 12.5021C14.6396 12.3841 14.7117 12.2769 14.8025 12.1869C14.984 12.0064 15.2296 11.9052 15.4855 11.9052C15.7414 11.9052 15.9869 12.0064 16.1685 12.1869C16.26 12.2766 16.3328 12.3836 16.3827 12.5017C16.4326 12.6197 16.4585 12.7465 16.4591 12.8747C16.4585 13.0029 16.4326 13.1297 16.3827 13.2477C16.3328 13.3658 16.26 13.4728 16.1685 13.5625ZM16.4591 10.1913V10.6853C16.4591 10.9422 16.357 11.1886 16.1753 11.3703C15.9937 11.552 15.7473 11.6541 15.4903 11.6541C15.2334 11.6541 14.987 11.552 14.8053 11.3703C14.6236 11.1886 14.5216 10.9422 14.5216 10.6853V9.41625C14.5216 9.15932 14.6236 8.91292 14.8053 8.73124C14.987 8.54957 15.2334 8.4475 15.4903 8.4475C15.6933 8.4475 15.888 8.36687 16.0315 8.22335C16.175 8.07982 16.2556 7.88516 16.2556 7.68219C16.2569 7.58088 16.2381 7.48031 16.2002 7.38634C16.1623 7.29237 16.1061 7.20685 16.0349 7.13476C15.9637 7.06266 15.8789 7.00542 15.7855 6.96636C15.692 6.92729 15.5916 6.90718 15.4903 6.90719C15.2848 6.90719 15.0877 6.98884 14.9423 7.13418C14.797 7.27952 14.7153 7.47665 14.7153 7.68219C14.7153 7.93912 14.6133 8.18552 14.4316 8.3672C14.2499 8.54888 14.0035 8.65094 13.7466 8.65094C13.4896 8.65094 13.2432 8.54888 13.0616 8.3672C12.8799 8.18552 12.7778 7.93912 12.7778 7.68219C12.7776 7.1882 12.9122 6.70352 13.1672 6.28045C13.4222 5.85737 13.7879 5.51197 14.2249 5.28151C14.6618 5.05106 15.1534 4.94429 15.6466 4.97275C16.1397 5.0012 16.6158 5.16378 17.0233 5.44296C17.4308 5.72214 17.7544 6.10731 17.9591 6.5569C18.1637 7.00649 18.2417 7.50344 18.1847 7.99412C18.1276 8.4848 17.9376 8.95058 17.6352 9.3412C17.3328 9.73182 16.9295 10.0324 16.4688 10.2106L16.4591 10.1913Z" fill="#673A91"/>
</svg>
