<svg width="35" height="35" viewBox="0 0 35 35" fill="none" xmlns="http://www.w3.org/2000/svg">
<path d="M14.7582 12.6315C14.936 12.7328 15.1384 12.7829 15.3429 12.7761C15.5528 12.7568 15.7562 12.693 15.9394 12.5888L29.076 4.92384C28.7905 4.42621 28.379 4.01246 27.883 3.72414C27.3869 3.43582 26.8237 3.28308 26.25 3.28125H4.37499C3.80126 3.28311 3.2381 3.43588 2.74208 3.72422C2.24605 4.01256 1.83462 4.42631 1.54907 4.92395L14.7582 12.6315Z" fill="#673A91"/>
<path d="M29.5312 7.18591V14.7875C28.4789 14.4087 27.3685 14.2162 26.25 14.2187C23.6405 14.2227 21.139 15.261 19.2938 17.1062C17.4486 18.9514 16.4102 21.453 16.4062 24.0625C16.406 24.4281 16.4279 24.7933 16.4719 25.1562H4.375C3.50554 25.1537 2.67242 24.8072 2.05761 24.1924C1.44281 23.5776 1.09629 22.7444 1.09375 21.875V7.18591L13.6609 14.525C14.1674 14.8019 14.7353 14.947 15.3125 14.947C15.8897 14.947 16.4576 14.8019 16.9641 14.525L29.5312 7.18591Z" fill="#673A91"/>
<path d="M26.25 16.4062C24.2194 16.4063 22.272 17.2129 20.8362 18.6487C19.4004 20.0845 18.5938 22.0319 18.5938 24.0625C18.5938 26.0931 19.4004 28.0405 20.8362 29.4763C22.272 30.9121 24.2194 31.7188 26.25 31.7188C26.5401 31.7188 26.8183 31.6035 27.0234 31.3984C27.2285 31.1933 27.3438 30.9151 27.3438 30.625C27.3438 30.3349 27.2285 30.0567 27.0234 29.8516C26.8183 29.6465 26.5401 29.5312 26.25 29.5312C25.1684 29.5312 24.1111 29.2105 23.2117 28.6096C22.3124 28.0087 21.6114 27.1546 21.1975 26.1553C20.7836 25.156 20.6753 24.0564 20.8863 22.9956C21.0973 21.9348 21.6182 20.9603 22.383 20.1955C23.1478 19.4307 24.1223 18.9098 25.1831 18.6988C26.2439 18.4878 27.3435 18.5961 28.3428 19.01C29.3421 19.4239 30.1962 20.1249 30.7971 21.0242C31.398 21.9236 31.7188 22.9809 31.7188 24.0625V25.1562C31.7188 25.4463 31.6035 25.7245 31.3984 25.9296C31.1933 26.1348 30.9151 26.25 30.625 26.25C30.3349 26.25 30.0567 26.1348 29.8516 25.9296C29.6465 25.7245 29.5312 25.4463 29.5312 25.1562V24.0625C29.5312 23.4135 29.3388 22.7791 28.9783 22.2395C28.6177 21.6999 28.1053 21.2794 27.5057 21.031C26.9061 20.7827 26.2464 20.7177 25.6099 20.8443C24.9734 20.9709 24.3887 21.2834 23.9298 21.7423C23.4709 22.2012 23.1584 22.7859 23.0318 23.4224C22.9052 24.0589 22.9702 24.7186 23.2185 25.3182C23.4669 25.9178 23.8874 26.4302 24.427 26.7908C24.9666 27.1513 25.601 27.3438 26.25 27.3438C26.8153 27.3402 27.3699 27.1888 27.8587 26.9047C28.2369 27.5068 28.8007 27.9695 29.4651 28.2228C30.1294 28.4761 30.8581 28.5063 31.5412 28.3088C32.2242 28.1113 32.8244 27.6969 33.2511 27.1282C33.6778 26.5594 33.9077 25.8673 33.9062 25.1562V24.0625C33.9038 22.0327 33.0964 20.0867 31.6611 18.6514C30.2258 17.2161 28.2798 16.4087 26.25 16.4062ZM26.25 25.1562C26.0337 25.1562 25.8222 25.0921 25.6423 24.9719C25.4625 24.8517 25.3223 24.6809 25.2395 24.4811C25.1567 24.2812 25.1351 24.0613 25.1773 23.8491C25.2195 23.637 25.3236 23.4421 25.4766 23.2891C25.6296 23.1361 25.8245 23.032 26.0366 22.9898C26.2488 22.9476 26.4687 22.9692 26.6686 23.052C26.8684 23.1348 27.0392 23.275 27.1594 23.4548C27.2796 23.6347 27.3438 23.8462 27.3438 24.0625C27.3436 24.3525 27.2283 24.6306 27.0232 24.8357C26.8181 25.0408 26.54 25.1561 26.25 25.1562Z" fill="#673A91"/>
</svg>
