<svg width="38" height="38" viewBox="0 0 38 38" fill="none" xmlns="http://www.w3.org/2000/svg">
<path d="M34.503 33.2302H13.0365C11.1083 33.2302 9.53955 31.6615 9.53955 29.7309C9.53955 27.8027 11.1083 26.2339 13.0365 26.2339H34.503C36.4312 26.2339 37.9999 27.8027 37.9999 29.7309C38 31.6615 36.4312 33.2302 34.503 33.2302Z" fill="#673A91"/>
<path d="M3.49823 33.2302C1.56936 33.2302 0 31.6609 0 29.7321C0 27.8032 1.56936 26.2339 3.49823 26.2339C5.4271 26.2339 6.99638 27.8032 6.99638 29.7321C6.99638 31.6609 5.4271 33.2302 3.49823 33.2302Z" fill="#673A91"/>
<path d="M3.49823 22.498C1.56936 22.498 0 20.9288 0 18.9999C0 17.071 1.56936 15.5017 3.49823 15.5017C5.4271 15.5017 6.99638 17.071 6.99638 18.9999C6.99638 20.9288 5.4271 22.498 3.49823 22.498Z" fill="#673A91"/>
<path d="M3.49823 11.7661C1.56936 11.7661 0 10.1968 0 8.26796C0 6.33909 1.56936 4.76981 3.49823 4.76981C5.4271 4.76981 6.99638 6.33909 6.99638 8.26796C6.99638 10.1968 5.4271 11.7661 3.49823 11.7661Z" fill="#673A91"/>
<path d="M34.503 22.498H13.0365C11.1083 22.498 9.53955 20.9293 9.53955 18.9987C9.53955 17.0705 11.1083 15.5017 13.0365 15.5017H34.503C36.4312 15.5017 37.9999 17.0705 37.9999 18.9987C38 20.9294 36.4312 22.498 34.503 22.498Z" fill="#673A91"/>
<path d="M34.503 11.7661H13.0365C11.1083 11.7661 9.53955 10.1974 9.53955 8.26677C9.53955 6.33857 11.1083 4.76981 13.0365 4.76981H34.503C36.4312 4.76981 37.9999 6.33857 37.9999 8.26677C38 10.1974 36.4312 11.7661 34.503 11.7661Z" fill="#673A91"/>
</svg>
