<svg width="35" height="35" viewBox="0 0 35 35" fill="none" xmlns="http://www.w3.org/2000/svg">
<g clip-path="url(#clip0_2404_588)">
<path d="M30.9896 4.375H4.01042C1.79813 4.375 0 6.17313 0 8.38542V26.6146C0 28.8269 1.79813 30.625 4.01042 30.625H30.9896C33.2019 30.625 35 28.8269 35 26.6146V8.38542C35 6.17313 33.2019 4.375 30.9896 4.375ZM10.9375 10.2083C12.9471 10.2083 14.5833 11.8446 14.5833 13.8542C14.5833 15.8638 12.9471 17.5 10.9375 17.5C8.92792 17.5 7.29167 15.8638 7.29167 13.8542C7.29167 11.8446 8.92792 10.2083 10.9375 10.2083ZM17.5 23.6979C17.5 24.3017 17.01 24.7917 16.4062 24.7917H5.46875C4.865 24.7917 4.375 24.3017 4.375 23.6979V22.9688C4.375 20.7565 6.17313 18.9583 8.38542 18.9583H13.4896C15.7019 18.9583 17.5 20.7565 17.5 22.9688V23.6979ZM29.5312 24.7917H21.5104C20.9067 24.7917 20.4167 24.3017 20.4167 23.6979C20.4167 23.0942 20.9067 22.6042 21.5104 22.6042H29.5312C30.135 22.6042 30.625 23.0942 30.625 23.6979C30.625 24.3017 30.135 24.7917 29.5312 24.7917ZM29.5312 18.9583H21.5104C20.9067 18.9583 20.4167 18.4683 20.4167 17.8646C20.4167 17.2608 20.9067 16.7708 21.5104 16.7708H29.5312C30.135 16.7708 30.625 17.2608 30.625 17.8646C30.625 18.4683 30.135 18.9583 29.5312 18.9583ZM29.5312 13.125H21.5104C20.9067 13.125 20.4167 12.635 20.4167 12.0312C20.4167 11.4275 20.9067 10.9375 21.5104 10.9375H29.5312C30.135 10.9375 30.625 11.4275 30.625 12.0312C30.625 12.635 30.135 13.125 29.5312 13.125Z" fill="#673A91"/>
</g>
<defs>
<clipPath id="clip0_2404_588">
<rect width="35" height="35" fill="white"/>
</clipPath>
</defs>
</svg>
