<svg width="25" height="25" viewBox="0 0 25 25" fill="none" xmlns="http://www.w3.org/2000/svg">
<path d="M9.92239 0.385367C7.81577 0.833494 5.86252 1.82352 4.25566 3.25763C2.6488 4.69174 1.44393 6.5203 0.76011 8.56261C0.0762888 10.6049 -0.0628191 12.7903 0.356532 14.9029C0.775883 17.0154 1.73918 18.982 3.15124 20.6082C3.31943 20.8105 3.41888 21.061 3.43517 21.3236C3.45147 21.5861 3.38377 21.847 3.24188 22.0685L2.67306 22.985C2.55676 23.1724 2.49267 23.3875 2.48741 23.608C2.48214 23.8284 2.5359 24.0463 2.64312 24.2391C2.75034 24.4318 2.90712 24.5924 3.09724 24.7042C3.28735 24.816 3.50389 24.875 3.72445 24.875H12.1446C15.3436 24.9095 18.436 23.7269 20.7957 21.5668C23.1554 19.4066 24.6059 16.4304 24.8534 13.2409C24.9664 11.3376 24.6387 9.43399 23.8957 7.67813C23.1528 5.92228 22.0145 4.36159 20.5697 3.11759C19.1249 1.8736 17.4124 0.979856 15.5657 0.505958C13.7189 0.0320596 11.7877 -0.0092085 9.92239 0.385367ZM12.5001 4.62499C12.8424 4.62501 13.177 4.72654 13.4616 4.91674C13.7462 5.10693 13.968 5.37725 14.099 5.6935C14.2299 6.00976 14.2642 6.35775 14.1974 6.69348C14.1306 7.0292 13.9658 7.33758 13.7237 7.57962C13.4816 7.82166 13.1733 7.98648 12.8375 8.05325C12.5018 8.12002 12.1538 8.08574 11.8376 7.95474C11.5213 7.82374 11.251 7.6019 11.0608 7.31728C10.8707 7.03267 10.7692 6.69805 10.7692 6.35574C10.7692 5.8967 10.9516 5.45648 11.2762 5.13191C11.6008 4.80733 12.041 4.62499 12.5001 4.62499ZM13.8843 19.25H12.5001C12.3523 19.25 12.206 19.2209 12.0695 19.1644C11.933 19.1079 11.8089 19.025 11.7045 18.9206C11.6 18.8161 11.5171 18.6921 11.4606 18.5555C11.4041 18.419 11.375 18.2727 11.3751 18.125V12.327H11.1158C10.8174 12.327 10.5313 12.2084 10.3203 11.9974C10.1093 11.7865 9.99078 11.5003 9.99078 11.202C9.99078 10.9036 10.1093 10.6174 10.3203 10.4065C10.5313 10.1955 10.8174 10.077 11.1158 10.077H12.5001C12.6478 10.0769 12.7941 10.106 12.9306 10.1625C13.0671 10.219 13.1912 10.3019 13.2956 10.4064C13.4001 10.5108 13.483 10.6349 13.5395 10.7714C13.596 10.9079 13.6251 11.0542 13.6251 11.202V17H13.8843C14.1827 17 14.4689 17.1185 14.6798 17.3295C14.8908 17.5405 15.0093 17.8266 15.0093 18.125C15.0093 18.4234 14.8908 18.7095 14.6798 18.9205C14.4689 19.1315 14.1827 19.25 13.8843 19.25Z" fill="#673A91"/>
</svg>
