<svg width="35" height="36" viewBox="0 0 35 36" fill="none" xmlns="http://www.w3.org/2000/svg">
<path fill-rule="evenodd" clip-rule="evenodd" d="M31.3287 33.5595L33.612 31.2065C34.013 30.7932 34.0028 30.1272 33.5897 29.7261L27.2656 23.5894C26.8525 23.1884 26.1862 23.1985 25.7852 23.6117L25.6437 23.7575L22.052 20.2332C23.3588 18.3654 24.1257 16.0922 24.1257 13.6397C24.1257 7.27965 18.9698 2.12378 12.6097 2.12378C6.24962 2.12385 1.09375 7.27972 1.09375 13.6398C1.09375 17.9168 3.42542 21.6491 6.88687 23.6352C7.19346 23.0163 7.59726 22.4541 8.07857 21.9689C5.03357 20.3089 3.12949 17.1256 3.12949 13.6398C3.12949 8.40416 7.37406 4.15959 12.6097 4.15959C17.8454 4.15959 22.0899 8.40416 22.0899 13.6398C22.0899 17.1256 20.1859 20.3088 17.141 21.9689C17.6223 22.4541 18.0262 23.0163 18.3327 23.6352C18.9614 23.2744 19.5526 22.8558 20.0996 22.387L23.6206 25.8424L23.502 25.9647C23.101 26.3779 23.111 27.0442 23.5242 27.4451L29.8483 33.5817C30.2615 33.9827 30.9277 33.9728 31.3287 33.5595ZM12.6098 21.175C15.531 21.175 17.8992 23.5432 17.8992 26.4644C17.8992 29.3856 15.531 31.7537 12.6098 31.7537C9.68851 31.7537 7.3204 29.3856 7.3204 26.4644C7.3204 23.5432 9.68851 21.175 12.6098 21.175ZM11.915 26.9309L14.487 24.3333C14.7915 24.0259 15.2881 24.025 15.5947 24.3299C15.9012 24.6347 15.9022 25.13 15.5981 25.4369C14.5551 26.4895 13.5192 27.5491 12.4715 28.5969C12.1652 28.9032 11.6683 28.9032 11.362 28.5969L9.62363 26.8586C9.31731 26.5523 9.31731 26.0554 9.62363 25.7491C9.92995 25.4428 10.4269 25.4428 10.7332 25.7491L11.915 26.9309ZM12.6098 7.5094C14.3517 7.5094 15.7639 8.92157 15.7639 10.6635C15.7639 12.4055 14.3517 13.8177 12.6098 13.8177C10.8678 13.8177 9.45561 12.4055 9.45561 10.6635C9.45567 8.92157 10.8678 7.5094 12.6098 7.5094ZM6.51574 19.4013C5.09476 17.8989 4.22324 15.8712 4.22324 13.6398C4.22324 9.00798 7.97788 5.25334 12.6097 5.25334C17.2415 5.25334 20.9962 9.00805 20.9962 13.6398C20.9962 15.8711 20.1247 17.8988 18.7037 19.4013C18.0785 16.5412 15.5367 14.5013 12.6098 14.5013C9.6829 14.5013 7.14103 16.5412 6.51574 19.4013Z" fill="#673A91"/>
</svg>
