<svg width="25" height="25" viewBox="0 0 25 25" fill="none" xmlns="http://www.w3.org/2000/svg">
<circle cx="12.5" cy="12.5" r="12.5" fill="#673A91"/>
<path d="M13.088 8.04C14.2293 8.04 15.1147 8.30667 15.744 8.84C16.3733 9.36267 16.688 10.1413 16.688 11.176V17H14.816L14.288 15.816H14.224C13.9787 16.1253 13.7227 16.3813 13.456 16.584C13.2 16.7867 12.9013 16.9307 12.56 17.016C12.2293 17.112 11.8187 17.16 11.328 17.16C10.816 17.16 10.352 17.0587 9.936 16.856C9.53067 16.6533 9.21067 16.344 8.976 15.928C8.74133 15.512 8.624 14.984 8.624 14.344C8.624 13.4053 8.94933 12.712 9.6 12.264C10.2613 11.816 11.2267 11.5653 12.496 11.512L14 11.464V11.208C14 10.7813 13.888 10.472 13.664 10.28C13.4507 10.088 13.152 9.992 12.768 9.992C12.384 9.992 11.984 10.056 11.568 10.184C11.152 10.3013 10.7307 10.4507 10.304 10.632L9.488 8.84C9.968 8.584 10.512 8.38667 11.12 8.248C11.728 8.10933 12.384 8.04 13.088 8.04ZM13.184 13.032C12.512 13.0533 12.0427 13.176 11.776 13.4C11.5093 13.6133 11.376 13.9067 11.376 14.28C11.376 14.6107 11.472 14.8507 11.664 15C11.856 15.1493 12.1013 15.224 12.4 15.224C12.848 15.224 13.2267 15.0907 13.536 14.824C13.8453 14.5467 14 14.1733 14 13.704V13L13.184 13.032Z" fill="white"/>
</svg>
