<svg width="32" height="32" viewBox="0 0 32 32" fill="none" xmlns="http://www.w3.org/2000/svg">
<path d="M22.6667 15C18.8067 15 15.6667 18.14 15.6667 22C15.6667 25.86 18.8067 29 22.6667 29C26.5267 29 29.6667 25.86 29.6667 22C29.6667 18.14 26.5267 15 22.6667 15ZM22.6667 25.8333C22.1147 25.8333 21.6667 25.3853 21.6667 24.8333C21.6667 24.2813 22.1147 23.8333 22.6667 23.8333C23.2187 23.8333 23.6667 24.2813 23.6667 24.8333C23.6667 25.3853 23.2187 25.8333 22.6667 25.8333ZM23.6667 22.1667C23.6667 22.7187 23.2187 23.1667 22.6667 23.1667C22.1147 23.1667 21.6667 22.7187 21.6667 22.1667V19.5C21.6667 18.948 22.1147 18.5 22.6667 18.5C23.2187 18.5 23.6667 18.948 23.6667 19.5V22.1667ZM22.3333 13.0133V6.66667C22.3333 4.64 20.6933 3 18.6667 3H6.66667C4.64 3 3 4.64 3 6.66667V24C3 26.0267 4.64 27.6667 6.66667 27.6667H15.68C14.4267 26.12 13.6667 24.1467 13.6667 22C13.6667 17.1467 17.52 13.1867 22.3333 13.0133ZM8 8.33333H17.3333C17.88 8.33333 18.3333 8.78667 18.3333 9.33333C18.3333 9.88 17.88 10.3333 17.3333 10.3333H8C7.45333 10.3333 7 9.88 7 9.33333C7 8.78667 7.45333 8.33333 8 8.33333ZM8 12.3333H17.3333C17.88 12.3333 18.3333 12.7867 18.3333 13.3333C18.3333 13.88 17.88 14.3333 17.3333 14.3333H8C7.45333 14.3333 7 13.88 7 13.3333C7 12.7867 7.45333 12.3333 8 12.3333ZM12 18.3333H8C7.45333 18.3333 7 17.88 7 17.3333C7 16.7867 7.45333 16.3333 8 16.3333H12C12.5467 16.3333 13 16.7867 13 17.3333C13 17.88 12.5467 18.3333 12 18.3333Z" fill="#673A91"/>
</svg>
