<svg width="22" height="28" viewBox="0 0 22 28" fill="none" xmlns="http://www.w3.org/2000/svg">
<path d="M20.625 10.5H13.7754C12.2447 10.5 11 9.25531 11 7.72461V0.875C11 0.56 11.0831 0.260312 11.2335 0H2.40039C1.35258 0 0.5 0.852578 0.5 1.90039V26.0996C0.5 27.1474 1.35258 28 2.40039 28H19.5996C20.6474 28 21.5 27.1474 21.5 26.0996V10.2665C21.2397 10.4169 20.94 10.5 20.625 10.5ZM7.75648 16.0065C8.09828 15.6647 8.65172 15.6647 8.99352 16.0065L10.125 17.1374V11.8125C10.125 11.3291 10.5166 10.9375 11 10.9375C11.4834 10.9375 11.875 11.3291 11.875 11.8125V17.1374L13.0065 16.0065C13.3477 15.6647 13.9023 15.6647 14.2435 16.0065C14.5853 16.3477 14.5853 16.9023 14.2435 17.2435L11.6185 19.8685C11.4341 20.0577 11.1684 20.1432 10.9158 20.1212C10.4776 20.0627 10.6158 20.1029 7.75648 17.2435C7.41469 16.9023 7.41469 16.3477 7.75648 16.0065ZM15.375 23.625H6.625C6.14156 23.625 5.75 23.2334 5.75 22.75C5.75 22.2666 6.14156 21.875 6.625 21.875H15.375C15.8584 21.875 16.25 22.2666 16.25 22.75C16.25 23.2334 15.8584 23.625 15.375 23.625ZM13.7754 8.75H20.625L12.75 0.875V7.72461C12.75 8.29008 13.2099 8.75 13.7754 8.75Z" fill="#673A91"/>
</svg>
