<svg width="25" height="25" viewBox="0 0 25 25" fill="none" xmlns="http://www.w3.org/2000/svg">
<g clip-path="url(#clip0_2464_2460)">
<path d="M0.732422 25H14.0137C14.4182 25 14.7461 24.6721 14.7461 24.2676V23.4863C14.7461 22.6772 14.0903 22.0215 13.2812 22.0215V21.1458C13.2812 19.9863 12.3379 19.043 11.1784 19.043H3.56769C2.40822 19.043 1.46484 19.9863 1.46484 21.1458V22.0215C0.655746 22.0215 0 22.6772 0 23.4863V24.2676C0 24.6719 0.328064 25 0.732422 25Z" fill="#673A91"/>
<path d="M9.16683 16.1301C9.65359 16.7761 10.5722 16.9052 11.2182 16.4183C11.8644 15.9315 11.9933 15.0129 11.5066 14.3667L7.0987 8.51747C6.61175 7.87127 5.69336 7.74233 5.04734 8.22908C4.40113 8.71603 4.272 9.63442 4.75895 10.2806L9.16683 16.1301Z" fill="#673A91"/>
<path d="M19.6955 8.19589C20.1824 8.84191 21.1008 8.97104 21.747 8.48409C22.393 7.99734 22.5222 7.07895 22.0352 6.43274L17.6273 0.583475C17.1406 -0.0627349 16.222 -0.191862 15.576 0.295084C14.93 0.78203 14.8008 1.70042 15.2878 2.34663L19.6955 8.19589Z" fill="#673A91"/>
<path d="M16.4824 12.4512C17.565 11.6354 18.3777 10.6224 18.886 9.55581L13.7572 2.74963C12.5918 2.94437 11.3942 3.4462 10.3114 4.26216C9.22874 5.07793 8.41602 6.09093 7.90771 7.15732L13.0366 13.9639C14.202 13.7691 15.3996 13.2671 16.4824 12.4512Z" fill="#673A91"/>
<path d="M18.4602 12.642C18.1191 12.9895 17.76 13.3227 17.364 13.6212C16.9678 13.9195 16.5484 14.173 16.1206 14.4051L17.0756 15.6726L19.4154 13.9096L18.4602 12.642Z" fill="#673A91"/>
<path d="M20.2968 15.0793L17.957 16.8423L22.3649 22.6918C22.8519 23.338 23.7702 23.4669 24.4163 22.9802C25.0625 22.4932 25.1914 21.5748 24.7047 20.9286L20.2968 15.0793Z" fill="#673A91"/>
</g>
<defs>
<clipPath id="clip0_2464_2460">
<rect width="25" height="25" fill="white"/>
</clipPath>
</defs>
</svg>
