<svg width="29" height="29" viewBox="0 0 29 29" fill="none" xmlns="http://www.w3.org/2000/svg">
<path d="M20.5415 1.51038H3.62484C3.06484 1.51304 2.52853 1.73669 2.13255 2.13267C1.73657 2.52866 1.51292 3.06496 1.51025 3.62496V25.375C1.51292 25.935 1.73657 26.4713 2.13255 26.8673C2.52853 27.2632 3.06484 27.4869 3.62484 27.4895H21.7498C21.8826 27.4895 22.0157 27.4895 22.1487 27.4775C22.1629 27.4631 22.1792 27.4509 22.197 27.4412C22.4178 26.837 22.5638 26.208 22.6319 25.5683C22.3435 25.6409 22.0472 25.6774 21.7498 25.677C20.7083 25.677 19.7094 25.2633 18.973 24.5268C18.2365 23.7904 17.8228 22.7915 17.8228 21.75C17.8228 20.7084 18.2365 19.7096 18.973 18.9731C19.7094 18.2366 20.7083 17.8229 21.7498 17.8229C22.0552 17.8218 22.3596 17.8583 22.6561 17.9316V3.62496C22.6534 3.06496 22.4298 2.52866 22.0338 2.13267C21.6378 1.73669 21.1015 1.51304 20.5415 1.51038ZM6.64567 6.34371H17.5207C17.761 6.34371 17.9915 6.43919 18.1615 6.60914C18.3314 6.7791 18.4269 7.00961 18.4269 7.24996C18.4269 7.49031 18.3314 7.72082 18.1615 7.89078C17.9915 8.06073 17.761 8.15621 17.5207 8.15621H6.64567C6.40532 8.15621 6.17481 8.06073 6.00485 7.89078C5.8349 7.72082 5.73942 7.49031 5.73942 7.24996C5.73942 7.00961 5.8349 6.7791 6.00485 6.60914C6.17481 6.43919 6.40532 6.34371 6.64567 6.34371ZM6.64567 11.177H17.5207C17.761 11.177 17.9915 11.2725 18.1615 11.4425C18.3314 11.6124 18.4269 11.8429 18.4269 12.0833C18.4269 12.3236 18.3314 12.5542 18.1615 12.7241C17.9915 12.8941 17.761 12.9895 17.5207 12.9895H6.64567C6.40532 12.9895 6.17481 12.8941 6.00485 12.7241C5.8349 12.5542 5.73942 12.3236 5.73942 12.0833C5.73942 11.8429 5.8349 11.6124 6.00485 11.4425C6.17481 11.2725 6.40532 11.177 6.64567 11.177ZM13.2915 22.6562H6.64567C6.40532 22.6562 6.17481 22.5607 6.00485 22.3908C5.8349 22.2208 5.73942 21.9903 5.73942 21.75C5.73942 21.5096 5.8349 21.2791 6.00485 21.1091C6.17481 20.9392 6.40532 20.8437 6.64567 20.8437H13.2915C13.5319 20.8437 13.7624 20.9392 13.9323 21.1091C14.1023 21.2791 14.1978 21.5096 14.1978 21.75C14.1978 21.9903 14.1023 22.2208 13.9323 22.3908C13.7624 22.5607 13.5319 22.6562 13.2915 22.6562ZM14.4998 17.8229H6.64567C6.40532 17.8229 6.17481 17.7274 6.00485 17.5574C5.8349 17.3875 5.73942 17.157 5.73942 16.9166C5.73942 16.6763 5.8349 16.4458 6.00485 16.2758C6.17481 16.1059 6.40532 16.0104 6.64567 16.0104H14.4998C14.7402 16.0104 14.9707 16.1059 15.1407 16.2758C15.3106 16.4458 15.4061 16.6763 15.4061 16.9166C15.4061 17.157 15.3106 17.3875 15.1407 17.5574C14.9707 17.7274 14.7402 17.8229 14.4998 17.8229Z" fill="#673A91"/>
<path d="M22.6562 16.0829C21.9057 15.9629 21.1388 15.9931 20.4001 16.1718C19.6614 16.3505 18.9655 16.6741 18.3528 17.1239C17.7401 17.5736 17.2228 18.1406 16.831 18.7918C16.4392 19.4431 16.1805 20.1656 16.0701 20.9176C15.9598 21.6696 15.9998 22.436 16.1879 23.1724C16.3761 23.9088 16.7086 24.6005 17.1662 25.2074C17.6237 25.8142 18.1973 26.3242 18.8535 26.7077C19.5097 27.0911 20.2355 27.3405 20.9889 27.4412C21.2411 27.4753 21.4954 27.4915 21.75 27.4895C21.8827 27.4895 22.0158 27.4895 22.1488 27.4775C23.5546 27.3794 24.8752 26.7676 25.859 25.7587C26.8429 24.7498 27.4212 23.4143 27.4839 22.0064C27.5466 20.5986 27.0893 19.217 26.199 18.1246C25.3087 17.0322 24.0477 16.3055 22.6562 16.0829ZM22.632 25.5683C22.3436 25.6408 22.0474 25.6774 21.75 25.677C20.7084 25.677 19.7096 25.2633 18.9731 24.5268C18.2366 23.7904 17.8229 22.7915 17.8229 21.75C17.8229 20.7084 18.2366 19.7096 18.9731 18.9731C19.7096 18.2366 20.7084 17.8229 21.75 17.8229C22.0554 17.8218 22.3597 17.8583 22.6562 17.9316C23.5181 18.1347 24.2858 18.6236 24.8344 19.3187C25.3829 20.0138 25.68 20.8741 25.6772 21.7596C25.6744 22.645 25.3719 23.5035 24.8189 24.1951C24.266 24.8867 23.4952 25.3707 22.632 25.5683Z" fill="#673A91"/>
<path d="M21.1456 23.8646C21.0266 23.8647 20.9087 23.8413 20.7988 23.7957C20.6888 23.7502 20.5889 23.6833 20.5049 23.599L19.2966 22.3907C19.2119 22.3067 19.1447 22.2068 19.0987 22.0967C19.0528 21.9866 19.029 21.8686 19.0288 21.7493C19.0286 21.63 19.0519 21.5119 19.0975 21.4016C19.143 21.2914 19.2099 21.1912 19.2942 21.1069C19.3786 21.0225 19.4787 20.9557 19.589 20.9101C19.6992 20.8646 19.8173 20.8413 19.9366 20.8415C20.0559 20.8417 20.1739 20.8655 20.284 20.9114C20.3941 20.9574 20.494 21.0246 20.578 21.1092L21.1456 21.6768L22.9216 19.9009C23.0917 19.732 23.3219 19.6374 23.5616 19.6378C23.8014 19.6383 24.0312 19.7337 24.2007 19.9032C24.3702 20.0728 24.4657 20.3026 24.4661 20.5423C24.4666 20.7821 24.372 21.0122 24.203 21.1824L21.7864 23.599C21.7023 23.6833 21.6025 23.7502 21.4925 23.7957C21.3825 23.8413 21.2647 23.8647 21.1456 23.8646Z" fill="#673A91"/>
</svg>
