<svg width="25" height="25" viewBox="0 0 25 25" fill="none" xmlns="http://www.w3.org/2000/svg">
<circle cx="12.5" cy="12.5" r="12.5" fill="#673A91"/>
<path d="M11.856 8.64C11.856 8.96 11.8453 9.27467 11.824 9.584C11.8027 9.88267 11.776 10.1387 11.744 10.352H11.856C12.08 9.98933 12.384 9.68533 12.768 9.44C13.1627 9.184 13.664 9.056 14.272 9.056C15.2213 9.056 15.9947 9.44 16.592 10.208C17.2 10.976 17.504 12.1013 17.504 13.584C17.504 14.5867 17.36 15.4293 17.072 16.112C16.7947 16.7947 16.4107 17.3067 15.92 17.648C15.4293 17.9893 14.8533 18.16 14.192 18.16C13.5627 18.16 13.072 18.048 12.72 17.824C12.368 17.6 12.08 17.3547 11.856 17.088H11.68L11.248 18H9.152V5.84H11.856V8.64ZM13.344 11.184C12.992 11.184 12.704 11.264 12.48 11.424C12.2667 11.5733 12.1067 11.8027 12 12.112C11.904 12.4213 11.856 12.816 11.856 13.296V13.632C11.856 14.4 11.9627 14.9867 12.176 15.392C12.4 15.7867 12.8 15.984 13.376 15.984C13.8027 15.984 14.1387 15.776 14.384 15.36C14.6293 14.944 14.752 14.3413 14.752 13.552C14.752 12.7733 14.6293 12.1867 14.384 11.792C14.1387 11.3867 13.792 11.184 13.344 11.184Z" fill="white"/>
</svg>
