<svg width="26" height="26" viewBox="0 0 26 26" fill="none" xmlns="http://www.w3.org/2000/svg">
<path d="M8.12179 3.15204C8.54204 3.15204 8.88274 2.81134 8.88274 2.39109V0.760982C8.84566 -0.246871 7.39813 -0.247429 7.36084 0.760982V2.39109C7.36084 2.81134 7.70154 3.15204 8.12179 3.15204Z" fill="#673A91"/>
<path d="M0.786373 8.85747H2.41648C3.42433 8.82039 3.42489 7.37286 2.41648 7.33557H0.786373C-0.221481 7.37265 -0.222039 8.82013 0.786373 8.85747Z" fill="#673A91"/>
<path d="M4.12575 5.17635C4.86463 5.86257 5.88861 4.83955 5.20178 4.10006L3.47265 2.37133C2.73392 1.68501 1.70978 2.70803 2.39661 3.44757C2.39656 3.44757 4.12575 5.17635 4.12575 5.17635Z" fill="#673A91"/>
<path d="M17.9026 22.8218C17.4823 22.8218 17.1416 23.1625 17.1416 23.5827V25.2128C17.1787 26.2207 18.6262 26.2212 18.6635 25.2128V23.5827C18.6635 23.1625 18.3228 22.8218 17.9026 22.8218Z" fill="#673A91"/>
<path d="M25.2383 17.1163H23.6082C22.6003 17.1534 22.5997 18.6009 23.6082 18.6382H25.2383C26.2461 18.6012 26.2467 17.1537 25.2383 17.1163Z" fill="#673A91"/>
<path d="M21.8984 20.797C21.1596 20.1108 20.1356 21.1337 20.8224 21.8733L22.5516 23.6021C23.2904 24.2883 24.3144 23.2653 23.6276 22.5257L21.8984 20.797Z" fill="#673A91"/>
<path d="M16.7379 6.82456L17.9558 8.04244C18.3774 8.46401 19.0618 8.46411 19.483 8.04269L20.7011 6.82451C20.8699 6.65584 20.9746 6.44069 21.006 6.20784L19.1738 4.37557C15.5452 0.68405 9.11147 3.16282 8.84863 8.27468C8.84863 8.69498 9.18934 9.03563 9.60958 9.03563H11.5648C11.985 9.03563 12.3257 8.69498 12.3257 8.27468C12.6149 6.19734 15.2558 5.31423 16.7379 6.82456Z" fill="#673A91"/>
<path d="M24.2262 1.77216C22.0661 -0.387874 18.6745 -0.57314 16.3023 1.21545C17.8419 1.49543 19.3266 2.30001 20.4641 3.51372C22.4627 3.90094 23.2431 6.46454 21.7772 7.9007C21.7773 7.9007 20.5593 9.11868 20.5593 9.11868C19.5441 10.1342 17.8953 10.1342 16.8797 9.11868L15.6617 7.90075C15.0601 7.2858 13.9942 7.63204 13.8417 8.44052C13.8027 8.98161 13.5739 9.47064 13.2222 9.84229C14.9102 13.6068 20.1111 14.5383 22.9957 11.5675C22.9957 11.5676 24.2262 10.3371 24.2262 10.3371C26.5898 7.97345 26.5898 4.13582 24.2262 1.77216Z" fill="#673A91"/>
<path d="M16.4145 16.938H14.4593C14.039 16.938 13.6983 17.2787 13.6983 17.699C13.4083 19.7768 10.769 20.6595 9.28619 19.1492L8.06826 17.9313C7.64674 17.5097 6.96229 17.5096 6.54113 17.931L5.32295 19.1492C5.15418 19.3179 5.04947 19.533 5.01807 19.7659L6.85033 21.5982C10.4788 25.2897 16.9126 22.8109 17.1755 17.6991C17.1755 17.2787 16.8347 16.938 16.4145 16.938Z" fill="#673A91"/>
<path d="M5.5602 22.4601C3.56159 22.0729 2.78121 19.5093 4.24705 18.0731C4.247 18.0731 5.46498 16.8551 5.46498 16.8551C6.48014 15.8396 8.12901 15.8396 9.14463 16.8551L10.3626 18.0731C10.9642 18.688 12.0301 18.3418 12.1826 17.5333C12.2216 16.9922 12.4504 16.5032 12.8021 16.1315C11.1142 12.3674 5.91318 11.4353 3.02862 14.4063C3.02862 14.4062 1.79811 15.6368 1.79811 15.6368C-3.36981 21.1 3.64834 29.0965 9.72194 24.7584C8.18243 24.4783 6.69767 23.6738 5.5602 22.4601Z" fill="#673A91"/>
</svg>
