<svg width="33" height="33" viewBox="0 0 33 33" fill="none" xmlns="http://www.w3.org/2000/svg">
<path fill-rule="evenodd" clip-rule="evenodd" d="M16.8755 4.44814C14.5303 4.37004 12.1609 5.00988 10.1153 6.37534C7.81773 7.91058 6.21209 10.1777 5.47253 12.7121C5.26829 12.6871 5.02373 12.6981 4.73333 12.7803C3.64909 13.0879 2.83363 13.9763 2.46696 14.7588C1.99139 15.7785 1.79083 17.1271 2.00239 18.5193C2.21249 19.9072 2.79879 21.0512 3.53213 21.7614C4.26766 22.472 5.09816 22.703 5.92316 22.5296C7.15149 22.2674 7.76053 22.0712 7.58856 20.9269L6.75586 15.3796C6.92379 12.3773 8.47809 9.55104 11.0778 7.81304C14.5574 5.48874 19.1195 5.63761 22.4386 8.18558C24.7475 9.95584 26.088 12.6083 26.2427 15.3928L25.6605 19.2732C24.3617 22.8273 21.142 25.2891 17.4163 25.6385H14.9355C14.2953 25.6385 13.7797 26.1541 13.7797 26.7935V27.4029C13.7797 28.0428 14.2953 28.5583 14.9355 28.5583H18.0635C18.7033 28.5583 19.2167 28.0428 19.2167 27.4029V27.0843C22.0261 26.3986 24.4783 24.672 26.0752 22.2641L27.0773 22.5299C27.8927 22.7415 28.7331 22.472 29.4683 21.7618C30.2016 21.0512 30.7876 19.9075 30.998 18.5197C31.2103 17.1275 31.0039 15.7811 30.5338 14.7592C30.0619 13.7373 29.359 13.0883 28.5476 12.8554C28.2077 12.7575 27.8388 12.7216 27.5224 12.7121C26.8536 10.4204 25.4768 8.33628 23.4924 6.81461C21.5413 5.31751 19.2207 4.52514 16.8755 4.44814Z" fill="#673A91"/>
<path fill-rule="evenodd" clip-rule="evenodd" d="M20.5366 14.428C21.3634 14.428 22.0337 15.0983 22.0355 15.9273C22.0337 16.7542 21.3634 17.4263 20.5366 17.4263C19.7076 17.4263 19.0355 16.7542 19.0355 15.9273C19.0355 15.0987 19.7079 14.428 20.5366 14.428ZM16.4996 14.428C17.3283 14.428 17.9985 15.0983 17.9985 15.9273C17.9985 16.7542 17.3283 17.4263 16.4996 17.4263C15.6702 17.4263 14.9999 16.7542 14.9999 15.9273C14.9999 15.0987 15.6702 14.428 16.4996 14.428ZM12.4641 14.428C13.2909 14.428 13.963 15.0983 13.963 15.9273C13.963 16.7542 13.2909 17.4263 12.4641 17.4263C11.6354 17.4263 10.9648 16.7542 10.9648 15.9273C10.9648 15.0987 11.6354 14.428 12.4641 14.428ZM16.4996 7.98865C12.1033 7.98865 8.56055 11.4148 8.56055 15.9273C8.56055 18.0947 9.38005 20.0102 10.7151 21.4156L10.2413 23.5393C10.0851 24.2382 10.5699 24.7083 11.198 24.3585L13.2718 23.2016C14.2574 23.6295 15.3475 23.866 16.4996 23.866C20.8974 23.866 24.4379 20.4421 24.4379 15.9273C24.4379 11.4148 20.8974 7.98865 16.4996 7.98865Z" fill="#673A91"/>
</svg>
