<svg width="25" height="25" viewBox="0 0 25 25" fill="none" xmlns="http://www.w3.org/2000/svg">
<g clip-path="url(#clip0_2464_2539)">
<path d="M18.164 10.9371C15.7949 10.9371 13.8673 12.8648 13.8673 15.2338C13.8673 17.6029 15.7949 19.5305 18.164 19.5305C20.533 19.5305 22.4607 17.6029 22.4607 15.2338C22.4607 12.8648 20.533 10.9371 18.164 10.9371ZM19.9857 14.5444C18.7367 16.4182 19.0908 15.887 18.4232 16.888C18.1835 17.2477 17.698 17.3431 17.3398 17.1043L16.168 16.3231C15.8091 16.0839 15.7124 15.599 15.9517 15.2397C16.1909 14.8808 16.6757 14.7841 17.0351 15.0234L17.5566 15.371C18.8025 13.5024 18.7355 13.5541 18.9452 13.4346C19.6567 13.023 20.4429 13.8576 19.9857 14.5444ZM14.6485 19.9182V24.2178C14.6485 24.8164 15.2968 25.1936 15.8174 24.896L18.164 23.5553L20.5106 24.896C21.0291 25.1932 21.6795 24.8181 21.6795 24.2178V19.9182C19.5981 21.4842 16.7328 21.4864 14.6485 19.9182ZM19.7264 9.58656V1.69671C19.7264 0.761202 18.9652 0 18.0297 0H4.23627C3.30075 0 2.53955 0.761202 2.53955 1.69671V19.7869C2.53955 20.7224 3.30075 21.4836 4.23627 21.4836H13.086C13.086 18.1217 13.0808 18.3298 13.0982 18.1751C10.483 13.6915 14.6474 8.17606 19.7264 9.58656ZM7.22688 3.9061H13.8673C14.2989 3.9061 14.6485 4.2557 14.6485 4.68733C14.6485 5.11895 14.2989 5.46855 13.8673 5.46855H7.22688C6.79525 5.46855 6.44566 5.11895 6.44566 4.68733C6.44566 4.2557 6.79525 3.9061 7.22688 3.9061ZM11.133 11.7183H7.22688C6.79525 11.7183 6.44566 11.3687 6.44566 10.9371C6.44566 10.5055 6.79525 10.1559 7.22688 10.1559H11.133C11.5646 10.1559 11.9142 10.5055 11.9142 10.9371C11.9142 11.3687 11.5646 11.7183 11.133 11.7183ZM7.22688 8.59343C6.79525 8.59343 6.44566 8.24383 6.44566 7.81221C6.44566 7.38058 6.79525 7.03099 7.22688 7.03099H13.8673C14.2989 7.03099 14.6485 7.38058 14.6485 7.81221C14.6485 8.24383 14.2989 8.59343 13.8673 8.59343H7.22688Z" fill="#673A91"/>
</g>
<defs>
<clipPath id="clip0_2464_2539">
<rect width="25" height="25" fill="white"/>
</clipPath>
</defs>
</svg>
