<svg width="41" height="41" viewBox="0 0 41 41" fill="none" xmlns="http://www.w3.org/2000/svg">
<g clip-path="url(#clip0_1054_2145)">
<path d="M30.7914 38.022H30.7913V38.222C30.7913 38.9368 30.2094 39.5187 29.4946 39.5187H11.5055C10.7906 39.5187 10.2088 38.9368 10.2088 38.222V2.7779C10.2088 2.06308 10.7906 1.48125 11.5055 1.48125H29.4947C30.2095 1.48125 30.7914 2.06309 30.7914 2.7779V38.022ZM29.4946 -0.2H11.5055C9.86327 -0.2 8.52755 1.13572 8.52755 2.7779V38.222C8.52755 39.8642 9.86327 41.1999 11.5055 41.1999H29.4947C31.1368 41.1999 32.4726 39.8642 32.4726 38.222V2.7779C32.4726 1.13571 31.1368 -0.2 29.4946 -0.2ZM22.5928 4.28654C23.0571 4.28654 23.4334 3.91016 23.4334 3.44592C23.4334 2.98158 23.057 2.60529 22.5928 2.60529H18.4072C17.943 2.60529 17.5666 2.98167 17.5666 3.44592C17.5666 3.91016 17.943 4.28654 18.4072 4.28654H22.5928ZM20.5 34.4206C19.2016 34.4206 18.1456 35.4766 18.1456 36.775C18.1456 38.0734 19.2016 39.1294 20.5 39.1294C21.7984 39.1294 22.8544 38.0734 22.8544 36.775C22.8544 35.4766 21.7984 34.4206 20.5 34.4206ZM20.5 37.4482C20.129 37.4482 19.8268 37.146 19.8268 36.775C19.8268 36.404 20.129 36.1018 20.5 36.1018C20.8709 36.1018 21.1731 36.404 21.1731 36.775C21.1731 37.146 20.871 37.4482 20.5 37.4482Z" fill="#6A6A6A" stroke="#6A6A6A" stroke-width="0.4"/>
</g>
<defs>
<clipPath id="clip0_1054_2145">
<rect width="41" height="41" fill="white"/>
</clipPath>
</defs>
</svg>
