<svg width="28" height="30" viewBox="0 0 28 30" fill="none" xmlns="http://www.w3.org/2000/svg">
<path fill-rule="evenodd" clip-rule="evenodd" d="M14 3C10.6863 3 8 5.68629 8 9C8 12.3137 10.6863 15 14 15C17.3137 15 20 12.3137 20 9C20 5.68629 17.3137 3 14 3ZM5 9C5 4.02944 9.02944 0 14 0C18.9706 0 23 4.02944 23 9C23 13.9705 18.9706 18 14 18C9.02944 18 5 13.9705 5 9ZM4.71972 21.9248C7.16514 20.3963 10.4501 19.5 14 19.5C17.5499 19.5 20.8349 20.3963 23.2803 21.9248C25.7045 23.4399 27.5 25.7251 27.5 28.5C27.5 29.3284 26.8284 30 26 30C25.1716 30 24.5 29.3284 24.5 28.5C24.5 27.1327 23.6091 25.668 21.6903 24.4688C19.7925 23.2827 17.0776 22.5 14 22.5C10.9225 22.5 8.20743 23.2827 6.30971 24.4688C4.39086 25.668 3.5 27.1327 3.5 28.5C3.5 29.3284 2.82842 30 2 30C1.17158 30 0.5 29.3284 0.5 28.5C0.5 25.7251 2.29542 23.4399 4.71972 21.9248Z" fill="#7B51AE"/>
</svg>
