<svg width="38" height="38" viewBox="0 0 38 38" fill="none" xmlns="http://www.w3.org/2000/svg">
<path d="M19 38C29.4753 38 38 29.4753 38 19C38 8.52469 29.4754 0 19 0C8.52458 0 0 8.52469 0 19C0 29.4753 8.52469 38 19 38ZM19 2.53329C28.082 2.53329 35.4667 9.91793 35.4667 19C35.4667 28.0821 28.0821 35.4667 19 35.4667C9.91793 35.4667 2.53329 28.0821 2.53329 19C2.53329 9.91793 9.91804 2.53329 19 2.53329Z" fill="#8C61C9"/>
<path d="M24.5417 25.0548C24.7761 25.2447 25.0546 25.3335 25.3333 25.3335C25.707 25.3335 26.0743 25.1688 26.3213 24.8585C26.7583 24.3138 26.6696 23.5158 26.125 23.0787L20.2666 18.3921V8.86674C20.2666 8.17007 19.6967 7.6001 19 7.6001C18.3033 7.6001 17.7334 8.17007 17.7334 8.86674V19.0001C17.7334 19.3865 17.9107 19.7475 18.2083 19.9881L24.5417 25.0548Z" fill="#8C61C9"/>
</svg>
