<svg width="16" height="20" viewBox="0 0 16 20" fill="none" xmlns="http://www.w3.org/2000/svg">
<path d="M7.71619 0C3.58119 0 0.216187 3.38833 0.216187 7.55417C0.216187 13.4733 7.01119 19.585 7.30035 19.8417C7.41952 19.9475 7.56785 20 7.71619 20C7.86452 20 8.01285 19.9475 8.13202 19.8425C8.42119 19.585 15.2162 13.4733 15.2162 7.55417C15.2162 3.38833 11.8512 0 7.71619 0ZM7.71619 11.6667C5.41869 11.6667 3.54952 9.7975 3.54952 7.5C3.54952 5.2025 5.41869 3.33333 7.71619 3.33333C10.0137 3.33333 11.8829 5.2025 11.8829 7.5C11.8829 9.7975 10.0137 11.6667 7.71619 11.6667Z" fill="#EFA6C3"/>
</svg>
