<svg width="21" height="20" viewBox="0 0 21 20" fill="none" xmlns="http://www.w3.org/2000/svg">
<path d="M19.6508 14.678L16.8598 11.8869C15.863 10.8901 14.1684 11.2889 13.7697 12.5847C13.4706 13.4818 12.4738 13.9802 11.5767 13.7808C9.58308 13.2824 6.8917 10.6907 6.3933 8.59745C6.09426 7.70029 6.69234 6.70348 7.58947 6.40448C8.88531 6.00575 9.28404 4.31119 8.28723 3.31438L5.49617 0.523323C4.69873 -0.174441 3.50256 -0.174441 2.8048 0.523323L0.910868 2.41725C-0.983064 4.41087 1.11023 9.69394 5.79522 14.3789C10.4802 19.0639 15.7633 21.2569 17.7569 19.2633L19.6508 17.3693C20.3486 16.5719 20.3486 15.3757 19.6508 14.678Z" fill="#EFA6C3"/>
</svg>
