<svg width="37" height="37" viewBox="0 0 37 37" fill="none" xmlns="http://www.w3.org/2000/svg">
<path d="M37 3.08333C37 4.00833 36.6917 4.625 36.075 5.24166L5.24167 36.075C4.00833 37.3083 2.15833 37.3083 0.925 36.075C-0.308333 34.8417 -0.308334 32.9917 0.925 31.7583L31.7583 0.92499C32.9917 -0.308343 34.8417 -0.308344 36.075 0.92499C36.6917 1.54166 37 2.15833 37 3.08333Z" fill="white"/>
<path d="M36.9994 3.0834L36.9994 30.8334C36.9994 32.6834 35.766 33.9167 33.916 33.9167C32.066 33.9167 30.8327 32.6834 30.8327 30.8334L30.8327 6.16674L6.16604 6.16674C4.31604 6.16674 3.0827 4.93341 3.0827 3.08341C3.0827 1.23341 4.31603 7.24253e-05 6.16604 7.23445e-05L33.916 7.11315e-05C35.766 7.10506e-05 36.9994 1.2334 36.9994 3.0834Z" fill="white"/>
</svg>
