<svg width="21" height="15" viewBox="0 0 21 15" fill="none" xmlns="http://www.w3.org/2000/svg">
<path d="M11.8876 9.7433C11.3901 10.075 10.8121 10.2504 10.2162 10.2504C9.62033 10.2504 9.04236 10.075 8.54478 9.7433L0.349351 4.27951C0.303882 4.2492 0.259585 4.2176 0.216187 4.1851V13.1381C0.216187 14.1646 1.04919 14.9792 2.05732 14.9792H18.375C19.4015 14.9792 20.2161 14.1462 20.2161 13.1381V4.18506C20.1727 4.21764 20.1283 4.24932 20.0827 4.27967L11.8876 9.7433Z" fill="#EFA6C3"/>
<path d="M0.99939 3.30437L9.19482 8.7682C9.50505 8.97504 9.8606 9.07844 10.2161 9.07844C10.5717 9.07844 10.9273 8.975 11.2376 8.7682L19.433 3.30437C19.9234 2.97762 20.2162 2.43074 20.2162 1.84051C20.2162 0.825625 19.3905 0 18.3757 0H2.05669C1.04185 3.90625e-05 0.216187 0.825664 0.216187 1.84148C0.216187 2.43074 0.508999 2.97762 0.99939 3.30437Z" fill="#EFA6C3"/>
</svg>
