<svg width="65" height="56" viewBox="0 0 65 56" fill="none" xmlns="http://www.w3.org/2000/svg">
<path d="M65 24.9009C65 23.0035 63.495 21.4513 61.6151 21.3758V17.4017C61.6151 13.824 58.798 10.8909 55.2648 10.7048C56.5891 9.59222 57.4333 7.92407 57.4333 6.06307C57.4333 2.72002 54.7133 0 51.3702 0C48.0272 0 45.3072 2.72002 45.3072 6.06307C45.3072 7.92407 46.1513 9.59222 47.4756 10.7048C45.082 10.8302 43.0173 12.2165 41.9344 14.2096C40.8516 12.2165 38.7869 10.8302 36.3933 10.7048C37.7175 9.59222 38.5617 7.92407 38.5617 6.06307C38.5617 2.72002 35.8417 0 32.4987 0C29.1556 0 26.4356 2.72002 26.4356 6.06307C26.4356 7.92407 27.2798 9.59222 28.604 10.7048C26.2104 10.8302 24.1457 12.2165 23.0629 14.2096C21.98 12.2165 19.9154 10.8302 17.5217 10.7048C18.846 9.59222 19.6901 7.92407 19.6901 6.06307C19.6901 2.72002 16.9701 0 13.6271 0C10.284 0 7.5667 2.72002 7.5667 6.06307C7.5667 7.92407 8.41089 9.59222 9.73517 10.7048C6.20197 10.8909 3.38485 13.8226 3.38485 17.4017V21.3758C1.50633 21.4513 0 23.0035 0 24.9009C0 26.6635 1.29865 28.128 2.98973 28.3883V54.8185C2.98973 55.2648 3.35249 55.6276 3.79886 55.6276H61.2011C61.6475 55.6276 62.0103 55.2648 62.0103 54.8185V28.3883C63.7014 28.128 65 26.6635 65 24.9009ZM46.9254 6.06307C46.9254 3.61276 48.9199 1.61826 51.3702 1.61826C53.8205 1.61826 55.815 3.61276 55.815 6.06307C55.815 8.51338 53.8205 10.5079 51.3702 10.5079C48.9199 10.5079 46.9254 8.51338 46.9254 6.06307ZM47.833 12.3136H54.9102C57.7151 12.3136 59.9982 14.5953 59.9982 17.4017V21.3718H56.2385V18.1515C56.2385 17.7051 55.8757 17.3423 55.4294 17.3423C54.983 17.3423 54.6202 17.7051 54.6202 18.1515V21.3718H48.1229V18.1515C48.1229 17.7051 47.7602 17.3423 47.3138 17.3423C46.8674 17.3423 46.5047 17.7051 46.5047 18.1515V21.3718H42.7449V17.4017C42.7449 14.5953 45.0267 12.3136 47.833 12.3136ZM28.0552 6.06307C28.0552 3.61276 30.0497 1.61826 32.5 1.61826C34.9503 1.61826 36.9448 3.61276 36.9448 6.06307C36.9448 8.51338 34.9503 10.5079 32.5 10.5079C30.0497 10.5079 28.0552 8.51338 28.0552 6.06307ZM28.9614 12.3136H36.0372C38.8422 12.3136 41.1253 14.5953 41.1253 17.4017V21.3718H37.3656V18.1515C37.3656 17.7051 37.0028 17.3423 36.5564 17.3423C36.1101 17.3423 35.7473 17.7051 35.7473 18.1515V21.3718H29.25V18.1515C29.25 17.7051 28.8872 17.3423 28.4409 17.3423C27.9945 17.3423 27.6317 17.7051 27.6317 18.1515V21.3718H23.872V17.4017C23.8733 14.5953 26.1564 12.3136 28.9614 12.3136ZM9.18496 6.06307C9.18496 3.61276 11.1795 1.61826 13.6298 1.61826C16.0801 1.61826 18.0746 3.61276 18.0746 6.06307C18.0746 8.51338 16.0801 10.5079 13.6298 10.5079C11.1795 10.5079 9.18496 8.51338 9.18496 6.06307ZM10.0912 12.3136H17.167C19.972 12.3136 22.2551 14.5953 22.2551 17.4017V21.3718H18.4953V18.1515C18.4953 17.7051 18.1326 17.3423 17.6862 17.3423C17.2398 17.3423 16.8771 17.7051 16.8771 18.1515V21.3718H10.3811V18.1515C10.3811 17.7051 10.0184 17.3423 9.57199 17.3423C9.12562 17.3423 8.76286 17.7051 8.76286 18.1515V21.3718H5.00311V17.4017C5.00311 14.5953 7.2862 12.3136 10.0912 12.3136ZM4.60799 54.0093V28.4287H60.392V54.0093H4.60799ZM61.4709 26.8105H3.52915C2.47593 26.8105 1.61826 25.9528 1.61826 24.8996C1.61826 23.8464 2.47593 22.9887 3.52915 22.9887H61.4709C62.5241 22.9887 63.3817 23.8464 63.3817 24.8996C63.3817 25.9542 62.5241 26.8105 61.4709 26.8105ZM54.2561 37.5732C54.2561 38.0196 53.8934 38.3824 53.447 38.3824H11.553C11.1066 38.3824 10.7439 38.0196 10.7439 37.5732C10.7439 37.1269 11.1066 36.7641 11.553 36.7641H53.447C53.8934 36.7641 54.2561 37.1269 54.2561 37.5732ZM54.2561 44.8648C54.2561 45.3112 53.8934 45.674 53.447 45.674H11.553C11.1066 45.674 10.7439 45.3112 10.7439 44.8648C10.7439 44.4185 11.1066 44.0557 11.553 44.0557H53.447C53.8934 44.0557 54.2561 44.4185 54.2561 44.8648Z" fill="white"/>
</svg>
