<svg width="47" height="47" viewBox="0 0 47 47" fill="none" xmlns="http://www.w3.org/2000/svg">
<path d="M16.3177 11.0359C16.1826 11.4515 16.3155 11.8969 16.6561 12.1707L19.6885 14.6081L18.6679 18.3625C18.5533 18.784 18.7076 19.2224 19.0613 19.4796C19.4151 19.7363 19.8795 19.7476 20.2451 19.5084L23.5002 17.3775L26.7555 19.5085C26.931 19.6233 27.1292 19.6804 27.327 19.6804C27.5414 19.6804 27.7554 19.6133 27.9391 19.4796C28.2929 19.2227 28.4473 18.784 28.3325 18.3625L27.3118 14.6082L30.3441 12.1709C30.6849 11.8971 30.8178 11.4516 30.6827 11.0359C30.5477 10.6201 30.1783 10.3378 29.7418 10.3167L25.8559 10.1272L24.4749 6.49003C24.3199 6.08144 23.9372 5.81734 23.5001 5.81734C23.0631 5.81734 22.6804 6.08135 22.5255 6.48993L21.1444 10.1273L17.2587 10.3167C16.8221 10.3378 16.4527 10.6201 16.3177 11.0359ZM21.4945 11.5806C21.9087 11.5604 22.2714 11.2969 22.4183 10.9093L23.5 8.06039L24.5818 10.9096C24.729 11.2971 25.0918 11.5604 25.5056 11.5806L28.5492 11.729L26.1739 13.6381C25.8507 13.898 25.7123 14.3244 25.8211 14.7243L26.6205 17.6649L24.0708 15.9958C23.8974 15.8823 23.6987 15.8256 23.5 15.8256C23.3012 15.8256 23.1023 15.8824 22.9288 15.9959L20.3793 17.6649L21.1787 14.7245C21.2876 14.3243 21.1491 13.8978 20.8258 13.6381L18.4506 11.7291L21.4945 11.5806ZM22.7657 3.42934V0.734374C22.7657 0.328816 23.0945 0 23.5 0C23.9056 0 24.2344 0.328816 24.2344 0.734374V3.42934C24.2344 3.8349 23.9056 4.16371 23.5 4.16371C23.0945 4.16371 22.7657 3.8349 22.7657 3.42934ZM27.2378 7.78032C26.9665 7.47895 26.9908 7.01455 27.2922 6.7432L30.2952 4.03905C30.5967 3.76761 31.061 3.79194 31.3324 4.0934C31.6038 4.39477 31.5795 4.85917 31.2781 5.13052L28.2749 7.83466C28.1346 7.96107 27.9589 8.02331 27.7837 8.02331C27.583 8.02331 27.3829 7.94142 27.2378 7.78032ZM15.6677 4.0934C15.939 3.79194 16.4033 3.76761 16.7048 4.03905L19.708 6.7432C20.0094 7.01455 20.0337 7.47895 19.7623 7.78032C19.6173 7.94133 19.4172 8.02331 19.2164 8.02331C19.0413 8.02331 18.8656 7.96107 18.7252 7.83466L15.722 5.13052C15.4205 4.85917 15.3963 4.39477 15.6677 4.0934ZM32.9213 12.1707L35.9538 14.6081L34.9331 18.3625C34.8185 18.784 34.9728 19.2224 35.3265 19.4796C35.68 19.7363 36.1445 19.7475 36.5103 19.5084L39.7654 17.3775L43.0207 19.5085C43.1962 19.6233 43.3944 19.6804 43.5922 19.6804C43.8066 19.6804 44.0206 19.6133 44.2043 19.4796C44.558 19.2229 44.7123 18.7844 44.5977 18.3625L43.577 14.6082L46.6093 12.1709C46.95 11.8972 47.083 11.4517 46.9478 11.0359C46.8128 10.6201 46.4434 10.3378 46.007 10.3167L42.1211 10.1272L40.7402 6.49003C40.5852 6.08144 40.2025 5.81734 39.7654 5.81734C39.3283 5.81734 38.9456 6.08135 38.7906 6.48993L37.4097 10.1272L33.524 10.3166C33.0873 10.3377 32.7179 10.6201 32.5829 11.0359C32.4477 11.4516 32.5807 11.8971 32.9213 12.1707ZM37.7596 11.5806C38.1739 11.5604 38.5367 11.2969 38.6837 10.9092L39.7653 8.0603L40.8469 10.9091C40.994 11.2969 41.3568 11.5604 41.7709 11.5805L44.8145 11.729L42.4395 13.6379C42.1161 13.8977 41.9775 14.3241 42.0864 14.7242L42.8858 17.6648L40.3361 15.9957C40.1626 15.8822 39.9639 15.8255 39.7652 15.8255C39.5663 15.8255 39.3675 15.8823 39.1941 15.9958L36.6446 17.6648L37.444 14.7244C37.5528 14.3244 37.4144 13.898 37.0911 13.6381L34.7159 11.729L37.7596 11.5806ZM0.390706 12.1707L3.42315 14.6081L2.40248 18.3625C2.28792 18.784 2.44223 19.2224 2.79591 19.4796C3.14969 19.7363 3.61408 19.7476 3.9797 19.5084L7.23483 17.3775L10.4901 19.5085C10.6656 19.6233 10.8638 19.6804 11.0616 19.6804C11.276 19.6804 11.49 19.6133 11.6737 19.4796C12.0273 19.2229 12.1817 18.7844 12.0671 18.3625L11.0464 14.6082L14.0787 12.1709C14.4192 11.8974 14.5523 11.452 14.4172 11.0354C14.2819 10.6199 13.9125 10.3377 13.4764 10.3166L9.59047 10.1271L8.2096 6.49003C8.05456 6.08144 7.67187 5.81734 7.23483 5.81734C6.79771 5.81734 6.41502 6.08135 6.25997 6.48993L4.8791 10.1272L0.993431 10.3166C0.556763 10.3377 0.187381 10.6201 0.0524422 11.0354C-0.0829551 11.4514 0.0498719 11.897 0.390706 12.1707ZM5.22903 11.5806C5.6433 11.5604 6.00607 11.2969 6.15312 10.9092L7.23474 8.0603L8.31627 10.9091C8.46342 11.2969 8.82619 11.5604 9.24027 11.5805L12.2839 11.729L9.90891 13.6379C9.58552 13.8977 9.44691 14.3241 9.55577 14.7242L10.3552 17.6648L7.80552 15.9957C7.63203 15.8822 7.43329 15.8255 7.23456 15.8255C7.03573 15.8255 6.8369 15.8823 6.6635 15.9958L4.11399 17.6648L4.91344 14.7244C5.02221 14.3244 4.88379 13.898 4.56048 13.6381L2.18529 11.729L5.22903 11.5806ZM46.8839 39.0075C46.3672 37.3388 45.3089 35.8405 43.9038 34.7883C43.2312 34.2846 42.4986 33.8923 41.7259 33.6145C42.7972 32.7736 43.4875 31.4683 43.4875 30.0038C43.4875 27.4734 41.4289 25.4147 38.8985 25.4147C36.3681 25.4147 34.3094 27.4734 34.3094 30.0038C34.3094 31.4665 34.9981 32.7706 36.0673 33.6115C34.6343 34.123 33.3648 35.0217 32.3926 36.2327C31.9382 35.597 31.414 35.0066 30.8248 34.4737C29.6375 33.4 28.2442 32.6114 26.7436 32.1454C28.3349 31.0904 29.3868 29.2842 29.3868 27.2361C29.3868 23.9902 26.746 21.3493 23.5001 21.3493C20.2543 21.3493 17.6134 23.9902 17.6134 27.2361C17.6134 29.2842 18.6653 31.0904 20.2566 32.1454C18.7559 32.6113 17.3626 33.4 16.1753 34.4737C15.586 35.0066 15.0619 35.597 14.6076 36.2326C13.6355 35.0215 12.366 34.1229 10.9329 33.6113C12.002 32.7703 12.6907 31.4663 12.6907 30.0036C12.6907 27.4731 10.6321 25.4145 8.10174 25.4145C5.57133 25.4145 3.51265 27.4731 3.51265 30.0036C3.51265 31.4679 4.20294 32.7733 5.27419 33.6142C4.50146 33.892 3.76894 34.2843 3.09617 34.788C1.69107 35.8401 0.632769 37.3385 0.116056 39.0071C-0.122702 39.7778 0.00957401 40.56 0.488467 41.2097C0.967269 41.8593 1.67537 42.2169 2.48225 42.2169H12.6341V43.5423C12.6341 45.4489 14.1852 47 16.0917 47H30.9083C32.8148 47 34.366 45.4489 34.3661 43.5423V42.2173H44.5178C45.3248 42.2173 46.0329 41.8596 46.5116 41.2101C46.9904 40.5604 47.1227 39.7781 46.8839 39.0075ZM38.8985 26.8835C40.619 26.8835 42.0188 28.2833 42.0188 30.0038C42.0188 31.7245 40.619 33.1243 38.8985 33.1243C37.1779 33.1243 35.7781 31.7245 35.7781 30.0038C35.7781 28.2833 37.1779 26.8835 38.8985 26.8835ZM19.0821 27.2361C19.0821 24.8 21.0641 22.8181 23.5001 22.8181C25.9362 22.8181 27.9181 24.8 27.9181 27.2361C27.9181 29.6714 25.9375 31.6528 23.5025 31.6541H23.5H23.4977C21.0627 31.6527 19.0821 29.6714 19.0821 27.2361ZM8.10174 26.8831C9.82225 26.8831 11.222 28.2829 11.222 30.0035C11.222 31.7241 9.82225 33.1239 8.10174 33.1239C6.38114 33.1239 4.98136 31.7241 4.98136 30.0035C4.98136 28.2829 6.38114 26.8831 8.10174 26.8831ZM12.7295 40.7481H2.48234C2.14435 40.7481 1.87136 40.6102 1.67078 40.3381C1.47012 40.066 1.41917 39.7644 1.51914 39.4416C2.41726 36.5412 5.06269 34.5927 8.10174 34.5927C10.4006 34.5927 12.4947 35.7034 13.7826 37.5837C13.2735 38.5729 12.9168 39.6391 12.7295 40.7481ZM32.8974 43.5422C32.8973 44.6389 32.005 45.5312 30.9083 45.5312H16.0917C14.9951 45.5312 14.1028 44.6389 14.1028 43.5422V41.5224C14.6345 36.7317 18.6665 33.124 23.4977 33.1228L23.5001 33.1229L23.5025 33.1228C28.3336 33.1241 32.3655 36.7317 32.8974 41.5224V43.5422ZM45.3294 40.3386C45.1288 40.6106 44.8559 40.7485 44.5178 40.7485H34.2708C34.0833 39.6394 33.7267 38.5732 33.2176 37.5839C34.5057 35.7037 36.5997 34.593 38.8984 34.593C41.9375 34.593 44.5829 36.5417 45.481 39.442C45.581 39.7647 45.53 40.0663 45.3294 40.3386Z" fill="#16151D"/>
</svg>
