<svg width="40" height="40" viewBox="0 0 40 40" fill="none" xmlns="http://www.w3.org/2000/svg">
<path d="M19.9969 24.1998C22.3165 24.1998 24.1969 22.3194 24.1969 19.9998C24.1969 17.6802 22.3165 15.7998 19.9969 15.7998C17.6773 15.7998 15.7969 17.6802 15.7969 19.9998C15.7969 22.3194 17.6773 24.1998 19.9969 24.1998Z" fill="#ED99BB"/>
<path d="M20 0C8.95432 0 0 8.95432 0 20C0 31.0457 8.95432 40 20 40C31.0457 40 40 31.0457 40 20C40 8.95432 31.0457 0 20 0ZM32.3566 25.0832C32.2606 26.9846 31.7263 28.8597 30.3406 30.2306C28.9415 31.6146 27.0576 32.1303 25.1378 32.2254H14.8622C12.9422 32.1303 11.0586 31.615 9.65944 30.2306C8.27368 28.8597 7.73944 26.9846 7.64344 25.0832V14.9168C7.73944 13.0154 8.27376 11.1403 9.65944 9.76928C11.0586 8.38528 12.9425 7.8696 14.8622 7.77464H25.1378C27.0578 7.8696 28.9414 8.38504 30.3406 9.76928C31.7263 11.1403 32.2606 13.0154 32.3566 14.9168L32.3566 25.0832Z" fill="#ED99BB"/>
<path d="M25.0076 10.0905C22.5047 10.0219 17.4951 10.0219 14.9922 10.0905C13.6897 10.1263 12.2132 10.4505 11.2852 11.4417C10.3209 12.4721 9.95646 13.7169 9.9195 15.1094C9.85454 17.5536 9.9195 24.8896 9.9195 24.8896C9.96182 26.282 10.3209 27.5269 11.2852 28.5573C12.2132 29.5488 13.6897 29.8727 14.9922 29.9085C17.4951 29.9771 22.5047 29.9771 25.0076 29.9085C26.3101 29.8727 27.7866 29.5485 28.7146 28.5573C29.6789 27.5269 30.0433 26.2821 30.0803 24.8896V15.1094C30.0433 13.7169 29.6789 12.4721 28.7146 11.4417C27.7863 10.4502 26.3097 10.1263 25.0076 10.0905ZM19.9996 26.5095C18.712 26.5095 17.4534 26.1277 16.3828 25.4124C15.3123 24.697 14.4778 23.6803 13.9851 22.4908C13.4924 21.3012 13.3635 19.9923 13.6147 18.7295C13.8659 17.4666 14.4859 16.3067 15.3963 15.3962C16.3068 14.4858 17.4667 13.8658 18.7295 13.6146C19.9924 13.3634 21.3013 13.4923 22.4908 13.985C23.6804 14.4778 24.6971 15.3122 25.4124 16.3827C26.1278 17.4533 26.5096 18.7119 26.5096 19.9995C26.5096 21.7261 25.8237 23.3819 24.6028 24.6028C23.382 25.8236 21.7261 26.5095 19.9996 26.5095ZM26.5373 14.8333C26.2798 14.8332 26.0281 14.7568 25.814 14.6137C25.5999 14.4706 25.4331 14.2672 25.3346 14.0293C25.2361 13.7914 25.2104 13.5296 25.2606 13.2771C25.3109 13.0245 25.4349 12.7926 25.617 12.6105C25.7991 12.4284 26.0311 12.3045 26.2837 12.2543C26.5362 12.204 26.798 12.2298 27.0359 12.3284C27.2738 12.427 27.4771 12.5938 27.6202 12.8079C27.7632 13.022 27.8396 13.2738 27.8396 13.5313C27.8396 13.7023 27.8059 13.8716 27.7404 14.0296C27.675 14.1876 27.5791 14.3311 27.4581 14.452C27.3372 14.5729 27.1936 14.6688 27.0356 14.7342C26.8776 14.7997 26.7083 14.8333 26.5373 14.8333Z" fill="#ED99BB"/>
</svg>
