<svg width="37" height="37" viewBox="0 0 37 37" fill="none" xmlns="http://www.w3.org/2000/svg">
<path d="M37 3.08333C37 4.00833 36.6917 4.625 36.075 5.24166L5.24167 36.075C4.00833 37.3083 2.15833 37.3083 0.925 36.075C-0.308333 34.8417 -0.308334 32.9917 0.925 31.7583L31.7583 0.92499C32.9917 -0.308343 34.8417 -0.308344 36.075 0.92499C36.6917 1.54166 37 2.15833 37 3.08333Z" fill="white"/>
<path d="M36.9994 3.08347L36.9994 30.8335C36.9994 32.6835 35.766 33.9168 33.916 33.9168C32.066 33.9168 30.8327 32.6835 30.8327 30.8335L30.8327 6.1668L6.16602 6.1668C4.31602 6.1668 3.08269 4.93347 3.08269 3.08347C3.08269 1.23347 4.31602 0.00013346 6.16602 0.00013338L33.916 0.000132167C35.766 0.000132086 36.9994 1.23347 36.9994 3.08347Z" fill="white"/>
</svg>
