<svg width="43" height="46" viewBox="0 0 43 46" fill="none" xmlns="http://www.w3.org/2000/svg">
<path d="M18.125 40.0332L17.0265 40.0341L16.8717 33.9109C16.8135 31.55 15.8994 29.5485 14.1546 27.9593C13.1609 27.0565 12.1681 26.1537 11.1744 25.2499C10.4931 24.6301 9.81093 24.0102 9.12876 23.3903L9.04013 19.8472C8.99626 18.2212 7.64356 16.9303 6.02408 16.9716C5.99274 16.9725 5.96051 16.9743 5.92918 16.9761L5.87994 15.0105C5.83966 13.3836 4.48695 12.0918 2.86568 12.1331C1.2462 12.1735 -0.0393641 13.5318 0.000921565 15.1606L0.372445 29.96C0.418102 31.7288 1.10296 33.2264 2.40642 34.4104L4.58454 36.3921C5.5872 37.3031 6.1136 38.4548 6.14851 39.814L6.15389 40.0475L5.11004 40.0484C4.39474 40.0484 3.81284 40.6324 3.81284 41.3501L3.81553 44.6983C3.81553 45.4161 4.39833 46 5.11541 46L18.1313 45.9874C18.8457 45.9874 19.4276 45.4026 19.4276 44.6821L19.4222 41.3349C19.4231 40.6171 18.8412 40.0332 18.125 40.0332ZM6.06168 18.4081C6.89067 18.3865 7.58716 19.0504 7.60954 19.8859L7.66684 22.1623C7.17356 21.8847 6.61046 21.7544 6.05004 21.7868L5.96589 18.4153C5.99811 18.4117 6.02945 18.409 6.06168 18.4081ZM7.5791 39.7771C7.53345 38.0083 6.84859 36.5107 5.54512 35.3267L3.36701 33.3449C2.36435 32.434 1.83795 31.2823 1.80303 29.9222L1.43241 15.1246C1.41182 14.2874 2.07071 13.5893 2.90238 13.5687H2.94088C3.75644 13.5687 4.43055 14.2236 4.45114 15.0465L4.63019 22.2476C4.40996 22.3887 4.21301 22.5567 4.04202 22.7489C2.95341 23.9554 3.04652 25.8258 4.24882 26.9172C5.93455 28.4534 7.61939 29.986 9.30691 31.5195C9.44388 31.6444 9.61577 31.7055 9.78676 31.7055C9.98192 31.7055 10.1762 31.6255 10.3176 31.4692C10.5826 31.1754 10.5602 30.7209 10.2675 30.455C8.57998 28.9224 6.89514 27.3898 5.20941 25.8536C4.5917 25.2921 4.54335 24.3318 5.10646 23.7083C5.22731 23.5727 5.37413 23.4604 5.54244 23.376C5.55676 23.3688 5.57019 23.3607 5.58452 23.3526C5.60152 23.3472 5.61853 23.3418 5.63465 23.3346C6.17358 23.1065 6.80204 23.2134 7.23444 23.605C8.22815 24.5079 9.22097 25.4107 10.2147 26.3145C11.2084 27.2182 12.2021 28.121 13.1949 29.0239C14.638 30.3382 15.3936 31.9938 15.442 33.9468L15.596 40.0359L7.58627 40.0448L7.5791 39.7771ZM5.24701 44.5635L5.24432 41.4849L16.3184 41.4714C16.322 41.4714 16.3247 41.4723 16.3283 41.4723H16.3471H16.3506L17.9916 41.4705L17.9961 44.5519L5.24701 44.5635ZM40.1326 12.134C39.3457 12.1142 38.6044 12.4035 38.0342 12.9488C37.4639 13.4932 37.1398 14.2263 37.1201 15.0114L37.0709 16.9779C37.0387 16.9761 37.0055 16.9743 36.9733 16.9734C35.3574 16.9321 34.002 18.2239 33.9608 19.8508L33.8722 23.3903C33.1892 24.0111 32.507 24.631 31.8248 25.2517C30.8311 26.1546 29.8383 27.0583 28.8437 27.962C27.0997 29.553 26.1857 31.5545 26.1275 33.9118L25.9753 40.035L24.8742 40.0341C24.1589 40.0341 23.577 40.618 23.577 41.3349L23.5743 44.6839C23.5743 45.4026 24.1553 45.9874 24.8706 45.9874L37.8874 46C38.6026 46 39.1846 45.4161 39.1846 44.6992L39.1872 41.3555C39.1899 41.0079 39.0565 40.6809 38.8121 40.4329C38.5668 40.185 38.2401 40.0484 37.8936 40.0484L36.8489 40.0475L36.8551 39.814C36.8883 38.4548 37.4138 37.3031 38.4173 36.3912L40.5946 34.4104C41.9016 33.2237 42.5856 31.7252 42.6285 29.9591L42.9992 15.1614C43.0377 13.5327 41.753 12.1744 40.1326 12.134ZM36.899 18.4072C36.9115 18.4072 36.9241 18.4072 36.9366 18.4081C36.9697 18.409 37.002 18.4126 37.0351 18.4153L36.95 21.7868C36.3896 21.7544 35.8274 21.8838 35.335 22.1605L35.3923 19.885C35.4129 19.063 36.0852 18.4072 36.899 18.4072ZM37.7531 44.5635L25.0067 44.551L25.0094 41.4696L26.653 41.4714H26.6566H26.6665L37.7558 41.4849L37.7531 44.5635ZM41.1962 29.924C41.163 31.2823 40.6366 32.4331 39.6313 33.3467L37.4541 35.3276C36.1488 36.5134 35.4657 38.011 35.4219 39.778L35.4147 40.0457L27.405 40.0367L27.5563 33.9477C27.6047 31.9974 28.3611 30.3409 29.8034 29.0257C30.7971 28.1228 31.7908 27.2191 32.7836 26.3163C33.7773 25.4134 34.7701 24.5097 35.7639 23.6077C36.1963 23.2152 36.8247 23.1091 37.3636 23.3373C37.3824 23.3454 37.4012 23.3508 37.42 23.3571C37.4326 23.3643 37.4451 23.3724 37.4585 23.3787C37.6242 23.4613 37.7719 23.5745 37.8972 23.7137C38.4549 24.3336 38.4066 25.2948 37.7907 25.8563C36.1031 27.3916 34.4183 28.9242 32.7308 30.4576C32.438 30.7236 32.4157 31.1781 32.6807 31.4719C32.8221 31.6282 33.0164 31.7081 33.2115 31.7081C33.3825 31.7081 33.5544 31.6471 33.6914 31.5222C35.3789 29.9887 37.0646 28.4561 38.7522 26.9199C39.9509 25.8276 40.0449 23.9581 38.9598 22.7516C38.7844 22.5567 38.5856 22.3887 38.369 22.2485L38.4791 17.8879C38.4791 17.879 38.48 17.8709 38.48 17.8619L38.5507 15.0483C38.5606 14.6458 38.728 14.2703 39.0207 13.99C39.3135 13.7097 39.6948 13.5597 40.0959 13.5714C40.9267 13.592 41.5865 14.29 41.5659 15.1273L41.1962 29.924ZM30.0003 6.98467C31.9197 6.98467 33.4819 5.41705 33.4819 3.49099C33.4819 1.56582 31.9197 0 30.0003 0C28.0818 0 26.5214 1.56582 26.5214 3.49099C26.5205 5.41705 28.0818 6.98467 30.0003 6.98467ZM30.0003 1.43556C31.131 1.43556 32.0504 2.35727 32.0504 3.49099C32.0504 4.6256 31.131 5.54821 30.0003 5.54821C28.8714 5.54821 27.952 4.6256 27.952 3.49099C27.952 2.35727 28.8705 1.43556 30.0003 1.43556ZM12.9998 6.98467C14.9183 6.98467 16.4787 5.41705 16.4787 3.49099C16.4787 1.56582 14.9183 0 12.9998 0C11.0813 0 9.52087 1.56582 9.52087 3.49099C9.52087 5.41705 11.0813 6.98467 12.9998 6.98467ZM12.9998 1.43556C14.1287 1.43556 15.0481 2.35727 15.0481 3.49099C15.0481 4.6256 14.1296 5.54821 12.9998 5.54821C11.8709 5.54821 10.9515 4.6256 10.9515 3.49099C10.9524 2.35727 11.8709 1.43556 12.9998 1.43556ZM21.5009 8.30614C23.6764 8.30614 25.4471 6.5301 25.4471 4.34622C25.4471 2.16233 23.6773 0.38629 21.5009 0.38629C19.3246 0.38629 17.5547 2.16233 17.5547 4.34622C17.5547 6.5301 19.3255 8.30614 21.5009 8.30614ZM21.5009 1.82275C22.8877 1.82275 24.0157 2.95467 24.0157 4.34622C24.0157 5.73776 22.8877 6.86968 21.5009 6.86968C20.1142 6.86968 18.9862 5.73776 18.9862 4.34622C18.9862 2.95467 20.1142 1.82275 21.5009 1.82275ZM28.6476 16.8647H33.7227C34.583 16.8647 35.2831 16.2134 35.2831 15.413V11.4791C35.2831 9.4147 33.4013 7.73569 31.088 7.73569H28.9135C27.2376 7.73569 25.7453 8.64212 25.0837 9.9591C24.397 9.62043 23.6092 9.42638 22.7695 9.42638H20.2288C19.39 9.42638 18.6022 9.62043 17.9164 9.9591C17.253 8.64212 15.7607 7.73569 14.0848 7.73569H11.9129C9.59965 7.73569 7.71786 9.4147 7.71786 11.4791V15.413C7.71786 16.2134 8.41794 16.8647 9.27826 16.8647H14.3534C12.9783 18.594 13.0866 21.1319 14.6819 22.7354L20.0157 28.0878C20.4114 28.4849 20.9369 28.7032 21.4974 28.7032C22.0578 28.7032 22.5842 28.4849 22.979 28.0878L28.3164 22.7345C29.9135 21.1319 30.0227 18.5949 28.6476 16.8647ZM28.9135 9.17215H31.088C32.6117 9.17215 33.8516 10.207 33.8516 11.4791V15.3878C33.8346 15.4031 33.7916 15.4283 33.7218 15.4283H27.5527V13.681C27.5527 12.567 27.0684 11.5519 26.277 10.7928C26.6333 9.84771 27.6969 9.17215 28.9135 9.17215ZM22.7704 10.8628C23.6173 10.8628 24.3917 11.1288 24.9825 11.5663C25.0165 11.5986 25.0532 11.6273 25.0935 11.6525C25.7274 12.1655 26.123 12.8859 26.123 13.6819V15.3007C24.7166 15.0033 23.192 15.4004 22.1025 16.4946L21.5018 17.0974L20.9011 16.4946C19.8107 15.4013 18.287 15.0042 16.8806 15.3007V13.681C16.8806 12.885 17.2754 12.1655 17.9075 11.6525C17.9495 11.6264 17.9889 11.5959 18.0238 11.5627C18.6138 11.127 19.3855 10.8619 20.2306 10.8619H22.7704V10.8628ZM9.15024 15.3887V11.4791C9.15024 10.207 10.3901 9.17215 11.9138 9.17215H14.0857C15.3023 9.17215 16.3659 9.84771 16.7231 10.7937C15.9326 11.5528 15.4482 12.5679 15.4482 13.6819V15.4292H9.28005C9.21023 15.4292 9.16725 15.404 9.15024 15.3887ZM27.3065 21.7203L21.9691 27.0727C21.8438 27.1984 21.6773 27.2676 21.4991 27.2676C21.321 27.2676 21.1545 27.1984 21.0291 27.0727L15.6953 21.7203C14.5396 20.5587 14.5396 18.6695 15.6953 17.5097C16.2736 16.9294 17.0328 16.6401 17.792 16.6401C18.5511 16.6401 19.3103 16.9303 19.8886 17.5097L20.9951 18.6201C21.1294 18.7548 21.3111 18.8303 21.5009 18.8303C21.6907 18.8303 21.8725 18.7548 22.0067 18.6201L23.1133 17.5097C23.6701 16.951 24.4149 16.6428 25.2099 16.6428C26.0049 16.6428 26.7488 16.951 27.3065 17.5097C28.4623 18.6695 28.4623 20.5587 27.3065 21.7203Z" fill="#16151D"/>
</svg>
