<svg width="58" height="63" viewBox="0 0 58 63" fill="none" xmlns="http://www.w3.org/2000/svg">
<path d="M55.667 12.9235C54.1112 12.9235 52.6569 13.364 51.4204 14.1256V7.42982C51.4204 5.09054 49.5174 3.18746 47.1781 3.18746C46.415 3.18746 45.6992 3.39099 45.0798 3.74492C44.8329 1.63942 43.0396 0 40.8698 0C38.5305 0 36.6274 1.90308 36.6274 4.24236V8.17888C36.0151 7.83553 35.31 7.63864 34.5595 7.63864C32.2202 7.63864 30.3171 9.54172 30.3171 11.881V17.2479C29.8594 17.5275 29.4186 17.8395 29.0006 18.1871C28.5824 17.8393 28.1415 17.5269 27.6832 17.247V11.881C27.6832 9.54172 25.7801 7.63864 23.4408 7.63864C22.6903 7.63864 21.985 7.83528 21.3728 8.17888V4.24236C21.3729 1.90308 19.4698 0 17.1306 0C14.9607 0 13.1676 1.63942 12.9204 3.74504C12.3012 3.39111 11.5852 3.18758 10.8222 3.18758C8.48288 3.18758 6.5798 5.09066 6.5798 7.42995V14.1257C5.34338 13.3641 3.88893 12.9236 2.33326 12.9236C1.04666 12.9236 0 13.9703 0 15.2569V42.515C0 43.9638 0.452804 45.3472 1.30959 46.5156L8.6751 56.5593V61.8774C8.6751 62.4777 9.16184 62.9645 9.76222 62.9645C10.3626 62.9645 10.8493 62.4777 10.8493 61.8774V56.2033C10.8493 55.9721 10.7756 55.7468 10.6389 55.5605L3.06301 45.2297C2.48157 44.4369 2.17425 43.4981 2.17425 42.5149V15.2569C2.17425 15.1692 2.24557 15.0979 2.33326 15.0979C5.61283 15.0979 8.28083 17.7659 8.28083 21.0454V29.7837C8.28083 30.3841 8.76758 30.8709 9.36795 30.8709C16.1611 30.8709 21.6877 36.3975 21.6877 43.1906V46.7395C21.6877 47.3399 22.1745 47.8267 22.7749 47.8267C23.3752 47.8267 23.862 47.3399 23.862 46.7395V44.4717L27.9131 48.5228V61.8774C27.9131 62.4777 28.3999 62.9645 29.0002 62.9645C29.6006 62.9645 30.0874 62.4777 30.0874 61.8774V48.5228L34.1379 44.4723V46.7397C34.1379 47.34 34.6246 47.8268 35.225 47.8268C35.8254 47.8268 36.3121 47.34 36.3121 46.7397V43.1908C36.3121 36.3976 41.8388 30.871 48.632 30.871C49.2324 30.871 49.7192 30.3842 49.7192 29.7839V21.0456C49.7192 17.766 52.3872 15.098 55.6667 15.098C55.7544 15.098 55.8258 15.1693 55.8258 15.257V42.5151C55.8258 43.4983 55.5184 44.437 54.937 45.23L47.3611 55.5607C47.2243 55.7472 47.1507 55.9723 47.1507 56.2035V61.8776C47.1507 62.478 47.6374 62.9647 48.2378 62.9647C48.8382 62.9647 49.3249 62.478 49.3249 61.8776V56.5596L56.6904 46.5156C57.5472 45.3473 58 43.9638 58 42.515V15.2569C58.0004 13.9703 56.9536 12.9235 55.667 12.9235ZM12.8903 20.2129C11.5095 22.1028 10.7624 24.3735 10.7624 26.7608C10.7624 27.4432 10.8259 28.1189 10.948 28.7832C10.7844 28.7654 10.6204 28.7492 10.4551 28.7369V21.0454C10.4552 19.1765 9.81904 17.4545 8.75417 16.0806V7.42982C8.75417 6.28945 9.68192 5.36183 10.8222 5.36183C11.9625 5.36183 12.8902 6.28957 12.8902 7.42982L12.8903 20.2129ZM38.8017 11.881V4.24236H38.8018C38.8018 3.10199 39.7296 2.17437 40.8698 2.17437C42.009 2.17437 42.9357 3.10211 42.9357 4.24236V7.42982V17.972C41.7045 17.0115 40.3017 16.3268 38.8017 15.9548V11.881ZM32.4915 11.881C32.4915 10.7406 33.4192 9.81301 34.5595 9.81301C35.6998 9.81301 36.6274 10.7408 36.6274 11.881V15.6395C36.4537 15.6315 36.2794 15.6267 36.1043 15.6267C34.856 15.6267 33.6396 15.8334 32.4913 16.2263V11.881H32.4915ZM21.3729 11.881C21.3729 10.7406 22.3007 9.81301 23.4409 9.81301C24.5813 9.81301 25.5089 10.7408 25.5089 11.881V16.2261C24.3613 15.8336 23.145 15.6273 21.8964 15.6273C21.7212 15.6273 21.5467 15.6321 21.3729 15.6401V11.881ZM15.0645 7.42982V4.24236C15.0645 3.10199 15.9915 2.17437 17.1306 2.17437C18.2709 2.17437 19.1985 3.10211 19.1985 4.24236V11.8811V15.9551C17.6979 16.3269 16.295 17.0115 15.0645 17.9718V7.42982ZM44.714 29.2356C39.2179 30.7811 35.0345 35.4932 34.2659 41.2697L29.0004 46.5353L23.7342 41.2691C22.9655 35.4924 18.7815 30.7802 13.2848 29.2351C13.055 28.4329 12.9366 27.6032 12.9366 26.7608C12.9366 24.3661 13.8686 22.1164 15.5611 20.4255C17.2533 18.7333 19.503 17.8014 21.8964 17.8014C24.2897 17.8014 26.5396 18.7333 28.2318 20.4255C28.6562 20.8499 29.3442 20.85 29.7689 20.426C31.4635 18.7332 33.7135 17.801 36.1044 17.801C38.4956 17.801 40.7455 18.7332 42.4401 20.426C44.1323 22.1164 45.0643 24.3661 45.0643 26.7608C45.0643 27.601 44.9453 28.4309 44.714 29.2356ZM49.2461 16.0806C48.1815 17.4546 47.5452 19.1767 47.5452 21.0453V28.7368C47.3798 28.7491 47.2156 28.7652 47.0518 28.7831C47.1748 28.1178 47.2385 27.442 47.2385 26.7607C47.2385 24.3731 46.4912 22.1022 45.11 20.212V7.42982C45.11 6.28945 46.0377 5.36183 47.178 5.36183C48.3183 5.36183 49.246 6.28957 49.246 7.42982V16.0806H49.2461Z" fill="white"/>
</svg>
