<svg width="21" height="20" viewBox="0 0 21 20" fill="none" xmlns="http://www.w3.org/2000/svg">
<path d="M7.42549 0H4.63479C3.73572 0 3.00689 0.728839 3.00689 1.62791V15.5814C3.00689 16.4805 3.73572 17.2093 4.63479 17.2093H7.42549C8.32456 17.2093 9.0534 16.4805 9.0534 15.5814V1.62791C9.0534 0.728839 8.32456 0 7.42549 0Z" fill="#EFA6C3"/>
<path d="M18.5883 2.79102H9.98363V15.5817C9.98363 16.2602 9.71411 16.9108 9.23437 17.3906C8.75462 17.8703 8.10395 18.1399 7.42549 18.1399H4.63479C3.95633 18.1399 3.30566 17.8703 2.82591 17.3906C2.34617 16.9108 2.07665 16.2602 2.07665 15.5817V2.79102H1.84409C1.4131 2.79346 1.00045 2.96575 0.695688 3.27052C0.390924 3.57528 0.218628 3.98793 0.216187 4.41892V18.3724C0.218628 18.8034 0.390924 19.2161 0.695688 19.5208C1.00045 19.8256 1.4131 19.9979 1.84409 20.0003H18.5883C19.0193 19.9979 19.4319 19.8256 19.7367 19.5208C20.0415 19.2161 20.2137 18.8034 20.2162 18.3724V4.41892C20.2137 3.98793 20.0415 3.57528 19.7367 3.27052C19.4319 2.96575 19.0193 2.79346 18.5883 2.79102ZM12.0767 16.2794C11.9387 16.2794 11.8038 16.2385 11.689 16.1618C11.5743 16.0851 11.4849 15.9762 11.4321 15.8487C11.3793 15.7212 11.3655 15.5809 11.3924 15.4456C11.4193 15.3103 11.4858 15.186 11.5833 15.0884C11.6809 14.9908 11.8052 14.9244 11.9405 14.8974C12.0759 14.8705 12.2162 14.8843 12.3436 14.9371C12.4711 14.99 12.5801 15.0794 12.6567 15.1941C12.7334 15.3088 12.7743 15.4437 12.7743 15.5817C12.7719 15.766 12.6976 15.9421 12.5673 16.0724C12.437 16.2027 12.2609 16.277 12.0767 16.2794ZM12.0767 13.4887C11.9387 13.4887 11.8038 13.4478 11.689 13.3711C11.5743 13.2944 11.4849 13.1855 11.4321 13.058C11.3793 12.9305 11.3655 12.7902 11.3924 12.6549C11.4193 12.5196 11.4858 12.3953 11.5833 12.2977C11.6809 12.2001 11.8052 12.1337 11.9405 12.1067C12.0759 12.0798 12.2162 12.0936 12.3436 12.1464C12.4711 12.1993 12.5801 12.2887 12.6567 12.4034C12.7334 12.5181 12.7743 12.653 12.7743 12.791C12.7719 12.9753 12.6976 13.1514 12.5673 13.2817C12.437 13.412 12.2609 13.4863 12.0767 13.4887ZM14.8673 16.2794C14.7294 16.2794 14.5945 16.2385 14.4797 16.1618C14.365 16.0851 14.2756 15.9762 14.2228 15.8487C14.17 15.7212 14.1562 15.5809 14.1831 15.4456C14.21 15.3103 14.2764 15.186 14.374 15.0884C14.4716 14.9908 14.5959 14.9244 14.7312 14.8974C14.8666 14.8705 15.0069 14.8843 15.1343 14.9371C15.2618 14.99 15.3708 15.0794 15.4474 15.1941C15.5241 15.3088 15.565 15.4437 15.565 15.5817C15.5626 15.766 15.4883 15.9421 15.358 16.0724C15.2277 16.2027 15.0516 16.277 14.8673 16.2794ZM14.8673 13.4887C14.7294 13.4887 14.5945 13.4478 14.4797 13.3711C14.365 13.2944 14.2756 13.1855 14.2228 13.058C14.17 12.9305 14.1562 12.7902 14.1831 12.6549C14.21 12.5196 14.2764 12.3953 14.374 12.2977C14.4716 12.2001 14.5959 12.1337 14.7312 12.1067C14.8666 12.0798 15.0069 12.0936 15.1343 12.1464C15.2618 12.1993 15.3708 12.2887 15.4474 12.4034C15.5241 12.5181 15.565 12.653 15.565 12.791C15.5626 12.9753 15.4883 13.1514 15.358 13.2817C15.2277 13.412 15.0516 13.4863 14.8673 13.4887ZM17.658 16.2794C17.5201 16.2794 17.3852 16.2385 17.2704 16.1618C17.1557 16.0851 17.0663 15.9762 17.0135 15.8487C16.9607 15.7212 16.9469 15.5809 16.9738 15.4456C17.0007 15.3103 17.0671 15.186 17.1647 15.0884C17.2623 14.9908 17.3866 14.9244 17.5219 14.8974C17.6573 14.8705 17.7976 14.8843 17.925 14.9371C18.0525 14.99 18.1615 15.0794 18.2381 15.1941C18.3148 15.3088 18.3557 15.4437 18.3557 15.5817C18.3533 15.766 18.279 15.9421 18.1487 16.0724C18.0184 16.2027 17.8423 16.277 17.658 16.2794ZM17.658 13.4887C17.5201 13.4887 17.3852 13.4478 17.2704 13.3711C17.1557 13.2944 17.0663 13.1855 17.0135 13.058C16.9607 12.9305 16.9469 12.7902 16.9738 12.6549C17.0007 12.5196 17.0671 12.3953 17.1647 12.2977C17.2623 12.2001 17.3866 12.1337 17.5219 12.1067C17.6573 12.0798 17.7976 12.0936 17.925 12.1464C18.0525 12.1993 18.1615 12.2887 18.2381 12.4034C18.3148 12.5181 18.3557 12.653 18.3557 12.791C18.3533 12.9753 18.279 13.1514 18.1487 13.2817C18.0184 13.412 17.8423 13.4863 17.658 13.4887ZM17.658 10.2329H12.0767C11.8916 10.2329 11.7142 10.1594 11.5833 10.0285C11.4525 9.89769 11.379 9.72024 11.379 9.5352C11.379 9.35017 11.4525 9.17271 11.5833 9.04187C11.7142 8.91103 11.8916 8.83753 12.0767 8.83753H17.658C17.8431 8.83753 18.0205 8.91103 18.1514 9.04187C18.2822 9.17271 18.3557 9.35017 18.3557 9.5352C18.3557 9.72024 18.2822 9.89769 18.1514 10.0285C18.0205 10.1594 17.8431 10.2329 17.658 10.2329ZM17.658 7.44218H12.0767C11.8916 7.44218 11.7142 7.36867 11.5833 7.23783C11.4525 7.10699 11.379 6.92954 11.379 6.7445C11.379 6.55947 11.4525 6.38201 11.5833 6.25117C11.7142 6.12033 11.8916 6.04683 12.0767 6.04683H17.658C17.8431 6.04683 18.0205 6.12033 18.1514 6.25117C18.2822 6.38201 18.3557 6.55947 18.3557 6.7445C18.3557 6.92954 18.2822 7.10699 18.1514 7.23783C18.0205 7.36867 17.8431 7.44218 17.658 7.44218Z" fill="#EFA6C3"/>
</svg>
