<svg width="62" height="63" viewBox="0 0 62 63" fill="none" xmlns="http://www.w3.org/2000/svg">
<path d="M21.0909 47.8868H19.926C20.4103 46.7874 20.3579 45.8973 20.1747 45.2953C19.8605 44.222 18.8004 43.0571 17.2297 43.0571C16.8109 43.0571 16.3921 43.1357 15.9602 43.2927C15.2141 43.5676 14.7167 43.8686 14.4942 44.0257C14.2717 43.8686 13.7875 43.5676 13.0283 43.2927C12.5964 43.1357 12.1645 43.0571 11.7587 43.0571C10.1881 43.0571 9.12795 44.222 8.81382 45.2953C8.63059 45.9366 8.56514 46.9052 9.1803 48.1224H7.76674C7.64895 48.1224 7.55733 48.214 7.55733 48.3318C7.55733 48.4496 7.64895 48.5412 7.76674 48.5412H9.42899C9.49443 48.659 9.57296 48.7768 9.66458 48.8946C11.0258 50.8579 13.9838 52.9913 14.5204 53.1222V53.1353C14.5204 53.1353 14.5335 53.1353 14.5466 53.1222C14.5597 53.1222 14.5728 53.1222 14.5859 53.1222V53.1091C15.044 52.8866 17.8842 51.0542 19.3763 48.8815C19.5202 48.6852 19.638 48.4889 19.7427 48.2925H21.117C21.2348 48.2925 21.3264 48.2009 21.3264 48.0831C21.3264 47.9653 21.2087 47.8868 21.0909 47.8868ZM18.9967 48.659C17.6093 50.6877 15.057 52.3238 14.5073 52.6772C13.9445 52.3238 11.4054 50.6746 10.0049 48.659C9.9787 48.6197 9.95253 48.5805 9.92635 48.5412H11.8504C11.9289 48.5412 12.0074 48.502 12.0467 48.4234L12.9236 46.6957L14.2979 50.2165C14.3241 50.2951 14.4157 50.3474 14.4942 50.3474C14.4942 50.3474 14.4942 50.3474 14.5073 50.3474C14.5989 50.3474 14.6775 50.282 14.7037 50.1904L15.9078 46.0675L16.5491 48.1486C16.5753 48.2271 16.6408 48.2794 16.7193 48.2925C16.7978 48.3056 16.8764 48.2664 16.9287 48.2009L17.4392 47.4549L17.8711 48.1878C17.9103 48.2533 17.9758 48.2925 18.0543 48.2925H19.2323C19.1538 48.4234 19.0752 48.5412 18.9967 48.659ZM19.4679 47.8868H18.1852L17.6486 46.9706C17.6093 46.9052 17.5439 46.8659 17.4653 46.8659C17.3868 46.8659 17.3214 46.8921 17.2821 46.9575L16.8371 47.6119L16.1172 45.2691C16.091 45.1775 15.9994 45.1251 15.9078 45.112C15.8162 45.112 15.7246 45.1775 15.6984 45.2691L14.4812 49.4705L13.1592 46.0937C13.133 46.0151 13.0545 45.9628 12.976 45.9628C12.8844 45.9628 12.8189 46.002 12.7796 46.0806L11.7457 48.1093H9.66458C9.14104 47.1538 8.99706 46.2376 9.23266 45.4131C9.50752 44.4838 10.4106 43.489 11.7718 43.489C12.1383 43.489 12.5179 43.5676 12.8974 43.6985C13.8529 44.0519 14.3634 44.4576 14.3764 44.4576C14.455 44.523 14.5597 44.523 14.6382 44.4576C14.6382 44.4576 15.1487 44.0519 16.1172 43.6985C16.4968 43.5545 16.8764 43.489 17.2428 43.489C18.5909 43.489 19.5071 44.4838 19.782 45.4131C20.0045 46.1722 19.8867 47.0099 19.4679 47.8868Z" fill="white"/>
<path d="M31 17.5752C31.5714 17.5752 32.0338 17.1123 32.0338 16.5413V1.03383C32.0338 0.462899 31.5714 0 31 0C30.4286 0 29.9662 0.462899 29.9662 1.03383V16.5413C29.9662 17.1123 30.4286 17.5752 31 17.5752Z" fill="white"/>
<path d="M32.0338 45.4886C32.0126 44.1344 29.9892 44.1258 29.9662 45.4886V60.996C29.9874 62.3501 32.0108 62.3588 32.0338 60.996V45.4886Z" fill="white"/>
<path d="M1.01884 32.0486H16.5263C17.0978 32.0486 17.5602 31.5857 17.5602 31.0148C17.5602 30.4439 17.0978 29.981 16.5263 29.981H1.01884C-0.335284 30.0023 -0.343937 32.0255 1.01884 32.0486Z" fill="white"/>
<path d="M60.9812 29.981H45.4737C44.9022 29.981 44.4398 30.4439 44.4398 31.0148C44.4398 31.5857 44.9022 32.0486 45.4737 32.0486H60.9812C62.3353 32.0272 62.3439 30.0041 60.9812 29.981Z" fill="white"/>
<path d="M27.8541 22.267C27.5754 22.3665 27.3048 22.4791 26.9959 22.6254C26.1815 21.5717 24.6862 21.2417 23.6895 22.2429C23.6895 22.2428 22.2276 23.7047 22.2276 23.7047C21.4209 24.5109 21.4209 25.8229 22.2276 26.629L22.589 27.0541C22.4638 27.3201 22.3507 27.5922 22.2377 27.9137C20.9044 27.7512 19.635 28.5573 19.6278 29.9815C19.6278 29.9814 19.6278 32.0491 19.6278 32.0491C19.6278 33.1894 20.5557 34.1167 21.6955 34.1167L22.2508 34.1596C22.3507 34.4378 22.4638 34.7109 22.6102 35.0183C21.5564 35.8329 21.2265 37.3281 22.2276 38.3253C22.2276 38.3253 23.6895 39.7872 23.6895 39.7872C24.4951 40.5938 25.8076 40.5933 26.6133 39.7877L27.0393 39.4272C27.3049 39.5514 27.5754 39.664 27.8985 39.7776C27.7358 41.1113 28.5426 42.3803 29.9662 42.3874C29.9662 42.3874 32.0338 42.3874 32.0338 42.3874C33.1737 42.3874 34.1015 41.4601 34.1015 40.3197L34.1459 39.7634C34.4256 39.6635 34.6982 39.5509 35.0031 39.405C35.8174 40.4587 37.3128 40.7887 38.3095 39.7876C38.3095 39.7877 39.7714 38.3258 39.7714 38.3258C40.5781 37.5196 40.5781 36.2076 39.7724 35.402L39.411 34.9769C39.5362 34.7109 39.6492 34.4383 39.7623 34.1167C41.0956 34.2793 42.365 33.4732 42.3721 32.049V29.9814C42.3721 28.8411 41.4443 27.9137 40.3045 27.9137L39.7492 27.8713C39.6492 27.5922 39.5362 27.3201 39.3898 27.0117C40.4436 26.197 40.7734 24.7018 39.7723 23.7046C39.7724 23.7047 38.3105 22.2428 38.3105 22.2428C37.5048 21.4361 36.1924 21.4361 35.3867 22.2428L34.9607 22.6032C34.6951 22.479 34.4245 22.3665 34.1015 22.2524C34.2641 20.9188 33.4571 19.6501 32.0338 19.6431H29.9662C28.8263 19.6431 27.8985 20.5704 27.8985 21.7107L27.8541 22.267ZM28.5527 24.213C29.6318 23.8461 30.0816 22.7604 29.9662 21.7107H32.0338V22.2524C31.9973 23.4443 33.0403 24.1442 34.0793 24.4739C35.1015 24.9793 36.188 24.529 36.8486 23.7047L38.3105 25.1671L37.9279 25.5493C37.0488 26.3702 37.301 27.5856 37.8018 28.568C38.1697 29.6607 39.2458 30.0944 40.3045 29.9814V32.0491H39.7623C38.561 32.0076 37.8772 33.0464 37.5413 34.0941C37.0276 35.1272 37.4816 36.1946 38.3095 36.8639L36.8476 38.3258L36.466 37.9436C35.6479 37.0754 34.42 37.3152 33.4473 37.8176C32.3686 38.1841 31.9181 39.2702 32.0338 40.3197H29.9662V39.7776C30.0025 38.5854 28.9592 37.8863 27.9196 37.556C26.9047 37.0499 25.8286 37.4838 25.1514 38.3253L23.6895 36.8634L24.0721 36.4807C24.9512 35.6585 24.6989 34.4443 24.1982 33.4625C23.8303 32.3697 22.7541 31.9361 21.6955 32.0491V29.9814H22.2377C23.439 30.0228 24.1228 28.9842 24.4587 27.9364C24.9727 26.9024 24.5177 25.836 23.6895 25.1666L25.1514 23.7047L25.534 24.0874C26.35 24.9564 27.5814 24.7139 28.5527 24.213Z" fill="white"/>
<path d="M31 36.1843C33.8501 36.1843 36.1692 33.8652 36.1692 31.0151C35.9262 24.1737 26.0728 24.1755 25.8308 31.0152C25.8308 33.8652 28.1499 36.1843 31 36.1843ZM31 27.9136C35.0897 28.0208 35.0889 34.01 30.9999 34.1166C26.9103 34.0094 26.9111 28.0202 31 27.9136Z" fill="white"/>
<path d="M50.8811 36.1841C49.4372 36.1841 48.0565 36.6496 46.9024 37.4979C45.7385 36.6368 44.3299 36.1708 42.8578 36.1841C41.4912 36.2254 41.5694 38.2436 42.9205 38.2517C47.859 38.2525 49.3482 45.0337 44.883 47.1201C41.9137 48.5999 38.1729 46.1999 38.2682 42.8624C38.2682 42.2916 37.8058 41.8494 37.2343 41.8494C34.7894 42.1297 37.1709 47.0174 38.3449 47.8077C35.0782 49.4972 32.9233 52.9053 32.9233 56.685C32.747 58.8853 34.1903 61.0152 36.5005 60.996C36.5004 60.996 57.3012 60.996 57.3012 60.996C59.0559 60.996 60.5541 59.7093 60.7853 58.0091C61.4112 53.9279 59.1275 49.6598 55.4485 47.816C59.9053 43.7951 56.9093 36.1154 50.8811 36.1841ZM50.7761 57.7244C50.6833 58.4105 50.0664 58.9284 49.3405 58.9284H36.5004C35.3219 58.9356 34.9097 57.7306 34.9911 56.685C34.991 53.261 37.2152 50.214 40.4439 49.1529C42.0231 49.7739 43.8209 49.7697 45.4 49.1504C48.9404 50.247 51.3408 54.078 50.7761 57.7244ZM58.5541 54.6921C58.8421 56.1164 59.3819 58.7896 57.3013 58.9284C57.3012 58.9284 52.5621 58.9284 52.5621 58.9284C53.6232 55.691 52.2899 51.9453 49.9454 49.5817C51.0882 49.6727 52.2797 49.5929 53.3577 49.1514C55.8847 49.9697 57.9039 52.1065 58.5541 54.6921ZM52.8428 47.1201C51.4323 47.793 49.6885 47.6737 48.3793 46.8283C50.0458 44.5485 50.0456 41.2615 48.3804 38.9812C54.0604 35.7021 58.6637 44.0916 52.8428 47.1201Z" fill="white"/>
<path d="M1.95272 12.9171L7.54895 16.7622L5.39749 23.0056C5.09158 23.8854 5.37932 24.8223 6.12845 25.3922C6.88804 25.9696 7.92277 25.9973 8.70697 25.4574L14.4587 21.5068L18.909 24.5588C20.0221 25.3193 21.1928 23.6238 20.0781 22.8535C20.0781 22.8536 15.0432 19.4003 15.0432 19.4003C14.6919 19.159 14.2265 19.1595 13.8731 19.4008L7.53482 23.7542C7.47311 23.8106 7.34439 23.7571 7.35108 23.681L9.75999 16.692C9.91143 16.2528 9.7509 15.7662 9.36826 15.5032L3.09156 11.1377C3.10872 11.0832 3.14507 11.0726 3.2006 11.0726H10.9543C11.3955 11.0726 11.7893 10.7919 11.9327 10.3744L14.3517 3.32387C14.3698 3.26834 14.5475 3.26834 14.5657 3.32387L16.9847 10.3744C17.1281 10.7919 17.5218 11.0726 17.963 11.0726H25.7167C25.7723 11.0726 25.8086 11.0832 25.7935 11.2129L19.5491 15.5032C19.1664 15.7662 19.0059 16.2518 19.1563 16.691L20.8202 21.5396C21.2832 22.8164 23.1948 22.1622 22.7768 20.8682C22.7768 20.8682 21.3674 16.7627 21.3674 16.7627L26.9677 12.9146C27.7562 12.3679 28.0822 11.4284 27.7986 10.5208C27.5159 9.61418 26.6789 9.00488 25.7168 9.00488H18.701L16.5223 2.65247C16.2164 1.762 15.4067 1.18652 14.4587 1.18652C13.5107 1.18652 12.701 1.762 12.3951 2.65247L10.2163 9.00488H3.20062C1.12639 8.95661 0.198163 11.7658 1.95272 12.9171Z" fill="white"/>
<path d="M36.4731 20.1943C37.0001 19.9752 37.2505 19.3705 37.0314 18.843C33.871 11.5918 39.5934 2.93777 47.5415 3.10189C53.812 3.10177 58.9135 8.20329 58.9135 14.4739C59.0758 22.4148 50.4334 28.1452 43.1828 24.9842C42.6589 24.7658 42.0501 25.0142 41.831 25.5422C41.6119 26.0692 41.8623 26.6745 42.3893 26.8935C50.9593 30.6308 61.1731 23.86 60.981 14.4737C60.2432 -3.35484 34.8376 -3.35169 34.1015 14.474C34.1197 15.7404 34.5084 21.0015 36.4731 20.1943Z" fill="white"/>
<path d="M20.1801 36.4884C20.9773 34.5151 15.7387 34.1417 14.4587 34.1167C-3.36869 34.8537 -3.36812 60.2601 14.4588 60.9965C23.844 61.1871 30.6164 50.9761 26.8786 42.404C26.6587 41.8771 26.056 41.6278 25.527 41.8463C24.9999 42.0654 24.7496 42.6702 24.9686 43.1977C28.1292 50.4483 22.4005 59.0918 14.4586 58.9286C8.18805 58.9288 3.08653 53.8273 3.08653 47.5567C2.92316 39.6089 11.5772 33.8855 18.8284 37.0463C19.3532 37.2648 19.96 37.0164 20.1801 36.4884Z" fill="white"/>
<path d="M47.5413 5.16895C46.9699 5.16895 46.5075 5.63184 46.5075 6.20278V11.5624C42.2434 13.2989 45.3017 19.4196 49.2578 17.0535L52.0906 19.1777C52.5425 19.518 53.1938 19.4296 53.5374 18.9707C53.8806 18.5139 53.7877 17.8657 53.3304 17.5229L50.4883 15.3917C51.0381 13.837 50.0761 12.0594 48.5752 11.5624V6.20278C48.5752 5.63184 48.1128 5.16895 47.5413 5.16895ZM47.5413 15.5073C46.1827 15.4831 46.1828 13.4635 47.5414 13.4396C48.9 13.4637 48.8998 15.4833 47.5413 15.5073Z" fill="white"/>
</svg>
