<svg width="41" height="46" viewBox="0 0 41 46" fill="none" xmlns="http://www.w3.org/2000/svg">
<path d="M40.0252 8.22968C39.9958 8.07488 39.9139 7.93495 39.7934 7.83346C39.6728 7.73197 39.521 7.67512 39.3634 7.67249C32.2296 7.54954 20.7851 0.184302 20.6704 0.109906C20.5596 0.0381681 20.4304 0 20.2984 0C20.1664 0 20.0372 0.0381681 19.9264 0.109906C19.8117 0.184302 8.3672 7.54954 1.23338 7.67249C1.07583 7.67512 0.924001 7.73197 0.803468 7.83346C0.682935 7.93495 0.601063 8.07488 0.571642 8.22968C-0.273627 13.5408 -0.180858 18.9591 0.845733 24.2382C3.09563 35.3996 9.75528 42.9156 20.1058 45.9721C20.2326 46.0093 20.3674 46.0093 20.4942 45.9721C30.8447 42.9152 37.5043 35.4 39.7542 24.2382C40.7798 18.9589 40.8715 13.5407 40.0252 8.22968ZM38.4002 24.0068C36.2337 34.6964 30.1434 41.627 20.2976 44.5997C10.4519 41.6238 4.36116 34.6979 2.19505 24.0068C1.25263 19.0653 1.12934 14.0025 1.83011 9.02102C8.66831 8.5903 18.2615 2.77525 20.2976 1.49681C22.3337 2.77525 31.927 8.5903 38.7651 9.02102C39.4659 14.0025 39.3426 19.0653 38.4002 24.0068Z" fill="#16151D"/>
<path d="M36.1142 10.1662C30.2287 10.0648 20.7608 3.9702 20.666 3.91069C20.5552 3.83895 20.426 3.80078 20.294 3.80078C20.162 3.80078 20.0329 3.83895 19.9221 3.91069C19.8257 3.9702 10.3578 10.0648 4.47425 10.1662C4.31668 10.169 4.16489 10.226 4.04438 10.3275C3.92386 10.4291 3.84199 10.569 3.81251 10.7238C3.1082 15.1452 3.18507 19.6558 4.03961 24.0506C5.91518 33.3564 11.4691 39.6225 20.101 42.1719C20.2278 42.2091 20.3626 42.2091 20.4894 42.1719C29.121 39.6225 34.6752 33.3564 36.5508 24.0506C37.4053 19.6558 37.4822 15.1452 36.7779 10.7238C36.7484 10.5687 36.6662 10.4285 36.5453 10.3269C36.4244 10.2253 36.2721 10.1686 36.1142 10.1662ZM35.1968 23.8191C33.4105 32.6281 28.3962 38.3401 20.2933 40.7995C12.1903 38.3401 7.17601 32.6281 5.38932 23.8191C4.6145 19.7608 4.5075 15.6033 5.07255 11.5105C10.7 11.1107 18.4846 6.4292 20.2933 5.2972C22.1019 6.4292 29.8865 11.1107 35.514 11.5105C36.0788 15.6033 35.9717 19.7609 35.1968 23.8191Z" fill="#16151D"/>
<path d="M26.5336 15.6489L26.5238 15.6583L17.7874 23.7091L14.3334 19.9455C14.0725 19.6416 13.7537 19.3927 13.3956 19.2132C13.0375 19.0337 12.6473 18.9273 12.2477 18.9001C11.8481 18.8729 11.4471 18.9255 11.068 19.0548C10.6889 19.1841 10.3394 19.3876 10.0397 19.6533C9.73998 19.919 9.49615 20.2417 9.32238 20.6026C9.14862 20.9634 9.04839 21.3553 9.02753 21.7553C9.00668 22.1553 9.06562 22.5554 9.20091 22.9324C9.33621 23.3094 9.54516 23.6557 9.81559 23.9511C16.6561 31.4522 13.4266 27.945 15.456 30.1953C15.6936 30.464 15.9823 30.6827 16.3052 30.8388C16.6282 30.9948 16.9789 31.0851 17.3371 31.1043C17.6952 31.1236 18.0536 31.0714 18.3914 30.9508C18.7292 30.8303 19.0396 30.6437 19.3046 30.4021L30.533 20.1683C31.1323 19.6379 31.4964 18.8912 31.5452 18.0924C31.5939 17.2936 31.3234 16.5082 30.793 15.9089C30.2627 15.3096 29.5159 14.9455 28.7172 14.8967C27.9184 14.848 27.1329 15.1185 26.5336 15.6489ZM29.6172 19.1486L18.3829 29.3891C18.2521 29.5082 18.0988 29.6002 17.9322 29.6597C17.7655 29.7191 17.5886 29.7448 17.4119 29.7354C17.2352 29.7259 17.0621 29.6814 16.9027 29.6045C16.7433 29.5276 16.6008 29.4197 16.4835 29.2873C15.2551 27.889 14.9955 27.5448 10.836 23.0353C10.6907 22.8728 10.5791 22.6831 10.5076 22.4772C10.4361 22.2713 10.4061 22.0533 10.4194 21.8358C10.4326 21.6182 10.4889 21.4055 10.5849 21.2098C10.6808 21.0141 10.8147 20.8394 10.9786 20.6958C11.1425 20.5521 11.3332 20.4424 11.5398 20.3729C11.7464 20.3034 11.9647 20.2756 12.1821 20.291C12.3995 20.3064 12.6117 20.3647 12.8064 20.4626C13.0011 20.5605 13.1745 20.696 13.3165 20.8613L17.2423 25.1415C17.3033 25.2077 17.3767 25.2613 17.4585 25.2991C17.5402 25.337 17.6286 25.3583 17.7185 25.362C17.8085 25.3656 17.8983 25.3514 17.9828 25.3203C18.0673 25.2892 18.1449 25.2417 18.211 25.1806L27.4467 16.6712C27.609 16.5264 27.7984 16.4151 28.004 16.3439C28.2095 16.2726 28.4272 16.2428 28.6443 16.2562C28.8614 16.2695 29.0738 16.3257 29.2691 16.4216C29.4644 16.5175 29.6387 16.6511 29.7821 16.8147C29.9254 16.9783 30.0349 17.1688 30.1043 17.375C30.1736 17.5812 30.2015 17.799 30.1861 18.0161C30.1708 18.2331 30.1126 18.4449 30.015 18.6393C29.9173 18.8337 29.7821 19.0068 29.6172 19.1486Z" fill="#16151D"/>
</svg>
