<svg width="50" height="50" viewBox="0 0 50 50" fill="none" xmlns="http://www.w3.org/2000/svg">
<path fill-rule="evenodd" clip-rule="evenodd" d="M14.4246 44.8172L14.2949 45.2787H11.2933C11.7131 44.7 11.9621 43.9883 11.9621 43.2212C11.9621 42.8218 11.6394 42.4978 11.2418 42.4978H9.09475L10.4029 37.8276H16.3813L14.4246 44.8172ZM1.99451 43.6599C1.99451 44.5521 2.71742 45.2788 3.60646 45.2788H8.48533C9.34793 45.2788 10.0993 44.7164 10.3893 43.9447H4.59663C4.1984 43.9447 3.87633 43.6213 3.87633 43.2213V40.4411C3.87633 40.0411 4.19829 39.7171 4.59663 39.7171C4.99417 39.7171 5.31749 40.0411 5.31749 40.4411V42.4979H7.59821L9.16386 36.908C9.25113 36.5957 9.53405 36.3804 9.85737 36.3804H14.3966V36.1093C14.3966 35.217 13.6737 34.4911 12.7859 34.4911H3.60646C2.71742 34.4911 1.99451 35.2171 1.99451 36.1093V43.6599ZM5.59383 30.4305C5.59383 28.9896 6.76125 27.8178 8.19651 27.8178C9.63119 27.8178 10.7978 28.9896 10.7978 30.4305C10.7978 31.8714 9.63108 33.0437 8.19651 33.0437C6.76125 33.0437 5.59383 31.8714 5.59383 30.4305ZM17.3323 36.3804H15.8377V36.1093C15.8377 34.4191 14.4689 33.0437 12.786 33.0437H11.2868C11.88 32.3367 12.2391 31.4248 12.2391 30.4305C12.2391 28.1917 10.4257 26.3704 8.19651 26.3704C5.96663 26.3704 4.15267 28.1917 4.15267 30.4305C4.15267 31.4249 4.51117 32.3367 5.10493 33.0437H3.60646C1.92347 33.0437 0.554037 34.4191 0.554037 36.1093V43.6599C0.554037 45.3501 1.92347 46.7255 3.60646 46.7255H14.8405C15.1632 46.7255 15.4468 46.5101 15.534 46.1979L18.026 37.3001C18.1545 36.839 17.8094 36.3804 17.3323 36.3804ZM1.44116 19.8615V14.8621C1.44116 14.65 1.61978 14.4706 1.83098 14.4706H10.6852C10.8958 14.4706 11.0751 14.65 11.0751 14.8621V22.2502L9.70042 20.5246C9.56288 20.3525 9.35622 20.2529 9.13719 20.2529H1.83098C1.61978 20.2529 1.44116 20.0736 1.44116 19.8615ZM8.79106 21.7003L11.2327 24.7652C11.6562 25.2976 12.5161 24.9953 12.5161 24.3128V14.862C12.5161 13.8479 11.6948 13.0231 10.6851 13.0231H1.83098C0.821296 13.0231 0 13.8479 0 14.862V19.8614C0 20.8748 0.821296 21.7003 1.83098 21.7003H8.79106ZM48.5588 25.3447C48.5588 25.5568 48.3809 25.7362 48.169 25.7362H40.8628C40.6438 25.7362 40.4366 25.8364 40.2997 26.0079L38.9257 27.7335V20.3452C38.9257 20.1331 39.1037 19.9537 39.3161 19.9537H48.169C48.3809 19.9537 48.5588 20.1331 48.5588 20.3452V25.3447ZM48.169 18.507H39.3161C38.3059 18.507 37.4845 19.3319 37.4845 20.3452V29.7968C37.4845 30.4784 38.3423 30.7814 38.7672 30.2485L41.2083 27.1835H48.169C49.178 27.1835 50 26.3587 50 25.3447V20.3452C50 19.3319 49.1781 18.507 48.169 18.507ZM28.5091 1.83888C28.5091 1.62678 28.6883 1.44738 28.8995 1.44738H37.7531C37.9643 1.44738 38.1436 1.62678 38.1436 1.83888V6.83831C38.1436 7.05042 37.9644 7.22982 37.7531 7.22982H30.4475C30.2278 7.22982 30.0213 7.33001 29.8844 7.50154L28.5091 9.22781V1.83888ZM27.5509 11.9733C27.8368 12.0737 28.1588 11.984 28.352 11.7421L30.7931 8.6772H37.7532C38.7629 8.6772 39.5848 7.85236 39.5848 6.83831V1.83888C39.5848 0.824842 38.7629 0 37.7532 0H28.8996C27.8892 0 27.0686 0.824842 27.0686 1.83888V11.2904C27.0685 11.5975 27.2621 11.8711 27.5509 11.9733ZM20.1958 15.2057H23.2815C24.3882 15.2057 25.4494 15.7413 26.1215 16.6381C26.2211 16.7716 28.9498 19.2531 29.316 19.5905C29.606 19.8582 30.0572 19.8412 30.3276 19.5518L34.1785 15.4309C34.766 14.8016 35.828 15.1962 35.8563 16.0678C35.8648 16.3296 35.7715 16.5778 35.5956 16.7663L29.7495 23.0232C29.6087 23.1744 29.3741 23.1876 29.2163 23.0526L28.0203 22.0281C27.5541 21.6287 26.8327 21.9636 26.8327 22.5786V30.6089C26.8327 30.8236 26.6586 30.9983 26.4455 30.9983H17.0326C16.8188 30.9983 16.6454 30.8235 16.6454 30.6089V26.0658H23.0919C24.4228 26.0658 25.5049 24.9791 25.5049 23.643C25.5049 22.3069 24.4229 21.2195 23.0919 21.2195H19.967V19.487C19.967 19.0877 19.6451 18.7636 19.2467 18.7636C18.8491 18.7636 18.5259 19.0876 18.5259 19.487V21.9439C18.5259 22.3431 18.8492 22.6673 19.2467 22.6673H23.0917C23.6282 22.6673 24.0636 23.1052 24.0636 23.6433C24.0636 24.1814 23.6282 24.6194 23.0917 24.6194H16.6453V18.7723C16.6454 16.8057 18.2377 15.2057 20.1958 15.2057ZM17.0325 32.4455C16.0242 32.4455 15.2041 31.622 15.2041 30.6092V18.7723C15.2041 16.0078 17.4431 13.7585 20.1957 13.7585H23.2814C24.8151 13.7585 26.2856 14.4877 27.2307 15.7131L29.7637 18.041L33.1276 14.4405C34.0375 13.4665 35.5667 13.4173 36.5373 14.3318C37.5059 15.244 37.5547 16.7846 36.6455 17.7567L30.8 24.013C30.1309 24.7293 29.0468 24.7938 28.2729 24.1471V30.609C28.2729 31.6216 27.453 32.4452 26.4452 32.4452L17.0325 32.4455ZM21.7386 5.96697C23.1733 5.96697 24.3406 7.13944 24.3406 8.5802C24.3406 10.0211 23.1732 11.1934 21.7386 11.1934C20.3041 11.1934 19.1366 10.021 19.1366 8.5802C19.1366 7.13944 20.304 5.96697 21.7386 5.96697ZM21.7386 12.6402C23.9678 12.6402 25.7812 10.819 25.7812 8.5802C25.7812 6.34138 23.9678 4.51959 21.7386 4.51959C19.5088 4.51959 17.6955 6.34138 17.6955 8.5802C17.6955 10.8191 19.5088 12.6402 21.7386 12.6402ZM37.9923 48.1637C37.9923 48.3785 37.8189 48.5526 37.6051 48.5526H31.42C31.2069 48.5526 31.0328 48.3785 31.0328 48.1637V46.2679L33.8127 42.9856C34.0715 42.6812 34.0344 42.2242 33.7319 41.9656C33.4281 41.7064 32.9732 41.743 32.7158 42.0475L29.9801 45.2781H23.6992C23.1628 45.2781 22.7273 44.8401 22.7273 44.3027C22.7273 43.7646 23.1628 43.3266 23.6992 43.3266H28.3805C28.5865 43.3266 28.7827 43.2376 28.9196 43.0825C30.5297 41.2582 32.2067 38.3214 34.5128 38.3214C36.4318 38.3214 37.9922 39.8892 37.9922 41.8157L37.9923 48.1637ZM34.756 31.6481C33.3213 31.6481 32.154 32.8199 32.154 34.2613C32.154 35.7022 33.3215 36.874 34.756 36.874C36.1907 36.874 37.358 35.7022 37.358 34.2613C37.358 32.8199 36.1907 31.6481 34.756 31.6481ZM37.0648 37.5915C38.4838 38.4595 39.4335 40.0286 39.4335 41.8157V48.1637C39.4335 49.1764 38.6141 50 37.6051 50H31.42C30.4122 50 29.5923 49.1765 29.5923 48.1637V46.7255H23.6992C22.3682 46.7255 21.2869 45.6388 21.2869 44.3027C21.2869 42.9666 22.3683 41.8792 23.6992 41.8792H28.0507C29.3283 40.3685 30.5556 38.4579 32.2946 37.4789C31.3332 36.7358 30.7126 35.57 30.7126 34.2613C30.7126 32.0218 32.526 30.2007 34.7558 30.2007C36.985 30.2007 38.799 32.0219 38.799 34.2613C38.7992 35.6387 38.1116 36.8576 37.0648 37.5915Z" fill="#16151D"/>
</svg>
