<svg width="66" height="65" viewBox="0 0 66 65" fill="none" xmlns="http://www.w3.org/2000/svg">
<path d="M44.1045 31.4424C42.8169 25.6 38.3554 20.5635 35.5003 17.3624C34.9992 16.7984 34.5566 16.3037 34.2106 15.8861C33.7864 15.4106 33.1795 15.1387 32.5422 15.1387C31.905 15.1387 31.2981 15.4106 30.8739 15.8861C30.5279 16.3037 30.0853 16.7984 29.5842 17.3624C26.7345 20.5635 22.2676 25.6 20.98 31.4424C8.21583 33.9883 0 40.3036 0 47.6603C0 57.384 14.2947 64.9999 32.5422 64.9999C50.7898 64.9999 65.0845 57.384 65.0845 47.6603C65.0845 40.3036 56.8687 33.9883 44.1045 31.4424ZM31.2048 18.8051C31.7254 18.2205 32.181 17.7052 32.5412 17.2713C32.9013 17.7052 33.3591 18.2205 33.8797 18.8051C37.0309 22.3447 42.3049 28.2695 42.3049 34.6272C42.3049 40.019 37.934 44.3898 32.5422 44.3898C27.1505 44.3898 22.7796 40.019 22.7796 34.6272C22.7796 28.2695 28.0536 22.3447 31.2048 18.8051ZM32.5422 62.8305C15.7949 62.8305 2.16948 56.0259 2.16948 47.6603C2.16948 41.6183 9.54572 36.1187 20.6535 33.7258C20.634 34.0251 20.6101 34.3245 20.6101 34.6272C20.6112 35.0577 20.6355 35.4879 20.6828 35.9158C11.917 37.9215 6.50845 41.9503 6.50845 46.5593C6.50845 49.4556 8.57922 52.1175 12.4973 54.261C12.8383 54.4577 13.259 54.4542 13.5967 54.2519C13.9344 54.0496 14.136 53.6803 14.1235 53.2869C14.111 52.8935 13.8863 52.5377 13.5365 52.3573C10.4038 50.6423 8.67793 48.5845 8.67793 46.5593C8.67793 43.1315 13.6363 39.7688 21.1134 38.0409C21.3268 38.7491 21.6061 39.4359 21.9476 40.0921C16.9426 41.3753 14.1016 43.4819 14.1016 45.9736C14.1016 50.5816 23.6029 53.0678 32.5422 53.0678C35.1469 53.0785 37.7479 52.8702 40.3177 52.4451C40.6998 52.38 41.0181 52.116 41.1528 51.7525C41.2875 51.3891 41.218 50.9813 40.9706 50.683C40.7231 50.3846 40.3353 50.2409 39.9532 50.306C37.5038 50.7106 35.0248 50.9087 32.5422 50.8983C22.4607 50.8983 16.2711 48.0302 16.2711 45.9736C16.2711 44.8107 18.4482 43.1142 23.1939 42.0208C25.4496 44.8867 28.8951 46.5596 32.5422 46.5596C36.1893 46.5596 39.6349 44.8867 41.8905 42.0208C46.6363 43.1142 48.8134 44.8107 48.8134 45.9736C48.8134 46.7784 47.8512 47.7026 46.1731 48.5108C45.6596 48.7846 45.4536 49.4149 45.7064 49.9391C45.9592 50.4633 46.5806 50.6946 47.1147 50.4633C50.3114 48.9262 50.9828 47.1722 50.9828 45.9736C50.9828 43.4787 48.1419 41.3753 43.1369 40.0921C43.4784 39.4359 43.7577 38.7491 43.9711 38.0409C51.4482 39.7688 56.4066 43.1315 56.4066 46.5593C56.4066 51.8507 45.4778 56.322 32.5422 56.322C28.2474 56.3486 23.9669 55.8248 19.8052 54.7632C19.2262 54.6087 18.6315 54.9528 18.4769 55.5318C18.3224 56.1108 18.6665 56.7055 19.2455 56.86C23.5899 57.9695 28.0585 58.5178 32.5422 58.4915C47.1407 58.4915 58.576 53.25 58.576 46.5593C58.576 41.9503 53.1675 37.9215 44.4017 35.9158C44.449 35.4879 44.4733 35.0577 44.4744 34.6272C44.4744 34.3245 44.4505 34.0251 44.431 33.7258C55.5388 36.1187 62.915 41.6183 62.915 47.6603C62.915 56.0259 49.2896 62.8305 32.5422 62.8305Z" fill="white"/>
<path d="M32.5422 42.2204C33.1413 42.2204 33.627 41.7348 33.627 41.1357C33.627 40.5366 33.1413 40.0509 32.5422 40.0509C29.5483 40.0473 27.1221 37.6212 27.1185 34.6272C27.1185 34.0281 26.6329 33.5425 26.0338 33.5425C25.4347 33.5425 24.9491 34.0281 24.9491 34.6272C24.9538 38.8188 28.3506 42.2156 32.5422 42.2204Z" fill="white"/>
<path d="M64.605 6.42397C62.0014 4.49503 58.4898 4.33214 55.7188 6.01176C54.9509 2.86477 52.3596 0.492383 49.1572 0.00446604C48.9181 -0.0171318 48.6785 0.0400061 48.4749 0.167177C45.8392 2.05093 44.6019 5.33972 45.3422 8.49365C42.112 8.25075 39.0543 9.98026 37.5982 12.8738C37.5032 13.0946 37.4838 13.3405 37.5429 13.5735C38.5191 16.66 41.2599 18.8534 44.4852 19.1295C43.2535 22.1267 43.957 25.5712 46.2653 27.8454C46.4464 28.0046 46.6755 28.0989 46.9162 28.1134H47.1331C50.2901 28.0519 53.1156 26.1392 54.3455 23.2309C55.806 24.4365 57.6338 25.108 59.5274 25.1347C60.8007 25.1409 62.0558 24.8308 63.1797 24.2322C63.3855 24.1103 63.5453 23.9238 63.6342 23.7017C64.6693 20.6303 63.7418 17.2378 61.2879 15.1203C64.0434 13.4189 65.4998 10.2229 64.976 7.02708C64.9233 6.79021 64.7927 6.57785 64.605 6.42397ZM49.3286 2.23469C51.6061 2.8207 53.3328 4.68088 53.7479 6.99563C53.8204 7.29385 53.8741 7.59638 53.9084 7.90138C54.1688 9.5776 53.6945 11.2848 52.6067 12.5864C51.5264 10.7117 49.735 9.35246 47.6386 8.81691C47.606 8.70843 47.5659 8.59996 47.5377 8.47955C46.8568 6.22686 47.5573 3.78415 49.3286 2.23469ZM39.7677 13.3999C41.0325 11.416 43.3369 10.3504 45.6676 10.6718C45.993 10.6978 46.3054 10.7423 46.5755 10.789C48.2437 11.0643 49.7148 12.0392 50.6184 13.4683C48.4991 13.9136 46.6528 15.203 45.5049 17.0392C45.3888 17.0392 45.2793 17.0392 45.16 17.0327C42.8055 16.9845 40.6968 15.5639 39.7677 13.3999ZM52.5503 21.9423C51.7794 24.1642 49.7781 25.7283 47.4357 25.9395C45.9328 24.1265 45.6291 21.602 46.6591 19.4843C46.7733 19.2 46.9059 18.9236 47.0561 18.6566C47.8319 17.1532 49.2136 16.0534 50.8527 15.6345C50.6157 17.7911 51.2723 19.9507 52.6696 21.6103C52.6284 21.7188 52.5991 21.8273 52.5503 21.9423ZM61.725 22.5291C59.5368 23.3944 57.0449 22.9021 55.35 21.2697C55.1194 21.0705 54.8989 20.8598 54.6894 20.6384C53.4942 19.4347 52.8749 17.7749 52.9896 16.0825C54.0131 16.5422 55.1218 16.7817 56.2438 16.7854C57.2606 16.7753 58.2668 16.5774 59.2117 16.2018C59.3093 16.2788 59.4037 16.3418 59.5024 16.4275C61.3785 17.8474 62.2472 20.2357 61.7218 22.5291H61.725ZM59.7324 13.5551C59.4923 13.7024 59.2434 13.835 58.9872 13.9521C58.9624 13.9612 58.9381 13.9717 58.9145 13.9835C57.408 14.7436 55.6483 14.8226 54.0798 14.2005C55.5362 12.5987 56.2718 10.4696 56.1148 8.31033C56.2135 8.24416 56.3013 8.17582 56.4044 8.11291C58.3364 6.76534 60.8787 6.67452 62.902 7.88077C63.0468 10.2295 61.8082 12.4468 59.7324 13.5551Z" fill="white"/>
<path d="M23.8307 18.5035C23.8899 18.2705 23.8701 18.0244 23.7743 17.8038C22.7478 15.7205 20.6109 14.4169 18.2887 14.4574C18.6803 12.1688 17.7214 9.85903 15.8242 8.52061C15.6212 8.39193 15.3812 8.33431 15.1419 8.35682C12.8446 8.69444 10.9456 10.322 10.2606 12.5407C8.20777 11.4605 5.71647 11.659 3.86058 13.0505C3.67537 13.2039 3.5464 13.4146 3.49394 13.6493C3.10733 15.9374 4.06882 18.2443 5.96607 19.5806C4.30477 21.2024 3.72512 23.6354 4.47672 25.832C4.56559 26.0541 4.72538 26.2406 4.93122 26.3624C5.78994 26.8216 6.74958 27.0595 7.72335 27.0545C9.02344 27.0442 10.287 26.6232 11.3334 25.8515C12.3364 27.8771 14.3885 29.1712 16.6486 29.2034H16.8178C17.0587 29.1886 17.2877 29.0939 17.4687 28.9344C19.1319 27.3143 19.7138 24.8814 18.9634 22.6841C21.2549 22.3427 23.1474 20.7172 23.8307 18.5035ZM12.1621 13.7653C12.4294 12.2669 13.5136 11.0444 14.9694 10.6001C16.068 11.6528 16.4833 13.2327 16.0444 14.6895C16.0368 14.721 16.0249 14.7492 16.0173 14.7817C14.6532 15.159 13.4667 16.0066 12.6676 17.1747C12.1247 16.3435 11.9079 15.341 12.0591 14.3598C12.0807 14.1596 12.1151 13.9611 12.1621 13.7653ZM9.79629 14.7546C9.81473 14.7655 9.82992 14.7774 9.84836 14.7893C9.78587 16.2091 10.2329 17.6045 11.1088 18.7237C10.1636 18.986 9.15457 18.8879 8.27765 18.4482L8.21799 18.4232C8.04603 18.3438 7.87871 18.2547 7.71684 18.1564C6.37284 17.4391 5.54382 16.0294 5.57014 14.5062C6.91336 13.7872 8.54656 13.8831 9.79629 14.7546ZM6.38478 24.6475C6.11223 23.1465 6.70847 21.62 7.9262 20.7012C7.94355 20.686 7.96091 20.6751 7.97826 20.66C8.65311 20.9044 9.36493 21.0309 10.0827 21.0342C10.7733 21.0337 11.4588 20.9159 12.11 20.686C12.0666 21.6687 11.66 22.6003 10.9689 23.3002C10.8249 23.4536 10.672 23.5985 10.5111 23.7341C9.4171 24.7907 7.82252 25.1437 6.38478 24.6475ZM16.2776 27.01C14.7694 26.8043 13.505 25.768 13.0071 24.3296C12.9995 24.3101 12.9952 24.2917 12.9876 24.2721C13.8757 23.1564 14.3348 21.7595 14.2817 20.3345C15.2055 20.6843 15.968 21.3625 16.423 22.2393C16.5248 22.421 16.6146 22.609 16.692 22.8023C17.3591 24.1718 17.1989 25.8001 16.2776 27.0133V27.01ZM18.0241 20.6101C18.0045 20.6101 17.9861 20.6101 17.9666 20.6101C17.1763 19.4243 15.9908 18.5575 14.6212 18.164C15.2304 17.3999 16.1011 16.8886 17.0651 16.7289C17.2658 16.6941 17.4817 16.6638 17.7062 16.6453C19.2131 16.4353 20.7109 17.0856 21.5863 18.3299C20.9219 19.6999 19.5463 20.5825 18.0241 20.6155V20.6101Z" fill="white"/>
</svg>
