<svg width="39" height="39" viewBox="0 0 39 39" fill="none" xmlns="http://www.w3.org/2000/svg">
<path d="M31.6875 4.875H29.25C29.25 3.53112 28.1564 2.4375 26.8125 2.4375C25.4686 2.4375 24.375 3.53112 24.375 4.875H14.625C14.625 3.53112 13.5314 2.4375 12.1875 2.4375C10.8436 2.4375 9.75 3.53112 9.75 4.875H7.3125C5.07244 4.875 3.25 6.69744 3.25 8.9375V32.5C3.25 34.7401 5.07244 36.5625 7.3125 36.5625H31.6875C33.9276 36.5625 35.75 34.7401 35.75 32.5V8.9375C35.75 6.69744 33.9276 4.875 31.6875 4.875ZM26 4.875C26 4.42731 26.364 4.0625 26.8125 4.0625C27.261 4.0625 27.625 4.42731 27.625 4.875V6.5C27.625 6.94769 27.261 7.3125 26.8125 7.3125C26.364 7.3125 26 6.94769 26 6.5V4.875ZM11.375 4.875C11.375 4.42731 11.739 4.0625 12.1875 4.0625C12.636 4.0625 13 4.42731 13 4.875V6.5C13 6.94769 12.636 7.3125 12.1875 7.3125C11.739 7.3125 11.375 6.94769 11.375 6.5V4.875ZM4.875 8.9375C4.875 7.59363 5.96863 6.5 7.3125 6.5H9.75C9.75 7.84387 10.8436 8.9375 12.1875 8.9375C13.5314 8.9375 14.625 7.84387 14.625 6.5H24.375C24.375 7.84387 25.4686 8.9375 26.8125 8.9375C28.1564 8.9375 29.25 7.84387 29.25 6.5H31.6875C33.0314 6.5 34.125 7.59363 34.125 8.9375V12.1875H4.875V8.9375ZM34.125 32.5C34.125 33.8439 33.0314 34.9375 31.6875 34.9375H7.3125C5.96863 34.9375 4.875 33.8439 4.875 32.5V13.8125H34.125V32.5Z" fill="black"/>
<path d="M9.75 22.75H12.1875C13.0837 22.75 13.8125 22.0212 13.8125 21.125V18.6875C13.8125 17.7913 13.0837 17.0625 12.1875 17.0625H9.75C8.85381 17.0625 8.125 17.7913 8.125 18.6875V21.125C8.125 22.0212 8.85381 22.75 9.75 22.75ZM9.75 18.6875H12.1875L12.1891 21.125H9.75V18.6875Z" fill="black"/>
<path d="M18.2813 22.75H20.7188C21.6149 22.75 22.3438 22.0212 22.3438 21.125V18.6875C22.3438 17.7913 21.6149 17.0625 20.7188 17.0625H18.2813C17.3851 17.0625 16.6562 17.7913 16.6562 18.6875V21.125C16.6562 22.0212 17.3851 22.75 18.2813 22.75ZM18.2813 18.6875H20.7188L20.7204 21.125H18.2813V18.6875Z" fill="black"/>
<path d="M26.8125 22.75H29.25C30.1462 22.75 30.875 22.0212 30.875 21.125V18.6875C30.875 17.7913 30.1462 17.0625 29.25 17.0625H26.8125C25.9163 17.0625 25.1875 17.7913 25.1875 18.6875V21.125C25.1875 22.0212 25.9163 22.75 26.8125 22.75ZM26.8125 18.6875H29.25L29.2516 21.125H26.8125V18.6875Z" fill="black"/>
<path d="M9.75 31.6875H12.1875C13.0837 31.6875 13.8125 30.9587 13.8125 30.0625V27.625C13.8125 26.7288 13.0837 26 12.1875 26H9.75C8.85381 26 8.125 26.7288 8.125 27.625V30.0625C8.125 30.9587 8.85381 31.6875 9.75 31.6875ZM9.75 27.625H12.1875L12.1891 30.0625H9.75V27.625Z" fill="black"/>
<path d="M18.2813 31.6875H20.7188C21.6149 31.6875 22.3438 30.9587 22.3438 30.0625V27.625C22.3438 26.7288 21.6149 26 20.7188 26H18.2813C17.3851 26 16.6562 26.7288 16.6562 27.625V30.0625C16.6562 30.9587 17.3851 31.6875 18.2813 31.6875ZM18.2813 27.625H20.7188L20.7204 30.0625H18.2813V27.625Z" fill="black"/>
<path d="M26.8125 31.6875H29.25C30.1462 31.6875 30.875 30.9587 30.875 30.0625V27.625C30.875 26.7288 30.1462 26 29.25 26H26.8125C25.9163 26 25.1875 26.7288 25.1875 27.625V30.0625C25.1875 30.9587 25.9163 31.6875 26.8125 31.6875ZM26.8125 27.625H29.25L29.2516 30.0625H26.8125V27.625Z" fill="black"/>
</svg>
