<svg xmlns="http://www.w3.org/2000/svg" width="16" height="16" viewBox="0 0 16 16" fill="none">
    <g clip-path="url(#clip0_2830_20)">
        <path d="M8.72173 7.96883C8.57458 7.87873 8.3822 7.92502 8.29204 8.07223C8.25726 8.12908 8.14136 8.18951 7.99514 8.18951C7.85208 8.18951 7.73864 8.13233 7.70054 8.07583C7.60398 7.93273 7.40976 7.89501 7.2667 7.99148C7.12361 8.08801 7.08586 8.28223 7.18236 8.42533C7.34429 8.66539 7.6557 8.81451 7.99514 8.81451C8.35001 8.81451 8.66804 8.65511 8.82514 8.39851C8.91523 8.25133 8.86895 8.05895 8.72173 7.96883Z" fill="#89282D"></path>
        <path d="M9.99395 7.11017L9.99377 7.11029C9.77833 7.25389 9.72024 7.54486 9.86386 7.76026C9.95417 7.89576 10.1028 7.96901 10.2543 7.96901C10.3437 7.96901 10.434 7.94351 10.514 7.89023C10.7294 7.74664 10.7876 7.45561 10.644 7.2402C10.5004 7.02479 10.2093 6.96661 9.99395 7.11017Z" fill="#89282D"></path>
        <path d="M5.48626 7.11017L5.48608 7.11029C5.27064 7.25389 5.21255 7.54486 5.35617 7.76026C5.44648 7.89576 5.59511 7.96901 5.74661 7.96901C5.83598 7.96901 5.92636 7.94351 6.0063 7.89023C6.22173 7.74664 6.27992 7.45561 6.13629 7.2402C5.99267 7.02479 5.70164 6.96661 5.48626 7.11017Z" fill="#89282D"></path>
        <path d="M14.2868 5.6808V5.2984C14.2868 3.88868 13.7341 2.55962 12.7306 1.55612C11.7271 0.552655 10.3981 0 8.98836 0H7.01161C5.74705 0 4.52046 0.45753 3.55784 1.28834C3.42715 1.40109 3.41265 1.59843 3.52543 1.72909C3.63815 1.85975 3.83552 1.87431 3.96618 1.7615C4.81537 1.02862 5.89696 0.624999 7.01164 0.624999H8.98839C11.5653 0.624999 13.6618 2.72146 13.6618 5.2984V5.54683H12.8537C11.3823 5.54683 10.3569 4.88805 10.3569 4.29683C10.3569 4.12427 10.2169 3.98434 10.0444 3.98434C9.87182 3.98434 9.73189 4.12427 9.73189 4.29683C9.73189 4.88805 8.70648 5.54683 7.23505 5.54683H2.33822V5.2984C2.33822 4.85018 2.40275 4.40571 2.53003 3.97724C2.57915 3.8118 2.4849 3.63784 2.31947 3.58868C2.15393 3.53946 1.98003 3.63384 1.9309 3.79924C1.78647 4.28552 1.71322 4.7899 1.71322 5.2984V5.6808C1.18269 5.91996 0.8125 6.45383 0.8125 7.07252C0.8125 7.9138 1.4969 8.5982 2.33818 8.5982H2.92709C3.26646 9.44667 3.86062 10.1863 4.6258 10.7417C3.83696 11.592 3.39062 12.7147 3.39062 13.8738V15.6875C3.39062 15.8601 3.53056 16 3.70312 16H12.2969C12.4694 16 12.6094 15.8601 12.6094 15.6875V13.8738C12.6094 12.7147 12.163 11.5919 11.3742 10.7417C12.1394 10.1863 12.7335 9.4467 13.0729 8.5982H13.6618C14.5031 8.5982 15.1875 7.9138 15.1875 7.07252C15.1875 6.45383 14.8173 5.91996 14.2868 5.6808ZM2.33822 7.97323C1.84156 7.97323 1.4375 7.56917 1.4375 7.07252C1.4375 6.57586 1.84156 6.17183 2.33818 6.17183H2.60937V6.95308C2.60937 7.30289 2.65059 7.64417 2.72881 7.97323H2.33822ZM4.01562 14.5938H5.18749V15.375H4.01562V14.5938ZM10.8125 15.375V14.5938H11.9844V15.375H10.8125ZM11.9844 13.8738V13.9688H10.8125V13.5552C10.8125 13.3826 10.6725 13.2427 10.5 13.2427C10.3274 13.2427 10.1875 13.3826 10.1875 13.5552V15.375H5.81249V13.5552C5.81249 13.3826 5.67255 13.2427 5.49999 13.2427C5.32743 13.2427 5.18749 13.3826 5.18749 13.5552V13.9688H4.01562V13.8738C4.01562 12.8348 4.43127 11.8292 5.16224 11.0848C5.56118 11.3084 5.99468 11.4864 6.45374 11.6106C6.47674 12.4436 7.16152 13.1142 7.99999 13.1142C8.83845 13.1142 9.52326 12.4436 9.54623 11.6106C10.0053 11.4864 10.4388 11.3084 10.8377 11.0848C11.5687 11.8291 11.9844 12.8347 11.9844 13.8738ZM7.09552 11.7459C7.38967 11.7909 7.69186 11.8144 8.00002 11.8144C8.30817 11.8144 8.61036 11.7909 8.90451 11.7459C8.82114 12.169 8.44727 12.4892 8.00002 12.4892C7.55277 12.4892 7.17889 12.169 7.09552 11.7459ZM7.99999 11.1894C5.37221 11.1894 3.23437 9.28898 3.23437 6.95308V6.17183H7.23502C8.48555 6.17183 9.54258 5.75152 10.0444 5.12815C10.5343 5.73683 11.5537 6.15189 12.7656 6.17114L12.7656 6.95308C12.7656 9.28895 10.6278 11.1894 7.99999 11.1894ZM13.6618 7.97323H13.2712C13.3494 7.64417 13.3906 7.30289 13.3906 6.95308L13.3906 6.17183H13.6618C14.1584 6.17183 14.5624 6.57589 14.5624 7.07252C14.5624 7.56914 14.1584 7.97323 13.6618 7.97323Z" fill="#89282D"></path>
        <path d="M8.78125 13.9011H7.21875C7.04619 13.9011 6.90625 14.0411 6.90625 14.2136C6.90625 14.3862 7.04619 14.5261 7.21875 14.5261H8.78125C8.95381 14.5261 9.09375 14.3862 9.09375 14.2136C9.09375 14.0411 8.95384 13.9011 8.78125 13.9011Z" fill="#89282D"></path>
        <path d="M2.8208 2.91794C2.83374 2.91794 2.8468 2.91716 2.85996 2.9155C3.03121 2.89406 3.15267 2.73791 3.1313 2.56666C3.10986 2.39541 2.95374 2.27363 2.78246 2.29531L2.78221 2.29534C2.61096 2.31678 2.48961 2.47294 2.51099 2.64419C2.53077 2.80228 2.66546 2.91794 2.8208 2.91794Z" fill="#89282D"></path>
    </g>
    <defs>
        <clipPath id="clip0_2830_20">
            <rect width="16" height="16" fill="white"></rect>
        </clipPath>
    </defs>
</svg>