<svg xmlns="http://www.w3.org/2000/svg" width="16" height="16" viewBox="0 0 16 16" fill="none"><g clip-path="url(#clip0_2859_1389)"><path d="M14.2928 3.06052H14.7872C14.9597 3.06052 15.0995 2.92068 15.0995 2.74823C15.0995 2.57578 14.9597 2.43593 14.7872 2.43593H13.6005C13.428 2.43593 13.2882 2.57578 13.2882 2.74823V3.93495C13.2882 4.1074 13.428 4.24724 13.6005 4.24724C13.7729 4.24724 13.9128 4.1074 13.9128 3.93495V3.59133C14.8603 4.8599 15.3754 6.39911 15.3754 8C15.3754 12.0668 12.0668 15.3754 8 15.3754C3.93317 15.3754 0.62459 12.0668 0.62459 8C0.62459 3.93317 3.93317 0.62459 8 0.62459C8.30077 0.62459 8.60348 0.642859 8.89979 0.678867C9.07077 0.699541 9.2267 0.577777 9.24749 0.406546C9.26832 0.235346 9.1464 0.0796352 8.97517 0.0588364C8.65395 0.0197995 8.32588 0 8 0C5.86312 0 3.85413 0.832141 2.34315 2.34315C0.832141 3.85413 0 5.86312 0 8C0 10.1369 0.832141 12.1459 2.34315 13.6568C3.85413 15.1679 5.86312 16 8 16C10.1369 16 12.1459 15.1679 13.6568 13.6568C15.1679 12.1459 16 10.1369 16 8C16 6.19678 15.3976 4.46566 14.2928 3.06052Z" fill="#836429"></path><path d="M3.38743 4.71606C3.24169 4.62381 3.04878 4.66722 2.9565 4.81287C2.24356 5.93888 1.92795 7.29306 2.06783 8.62596C2.20977 9.97864 2.81859 11.2542 3.78214 12.2178C4.94497 13.3807 6.47244 13.9621 7.99994 13.9621C9.52744 13.9621 11.0549 13.3807 12.2177 12.2178C14.5434 9.89213 14.5434 6.10793 12.2177 3.78227C11.2556 2.82021 9.98214 2.21161 8.63171 2.06858C7.30127 1.92758 5.94857 2.24072 4.82302 2.95016C4.67709 3.04213 4.6334 3.23497 4.72534 3.38087C4.81731 3.52681 5.01015 3.5705 5.15605 3.47856C7.27772 2.14131 9.99991 2.44777 11.7761 4.22391C13.8582 6.30608 13.8582 9.69398 11.7761 11.7761C9.69392 13.8583 6.30596 13.8583 4.22382 11.7761C2.47222 10.0245 2.16118 7.23659 3.48425 5.14703C3.57647 5.00128 3.53315 4.80834 3.38743 4.71606Z" fill="#836429"></path><path d="M12.0599 8.31735H12.445C12.6174 8.31735 12.7573 8.17751 12.7573 8.00506C12.7573 7.83261 12.6174 7.69276 12.445 7.69276H12.0599C11.8874 7.69276 11.7476 7.83261 11.7476 8.00506C11.7476 8.17751 11.8874 8.31735 12.0599 8.31735Z" fill="#836429"></path><path d="M3.24268 7.99494C3.24268 8.16739 3.38252 8.30724 3.55497 8.30724H3.94009C4.11254 8.30724 4.25239 8.16739 4.25239 7.99494C4.25239 7.82249 4.11254 7.68265 3.94009 7.68265H3.55497C3.38252 7.68265 3.24268 7.82246 3.24268 7.99494Z" fill="#836429"></path><path d="M8.31746 3.94013V3.55501C8.31746 3.38256 8.17761 3.24271 8.00517 3.24271C7.83272 3.24271 7.69287 3.38256 7.69287 3.55501V3.94013C7.69287 4.11258 7.83272 4.25243 8.00517 4.25243C8.17761 4.25243 8.31746 4.11258 8.31746 3.94013Z" fill="#836429"></path><path d="M7.68262 12.0599V12.445C7.68262 12.6174 7.82246 12.7573 7.99491 12.7573C8.16736 12.7573 8.30721 12.6174 8.30721 12.445V12.0599C8.30721 11.8874 8.16736 11.7476 7.99491 11.7476C7.82246 11.7476 7.68262 11.8874 7.68262 12.0599Z" fill="#836429"></path><path d="M6.43475 5.99297C6.31277 5.87105 6.11509 5.87105 5.99307 5.99297C5.87112 6.11492 5.87112 6.31267 5.99307 6.43465L7.05147 7.49305C6.97037 7.6442 6.92424 7.81681 6.92424 8C6.92424 8.59323 7.40687 9.07586 8.0001 9.07586C8.59334 9.07586 9.07596 8.59323 9.07596 8C9.07596 7.81681 9.0298 7.6442 8.94873 7.49305L11.0843 5.35748C11.2062 5.23553 11.2062 5.03779 11.0843 4.9158C10.9623 4.79388 10.7646 4.79388 10.6426 4.9158L8.50705 7.05137C8.3559 6.97027 8.18329 6.92414 8.0001 6.92414C7.81691 6.92414 7.6443 6.9703 7.49315 7.05137L6.43475 5.99297ZM8.45137 8C8.45137 8.24884 8.24894 8.45127 8.0001 8.45127C7.75126 8.45127 7.54883 8.24884 7.54883 8C7.54883 7.75116 7.75126 7.54873 8.0001 7.54873C8.24894 7.54873 8.45137 7.75116 8.45137 8Z" fill="#836429"></path><path d="M4.22376 4.22373C4.28216 4.16564 4.31554 4.08507 4.31554 4.00293C4.31554 3.9208 4.28216 3.84054 4.22376 3.78214C4.16567 3.72409 4.08538 3.69064 4.00297 3.69064C3.92084 3.69064 3.84026 3.72406 3.78218 3.78214C3.72412 3.84023 3.69067 3.9208 3.69067 4.00293C3.69067 4.08538 3.72409 4.16564 3.78218 4.22373C3.84026 4.28178 3.92084 4.31523 4.00297 4.31523C4.08538 4.31523 4.16567 4.28178 4.22376 4.22373Z" fill="#836429"></path><path d="M10.1634 0.933077C10.2458 0.933077 10.3264 0.899943 10.3845 0.841575C10.4426 0.783488 10.476 0.703197 10.476 0.620782C10.476 0.538648 10.4426 0.458076 10.3845 0.399989C10.3264 0.341934 10.2458 0.308487 10.1634 0.308487C10.0812 0.308487 10.0007 0.341902 9.94261 0.399989C9.88452 0.458076 9.85107 0.538648 9.85107 0.620782C9.85107 0.703228 9.88449 0.783488 9.94261 0.841575C10.0007 0.899943 10.0812 0.933077 10.1634 0.933077Z" fill="#836429"></path></g><defs><clipPath id="clip0_2859_1389"><rect width="16" height="16" fill="white"></rect></clipPath></defs></svg>