<svg xmlns="http://www.w3.org/2000/svg" width="140" height="11" viewBox="0 0 140 11" fill="none">
    <path d="M2.21692 10.5203C2.72054 10.5359 3.22416 10.5496 3.72875 10.5526C4.39373 10.5574 5.04893 10.4861 5.70608 10.3941C6.80525 10.2396 7.84671 9.91986 8.85787 9.4622C9.75167 9.05931 10.5604 8.50287 11.373 7.96111C12.5935 7.14848 13.8022 6.34073 15.1204 5.69629C16.3408 5.21516 17.5847 4.83378 18.8755 4.5981C19.0124 4.59126 19.1484 4.59126 19.2853 4.5981C19.5004 4.64504 19.7097 4.70567 19.9189 4.77901C21.201 5.38238 22.3803 6.22435 23.5587 6.99983C24.1552 7.39295 24.7664 7.75869 25.3864 8.11367C26.1404 8.54395 26.9511 8.87056 27.7647 9.16589C28.413 9.39961 29.0907 9.55608 29.7713 9.66364C30.7708 9.82304 31.7829 9.97365 32.798 9.94529C33.6536 9.92084 34.5132 9.74188 35.319 9.45535C36.116 9.17176 36.8885 8.85297 37.5975 8.38553C38.3309 7.90245 39.0067 7.3245 39.6961 6.77883C40.0462 6.52262 40.3992 6.27521 40.762 6.03367C41.116 5.798 41.4984 5.60633 41.8778 5.41172C42.3589 5.21907 42.843 5.04011 43.3378 4.87778C43.8796 4.70078 44.4262 4.58148 44.9836 4.48467C45.4452 4.44555 45.8999 4.41817 46.3634 4.44653C47.0548 4.58148 47.712 4.80151 48.3652 5.05772C49.6091 5.66402 50.8188 6.33291 52.0578 6.94801C52.847 7.33917 53.6655 7.67362 54.481 8.00415C55.0942 8.25254 55.7318 8.4755 56.3782 8.61729C57.2661 8.81092 58.157 8.94293 59.0606 9.03779C59.4185 9.07495 59.7744 9.09842 60.1333 9.11896C61.0242 9.17274 61.8965 9.07984 62.7776 8.94391C63.8132 8.78452 64.7784 8.34935 65.7279 7.92982C66.0477 7.78803 66.3626 7.63743 66.6765 7.48488C67.3111 7.17488 67.9448 6.86488 68.5785 6.55488C69.221 6.24098 69.8674 5.93392 70.5197 5.64055C71.3352 5.33153 72.1596 5.06652 73.0172 4.91201C73.3116 4.89245 73.603 4.89539 73.8964 4.91691C74.3579 5.00296 74.8039 5.13008 75.2429 5.29535C75.8551 5.58481 76.435 5.92707 77.009 6.28792C77.5537 6.62921 78.0916 6.99104 78.6646 7.28343C79.4636 7.69318 80.2899 8.03739 81.1387 8.33174C82.0267 8.64173 82.987 8.807 83.9179 8.91359C85.0288 9.04072 86.1094 8.92337 87.2096 8.73855C87.898 8.62413 88.5454 8.38944 89.1879 8.1303C90.0416 7.7851 90.864 7.38807 91.6835 6.97148C92.8296 6.38963 93.9669 5.80093 95.1374 5.27091C95.5276 5.12324 95.9168 4.98242 96.3139 4.85138C96.6982 4.72523 97.1011 4.65482 97.5 4.58539C98.1582 4.52281 98.8104 4.51792 99.4686 4.57757C99.9908 4.67243 100.495 4.80933 100.994 4.9922C102.14 5.53103 103.197 6.2449 104.307 6.85315C105.552 7.53475 106.835 8.10096 108.167 8.58991C108.433 8.6877 108.716 8.75419 108.988 8.83536C109.399 8.95858 109.827 9.03094 110.25 9.09255C110.867 9.18154 111.46 9.23924 112.083 9.19034C112.976 9.11994 113.843 8.92435 114.682 8.61631C115.323 8.38063 115.942 8.0902 116.552 7.78411C117.673 7.22084 118.781 6.63899 119.916 6.10506C120.772 5.75986 121.642 5.45768 122.553 5.2885C122.933 5.25329 123.314 5.24254 123.696 5.26503C124.162 5.35597 124.611 5.49386 125.054 5.66402C126.416 6.29477 127.645 7.17292 128.998 7.81931C130.881 8.71996 132.947 9.17078 135.035 9.02703C135.543 8.99182 136.057 8.90968 136.553 8.79331C137.029 8.68085 137.5 8.46083 137.937 8.25058C138.273 8.08923 138.594 7.92494 138.904 7.71762C139.394 7.391 139.762 6.9744 139.922 6.39451C140.079 5.82341 139.997 5.2005 139.699 4.68905C139.408 4.19325 138.929 3.82361 138.375 3.67105C137.832 3.52143 137.149 3.57424 136.669 3.89401C136.382 4.08568 136.081 4.24704 135.77 4.39372C135.522 4.48173 135.271 4.54823 135.013 4.5981C134.465 4.64015 133.916 4.64015 133.368 4.59126C132.673 4.47195 132.001 4.28908 131.339 4.04069C130.243 3.53316 129.237 2.86819 128.178 2.29025C127.031 1.66341 125.792 1.10796 124.487 0.930961C123.991 0.864464 123.527 0.813603 123.028 0.826316C122.545 0.839029 122.049 0.905537 121.573 0.983769C121.231 1.03951 120.885 1.10698 120.551 1.20477C119.991 1.36906 119.433 1.5402 118.894 1.7661C118.19 2.06045 117.495 2.36652 116.805 2.69021C115.72 3.19676 114.687 3.80698 113.598 4.30668C113.083 4.50422 112.559 4.66068 112.017 4.76336C111.701 4.78585 111.388 4.78488 111.071 4.76239C110.21 4.60397 109.393 4.33504 108.57 4.03483C108.074 3.81871 107.58 3.5977 107.107 3.33855C106.481 2.99531 105.861 2.64719 105.247 2.28438C104.324 1.73676 103.405 1.20869 102.402 0.810678C100.464 0.0391111 98.3371 -0.0459656 96.3011 0.319771C95.5736 0.449832 94.8763 0.645408 94.1869 0.913354C93.3127 1.25073 92.4638 1.63799 91.6189 2.04186C90.3692 2.64034 89.1546 3.30923 87.9019 3.90477C87.7718 3.95758 87.6418 4.01038 87.5107 4.06221C86.9895 4.27344 86.436 4.40154 85.8816 4.49346C85.3046 4.54822 84.7374 4.55997 84.1595 4.5101C83.7693 4.44458 83.3811 4.36242 82.9987 4.25974C82.5772 4.1463 82.1714 4.01136 81.7587 3.86859C81.3108 3.67007 80.8708 3.45885 80.4464 3.20753C79.8782 2.87015 79.3218 2.51321 78.7614 2.16215C77.8637 1.59887 76.8653 1.14707 75.859 0.829255C75.3045 0.65421 74.708 0.571085 74.132 0.510455C73.692 0.464493 73.2627 0.457653 72.8226 0.500681C72.2642 0.555444 71.6902 0.646394 71.1445 0.790146C70.4678 0.968125 69.8175 1.18717 69.1652 1.44045C68.4328 1.72404 67.7141 2.06337 67.009 2.40759C65.7866 3.00509 64.573 3.62801 63.3291 4.17955C62.7805 4.39274 62.226 4.55801 61.6481 4.66558C60.6868 4.75066 59.7334 4.68024 58.775 4.58245C58.243 4.50031 57.7111 4.41035 57.1947 4.25877C56.5786 4.07786 55.9841 3.86272 55.3895 3.62802C54.2297 3.10777 53.111 2.52103 51.9835 1.93331C51.6588 1.76413 51.3351 1.593 51.0065 1.4336C50.4785 1.17934 49.9416 0.952467 49.4008 0.729504C49.0478 0.584774 48.683 0.468405 48.3163 0.360835C47.7628 0.198503 47.1888 0.105605 46.6157 0.0430191C46.3674 0.0166157 46.1199 0 45.8725 0C45.7122 0 45.5518 0.00683352 45.3904 0.0215021C44.5299 0.100712 43.6371 0.176987 42.8029 0.419507C42.1409 0.612154 41.4778 0.813613 40.8412 1.08058C40.0384 1.41894 39.2287 1.7436 38.5011 2.23059C37.753 2.72932 37.045 3.27597 36.335 3.82751C36.206 3.92823 36.0778 4.03091 35.9497 4.13359C35.4823 4.48368 35.007 4.81324 34.4799 5.06945C34.0057 5.24841 33.5216 5.39998 33.0248 5.50168C32.4078 5.54667 31.7946 5.50364 31.1795 5.43421C30.7444 5.36184 30.316 5.27872 29.8838 5.18582C29.4183 5.08608 28.9636 4.91006 28.5167 4.74577C28.3583 4.67438 28.2008 4.60103 28.0463 4.51889C27.6992 4.33504 27.3579 4.1424 27.0166 3.94682C26.4064 3.59869 25.8235 3.19873 25.2368 2.81343C24.6833 2.44965 24.1298 2.08 23.5597 1.73968C22.5016 1.10796 21.3897 0.465482 20.1576 0.273812C19.783 0.216116 19.4183 0.171121 19.0398 0.158408C18.7279 0.147651 18.321 0.225888 18.0365 0.272827C17.8917 0.296297 17.747 0.315853 17.6033 0.344212C17.2356 0.414622 16.8718 0.491886 16.51 0.583809C15.7951 0.766678 15.0979 0.990614 14.4045 1.24291C13.5997 1.53531 12.8066 1.88344 12.0556 2.29514C11.4464 2.62861 10.8596 3.00021 10.2778 3.37963C9.13852 4.12284 8.03643 4.9658 6.80622 5.55548C6.18525 5.7892 5.5457 5.95738 4.89149 6.06984C4.00062 6.15003 3.10876 6.12168 2.21398 6.0943C1.00724 6.05812 0 7.12891 0 8.30827C0 8.89305 0.235677 9.46123 0.648353 9.87391C1.07472 10.2954 1.62431 10.5027 2.21692 10.5203Z" fill="#795DEC"></path>
</svg>