<svg xmlns="http://www.w3.org/2000/svg" width="14" height="14" viewBox="0 0 14 14" fill="none"><g clip-path="url(#clip0_2859_1378)"><path d="M11.6668 8.16665C11.989 8.16665 12.2501 7.90549 12.2501 7.58332C12.2501 7.26116 11.989 7 11.6668 7C11.3447 7 11.0835 7.26116 11.0835 7.58332C11.0835 7.90549 11.3447 8.16665 11.6668 8.16665Z" fill="#1E486F"></path><path d="M11.6668 9.91665C11.989 9.91665 12.2501 9.65549 12.2501 9.33332C12.2501 9.01116 11.989 8.75 11.6668 8.75C11.3447 8.75 11.0835 9.01116 11.0835 9.33332C11.0835 9.65549 11.3447 9.91665 11.6668 9.91665Z" fill="#1E486F"></path><path d="M13.9148 13.5019L13.2516 12.8387C13.3541 12.6652 13.4169 12.4655 13.4169 12.2498V4.66643C13.4169 4.02298 12.8937 3.49975 12.2502 3.49975H7.8578L10.9697 1.10603C11.0975 1.00776 11.1212 0.824607 11.0232 0.697021C10.9246 0.569134 10.7421 0.545208 10.6142 0.643482L7.00024 3.42341L3.3863 0.643482C3.25869 0.544935 3.07526 0.56856 2.97729 0.697021C2.87932 0.824634 2.90294 1.00778 3.03083 1.10603L6.14269 3.49975H3.91267L0.498116 0.0852043C0.384174 -0.0287371 0.199604 -0.0287371 0.0856899 0.0852043C-0.0282241 0.199146 -0.0282515 0.383716 0.0856899 0.49763L3.08782 3.49975H1.75024C1.10681 3.49975 0.583565 4.02298 0.583565 4.66643V12.2498C0.583565 12.8932 1.10679 13.4164 1.75024 13.4164H12.2502C12.466 13.4164 12.6657 13.3536 12.8392 13.2512L13.5024 13.9143C13.5593 13.9713 13.634 13.9998 13.7086 13.9998C13.7832 13.9998 13.8578 13.9713 13.9148 13.9143C14.0287 13.8004 14.0287 13.6158 13.9148 13.5019ZM12.2502 12.8331H1.75024C1.42868 12.8331 1.16692 12.5713 1.16692 12.2498V4.66643C1.16692 4.34487 1.42868 4.08311 1.75024 4.08311H3.67114L4.31227 4.72424C3.56335 4.77326 3.00792 4.84315 2.67908 4.89347C2.30737 4.95042 2.02283 5.22728 1.9539 5.59929C1.86104 6.10198 1.75024 7.00602 1.75024 8.45808C1.75024 9.91014 1.86104 10.8142 1.9539 11.3172C2.02283 11.6889 2.30737 11.9658 2.67908 12.0227C3.23391 12.1076 4.4194 12.2498 6.12524 12.2498C7.83108 12.2498 9.01657 12.1076 9.5714 12.0227C9.94311 11.9658 10.2277 11.6889 10.2966 11.3169C10.3228 11.1751 10.3502 10.9973 10.3764 10.7883L12.3924 12.8043C12.3457 12.8164 12.3006 12.8331 12.2502 12.8331ZM9.84607 10.258C9.80967 10.6708 9.76461 10.9856 9.72294 11.2107C9.69986 11.3349 9.60588 11.4274 9.48311 11.4463C8.94476 11.5286 7.79236 11.6664 6.12524 11.6664C4.45812 11.6664 3.30569 11.5286 2.76737 11.4463C2.6446 11.4274 2.55062 11.3349 2.52754 11.211C2.43895 10.7322 2.33356 9.86601 2.33356 8.45811C2.33356 7.05018 2.43895 6.18401 2.52754 5.70549C2.55062 5.5813 2.6446 5.48874 2.76737 5.46993C3.15675 5.4104 3.87165 5.32241 4.86601 5.27795L9.84607 10.258ZM5.66732 5.25438C5.81669 5.25202 5.9664 5.24975 6.12524 5.24975C7.79236 5.24975 8.94479 5.38762 9.48311 5.46993C9.60588 5.48874 9.69986 5.5813 9.72294 5.70519C9.81153 6.18398 9.91692 7.05018 9.91692 8.45808C9.91692 8.83944 9.90874 9.17782 9.8957 9.48276L5.66732 5.25438ZM12.8336 12.2498C12.8336 12.3001 12.8169 12.3452 12.8048 12.3919L11.9771 11.5642C12.1376 11.4601 12.2502 11.2881 12.2502 11.0831C12.2502 10.7615 11.9885 10.4998 11.6669 10.4998C11.4619 10.4998 11.2898 10.6124 11.1858 10.7729L10.4482 10.0353C10.4791 9.60151 10.5002 9.0834 10.5002 8.45808C10.5002 7.00602 10.3894 6.10195 10.2966 5.59893C10.2276 5.22722 9.94308 4.95037 9.57137 4.89341C9.01651 4.80854 7.83105 4.6664 6.12521 4.6664C5.75651 4.6664 5.41715 4.67403 5.09818 4.68527L4.49599 4.08308H12.2502C12.5718 4.08308 12.8336 4.34484 12.8336 4.6664V12.2498Z" fill="#1E486F"></path></g><defs><clipPath id="clip0_2859_1378"><rect width="14" height="14" fill="white"></rect></clipPath></defs></svg>