<svg width="17" height="17" viewBox="0 0 17 17" fill="none" xmlns="http://www.w3.org/2000/svg">
<path d="M13.8128 2.125H12.7503C12.7503 1.53921 12.2736 1.0625 11.6878 1.0625C11.102 1.0625 10.6253 1.53921 10.6253 2.125H6.37533C6.37533 1.53921 5.89862 1.0625 5.31283 1.0625C4.72703 1.0625 4.25033 1.53921 4.25033 2.125H3.18783C2.21139 2.125 1.41699 2.9194 1.41699 3.89583V14.1667C1.41699 15.1431 2.21139 15.9375 3.18783 15.9375H13.8128C14.7893 15.9375 15.5837 15.1431 15.5837 14.1667V3.89583C15.5837 2.9194 14.7893 2.125 13.8128 2.125ZM11.3337 2.125C11.3337 1.92985 11.4923 1.77083 11.6878 1.77083C11.8833 1.77083 12.042 1.92985 12.042 2.125V2.83333C12.042 3.02848 11.8833 3.1875 11.6878 3.1875C11.4923 3.1875 11.3337 3.02848 11.3337 2.83333V2.125ZM4.95866 2.125C4.95866 1.92985 5.11733 1.77083 5.31283 1.77083C5.50833 1.77083 5.66699 1.92985 5.66699 2.125V2.83333C5.66699 3.02848 5.50833 3.1875 5.31283 3.1875C5.11733 3.1875 4.95866 3.02848 4.95866 2.83333V2.125ZM2.12533 3.89583C2.12533 3.31004 2.60203 2.83333 3.18783 2.83333H4.25033C4.25033 3.41912 4.72703 3.89583 5.31283 3.89583C5.89862 3.89583 6.37533 3.41912 6.37533 2.83333H10.6253C10.6253 3.41912 11.102 3.89583 11.6878 3.89583C12.2736 3.89583 12.7503 3.41912 12.7503 2.83333H13.8128C14.3986 2.83333 14.8753 3.31004 14.8753 3.89583V5.3125H2.12533V3.89583ZM14.8753 14.1667C14.8753 14.7525 14.3986 15.2292 13.8128 15.2292H3.18783C2.60203 15.2292 2.12533 14.7525 2.12533 14.1667V6.02083H14.8753V14.1667Z" fill="#9269CC"/>
<path d="M4.25033 9.91667H5.31283C5.70347 9.91667 6.02116 9.59898 6.02116 9.20833V8.14583C6.02116 7.75519 5.70347 7.4375 5.31283 7.4375H4.25033C3.85968 7.4375 3.54199 7.75519 3.54199 8.14583V9.20833C3.54199 9.59898 3.85968 9.91667 4.25033 9.91667ZM4.25033 8.14583H5.31283L5.31353 9.20833H4.25033V8.14583Z" fill="#9269CC"/>
<path d="M7.96908 9.91667H9.03158C9.42222 9.91667 9.73991 9.59898 9.73991 9.20833V8.14583C9.73991 7.75519 9.42222 7.4375 9.03158 7.4375H7.96908C7.57843 7.4375 7.26074 7.75519 7.26074 8.14583V9.20833C7.26074 9.59898 7.57843 9.91667 7.96908 9.91667ZM7.96908 8.14583H9.03158L9.03228 9.20833H7.96908V8.14583Z" fill="#9269CC"/>
<path d="M11.6878 9.91667H12.7503C13.141 9.91667 13.4587 9.59898 13.4587 9.20833V8.14583C13.4587 7.75519 13.141 7.4375 12.7503 7.4375H11.6878C11.2972 7.4375 10.9795 7.75519 10.9795 8.14583V9.20833C10.9795 9.59898 11.2972 9.91667 11.6878 9.91667ZM11.6878 8.14583H12.7503L12.751 9.20833H11.6878V8.14583Z" fill="#9269CC"/>
<path d="M4.25033 13.8125H5.31283C5.70347 13.8125 6.02116 13.4949 6.02116 13.1042V12.0417C6.02116 11.6511 5.70347 11.3334 5.31283 11.3334H4.25033C3.85968 11.3334 3.54199 11.6511 3.54199 12.0417V13.1042C3.54199 13.4949 3.85968 13.8125 4.25033 13.8125ZM4.25033 12.0417H5.31283L5.31353 13.1042H4.25033V12.0417Z" fill="#9269CC"/>
<path d="M7.96908 13.8125H9.03158C9.42222 13.8125 9.73991 13.4949 9.73991 13.1042V12.0417C9.73991 11.6511 9.42222 11.3334 9.03158 11.3334H7.96908C7.57843 11.3334 7.26074 11.6511 7.26074 12.0417V13.1042C7.26074 13.4949 7.57843 13.8125 7.96908 13.8125ZM7.96908 12.0417H9.03158L9.03228 13.1042H7.96908V12.0417Z" fill="#9269CC"/>
<path d="M11.6878 13.8125H12.7503C13.141 13.8125 13.4587 13.4949 13.4587 13.1042V12.0417C13.4587 11.6511 13.141 11.3334 12.7503 11.3334H11.6878C11.2972 11.3334 10.9795 11.6511 10.9795 12.0417V13.1042C10.9795 13.4949 11.2972 13.8125 11.6878 13.8125ZM11.6878 12.0417H12.7503L12.751 13.1042H11.6878V12.0417Z" fill="#9269CC"/>
</svg>
