<svg width="19" height="19" viewBox="0 0 19 19" fill="none" xmlns="http://www.w3.org/2000/svg">
<path d="M17.4521 13.87C16.9332 13.4348 13.8896 11.5075 13.3837 11.5959C13.1462 11.6381 12.9645 11.8406 12.4783 12.4207C12.2534 12.7062 12.0064 12.9736 11.7396 13.2204C11.2508 13.1024 10.7777 12.927 10.3301 12.6979C8.57451 11.8432 7.15625 10.4246 6.30206 8.66875C6.07302 8.2211 5.89763 7.74797 5.77956 7.25919C6.0264 6.99241 6.29382 6.74545 6.57934 6.52056C7.15884 6.03428 7.36191 5.85378 7.40406 5.61509C7.49253 5.10803 5.56344 2.06566 5.13 1.54672C4.94831 1.33178 4.78325 1.1875 4.57187 1.1875C3.95912 1.1875 1.1875 4.61463 1.1875 5.05875C1.1875 5.09497 1.24687 8.66281 5.75284 13.2472C10.3372 17.7531 13.905 17.8125 13.9412 17.8125C14.3854 17.8125 17.8125 15.0409 17.8125 14.4281C17.8125 14.2167 17.6682 14.0517 17.4521 13.87Z" fill="#7B51AE"/>
<path d="M13.6562 8.90625H14.8438C14.8423 7.64691 14.3414 6.43955 13.4509 5.54905C12.5605 4.65856 11.3531 4.15766 10.0938 4.15625V5.34375C11.0383 5.34469 11.9439 5.72033 12.6118 6.38822C13.2797 7.05612 13.6553 7.96171 13.6562 8.90625Z" fill="#7B51AE"/>
<path d="M16.625 8.90625H17.8125C17.8101 6.85983 16.9962 4.89791 15.5491 3.45087C14.1021 2.00384 12.1402 1.18986 10.0938 1.1875V2.375C11.8253 2.37704 13.4854 3.06581 14.7098 4.29022C15.9342 5.51462 16.623 7.17468 16.625 8.90625Z" fill="#7B51AE"/>
</svg>
