<svg width="434" height="356" viewBox="0 0 434 356" fill="none" xmlns="http://www.w3.org/2000/svg">
<path opacity="0.38" d="M420.763 245.747C418.384 278.356 398.804 308.92 370.877 325.976C355.896 335.127 339.095 340.46 321.833 344.113C318.206 344.882 314.558 345.574 310.903 346.213C305.691 347.125 300.46 347.926 295.253 348.673C286.695 349.9 278.093 351.01 269.469 351.943C266.833 352.23 264.193 352.498 261.554 352.75C235.726 355.208 209.739 355.947 184.103 353.466C172.43 352.337 160.827 350.538 149.346 347.93C148.819 347.811 148.292 347.689 147.765 347.565C145.635 347.066 143.51 346.536 141.391 345.975C139.664 345.517 137.94 345.039 136.223 344.54C128.898 342.418 121.661 339.923 114.577 337.057C108.774 334.712 103.073 332.115 97.5142 329.272C70.1564 315.282 46.186 295.287 29.998 269.352C4.11867 227.893 1.95567 170.36 31.781 131.634C35.2757 127.096 39.133 122.879 43.2859 118.973C44.242 118.072 45.2134 117.19 46.2002 116.323C47.8616 114.863 49.5657 113.45 51.3071 112.082C53.7592 110.155 56.288 108.32 58.8814 106.576C59.1289 106.407 59.3775 106.241 59.6283 106.076C61.4069 104.897 63.2151 103.757 65.0495 102.66H65.0506C65.4558 102.417 65.8599 102.175 66.2674 101.939C66.8916 101.571 67.5192 101.211 68.1489 100.856C71.8342 98.7731 75.6137 96.8478 79.4655 95.0779C79.8937 94.88 80.323 94.6841 80.7545 94.4905H80.7556C81.4478 94.1799 82.1421 93.8736 82.8376 93.5728C86.605 91.9407 90.4316 90.4541 94.2932 89.1043C97.0794 88.1296 99.9006 87.1539 102.782 86.1869H102.783C103.456 85.9605 104.13 85.7363 104.811 85.5109H104.813C105.771 85.1926 106.735 84.8776 107.709 84.5636C128.687 77.8013 153.386 71.8429 190.843 70.8639H190.839C224.707 67.579 260.46 73.3536 287.756 93.5028C305.572 106.654 318.97 125.219 337.391 137.51C351.046 146.624 366.964 151.942 380.564 161.137C407.67 179.465 423.139 213.138 420.76 245.745L420.763 245.747Z" fill="#ED99BB"/>
<path d="M327.089 123.082C326.547 121.431 325.704 119.834 324.581 118.334L324.901 118.096C326.05 119.63 326.913 121.265 327.468 122.958L327.088 123.082H327.089ZM320.802 114.483C319.417 113.381 317.878 112.409 316.227 111.591L316.405 111.233C318.081 112.063 319.644 113.051 321.051 114.17L320.802 114.482V114.483ZM311.157 109.685C309.497 109.232 307.754 108.884 305.829 108.62L305.884 108.224C307.827 108.491 309.586 108.843 311.262 109.301L311.157 109.686V109.685ZM300.406 108.123C298.556 108.021 296.691 107.974 294.951 107.939L294.96 107.539C296.703 107.575 298.571 107.622 300.428 107.724L300.406 108.123ZM289.486 107.814C289.182 107.804 288.877 107.793 288.572 107.781C286.929 107.716 285.439 107.619 284.019 107.482L284.058 107.084C285.47 107.22 286.952 107.318 288.587 107.381C288.891 107.393 289.195 107.404 289.498 107.414L289.485 107.814H289.486ZM278.594 106.694C276.702 106.311 274.922 105.817 273.306 105.228L273.443 104.853C275.041 105.435 276.801 105.924 278.673 106.303L278.594 106.694ZM268.354 102.851C267.485 102.313 266.654 101.721 265.883 101.089C265.265 100.582 264.651 100.022 264.059 99.4244L264.343 99.1429C264.925 99.731 265.529 100.282 266.137 100.78C266.894 101.4 267.71 101.982 268.564 102.511L268.354 102.851ZM260.566 95.1929C259.49 93.6708 258.503 92.084 257.596 90.5958L257.938 90.3877C258.841 91.8694 259.824 93.4496 260.893 94.9619L260.566 95.1918V95.1929ZM191.848 90.8367C190.164 90.4227 188.623 89.159 187.617 87.3685L187.966 87.1736C188.916 88.8677 190.367 90.0614 191.943 90.449L191.848 90.8367ZM197.064 89.3561L196.789 89.0659C198.044 87.88 198.868 86.1223 198.996 84.3625L199.395 84.391C199.261 86.2472 198.389 88.1033 197.064 89.3561ZM130.929 88.0081L130.729 87.662C132.298 86.7553 133.916 85.877 135.538 85.0502L135.72 85.4061C134.104 86.2297 132.492 87.1046 130.929 88.0081ZM254.743 85.9449C254.056 84.8696 253.425 83.9387 252.814 83.0988C252.424 82.5644 252.017 82.03 251.599 81.5109L251.91 81.2612C252.331 81.7858 252.744 82.3246 253.137 82.8645C253.753 83.711 254.388 84.6483 255.079 85.7303L254.743 85.9449ZM140.641 83.0572L140.477 82.6925C142.135 81.9533 143.835 81.2459 145.531 80.5921L145.675 80.9645C143.985 81.6161 142.291 82.3202 140.64 83.0572H140.641ZM186.958 82.0377L186.563 81.9785C186.578 81.8723 186.597 81.765 186.618 81.6609C186.935 80.0326 187.666 78.4469 188.787 76.9477L189.107 77.1864C188.022 78.6374 187.317 80.1683 187.01 81.7376C186.99 81.8373 186.974 81.9369 186.958 82.0377ZM197.486 79.3646C196.513 77.9661 195.129 76.7528 193.484 75.8559L193.676 75.5055C195.375 76.4319 196.806 77.688 197.815 79.1368L197.486 79.3646ZM150.811 79.1324L150.686 78.7535C152.411 78.1873 154.175 77.6573 155.928 77.1799L156.033 77.5653C154.287 78.0417 152.531 78.5695 150.811 79.1335V79.1324ZM247.93 77.5062C246.632 76.2589 245.237 75.0773 243.785 73.9942L244.024 73.6745C245.489 74.7674 246.897 75.9599 248.207 77.2193L247.93 77.5073V77.5062ZM161.328 76.2644L161.243 75.8745C163.019 75.4858 164.827 75.1386 166.618 74.8418L166.683 75.2361C164.899 75.5317 163.097 75.8778 161.328 76.2644ZM172.085 74.4827L172.04 74.0862C173.848 73.8814 175.682 73.7216 177.492 73.611L177.516 74.0096C175.713 74.1191 173.886 74.279 172.083 74.4827H172.085ZM188.378 74.1903C186.863 73.9395 185.195 73.8223 183.128 73.8223H182.966L182.965 73.4226H183.128C185.218 73.4226 186.906 73.5409 188.444 73.7949L188.378 74.1892V74.1903ZM192.965 73.4259L192.724 73.1072C193.347 72.6374 194.026 72.1698 194.743 71.7165C195.594 71.1788 196.477 70.663 197.37 70.1844L197.558 70.536C196.673 71.0101 195.799 71.5204 194.957 72.0527C194.25 72.5005 193.579 72.9616 192.964 73.4248L192.965 73.4259ZM239.236 71.02C237.662 70.1242 236.02 69.3204 234.356 68.6305L234.509 68.2615C236.189 68.9579 237.846 69.7694 239.435 70.6728L239.238 71.02H239.236ZM202.503 68.2812L202.361 67.9077C204.06 67.2595 205.822 66.7097 207.596 66.275L207.692 66.6626C205.932 67.0941 204.187 67.6384 202.503 68.2812ZM229.215 66.8707C228.177 66.5882 227.121 66.344 226.074 66.1436C225.355 66.0067 224.62 65.8862 223.89 65.7866L223.944 65.3912C224.68 65.492 225.423 65.6124 226.148 65.7515C227.206 65.953 228.273 66.2005 229.32 66.4852L229.215 66.8707ZM213.04 65.6979L212.993 65.3014C214.81 65.0879 216.65 64.9861 218.47 65.0014L218.467 65.4011C216.665 65.3879 214.839 65.4876 213.039 65.699L213.04 65.6979Z" fill="#1D1D1B"/>
<path d="M51.4539 273.494C50.9057 273.494 50.3477 273.468 49.7974 273.416L49.8347 273.019C50.522 273.082 51.2149 273.106 51.9011 273.089L51.9121 273.489C51.7597 273.493 51.6073 273.494 51.455 273.494H51.4539ZM44.4543 272.111C42.7705 271.436 41.1579 270.53 39.6604 269.416L39.8994 269.095C41.3695 270.189 42.9513 271.078 44.6034 271.74L44.4543 272.11V272.111ZM35.6887 265.615C34.5091 264.168 33.5335 262.598 32.7858 260.948L33.1498 260.783C33.8821 262.403 34.8413 263.943 35.9978 265.363L35.6876 265.615H35.6887ZM31.25 255.671C31.1568 254.993 31.1031 254.305 31.0899 253.627C31.0866 253.487 31.0855 253.347 31.0855 253.206C31.0855 252.229 31.1557 251.21 31.2927 250.177L31.6896 250.23C31.5536 251.245 31.4857 252.246 31.4857 253.206C31.4857 253.343 31.4868 253.481 31.49 253.618C31.5032 254.281 31.5558 254.953 31.6468 255.617L31.2511 255.67L31.25 255.671ZM32.8921 244.947L32.5096 244.83C33.0127 243.191 33.5981 241.581 34.3228 239.668L34.6966 239.809C33.9752 241.715 33.392 243.318 32.8921 244.947ZM36.6008 234.686L36.2226 234.555C36.5361 233.655 36.7992 232.839 37.0305 232.061C37.2936 231.172 37.5161 230.253 37.6904 229.334L38.0829 229.408C37.9064 230.341 37.6817 231.273 37.4142 232.175C37.1818 232.959 36.9165 233.781 36.6008 234.686ZM38.1552 223.947C38.1136 222.022 37.8362 220.231 37.3309 218.627L37.7124 218.507C38.2298 220.148 38.5137 221.976 38.5554 223.939L38.1552 223.948V223.947ZM34.7448 213.963C34.0575 213.2 33.2627 212.543 32.3835 212.008C31.7652 211.633 31.0921 211.308 30.3236 211.017L30.4651 210.644C31.2565 210.944 31.9527 211.279 32.5918 211.668C33.5039 212.222 34.3282 212.905 35.0419 213.697L34.7448 213.964V213.963ZM25.0748 209.62C24.4039 209.465 23.6113 209.276 22.8143 209.039C21.8112 208.741 20.8148 208.365 19.8501 207.921L20.0178 207.559C20.9649 207.995 21.9439 208.364 22.9283 208.656C23.7143 208.889 24.4993 209.078 25.1647 209.23L25.0748 209.619V209.62ZM15.1636 205.049C13.7198 203.913 12.4076 202.611 11.262 201.179L11.5745 200.929C12.7003 202.337 13.9906 203.618 15.4102 204.735L15.1625 205.049H15.1636ZM8.35916 196.514C8.04783 195.847 7.76828 195.16 7.5282 194.473C7.16863 193.444 6.88142 192.371 6.67422 191.284L7.06668 191.209C7.26949 192.277 7.55232 193.33 7.90531 194.34C8.14101 195.015 8.41617 195.689 8.72202 196.344L8.35916 196.513V196.514ZM6.69396 185.825L6.29492 185.806C6.38153 183.972 6.6808 182.148 7.18288 180.386L7.56767 180.496C7.07436 182.228 6.78056 184.022 6.69505 185.826L6.69396 185.825ZM20.5374 178.724C18.7253 178.35 17.0426 177.294 16.0351 175.899C16 175.851 15.9649 175.801 15.931 175.752L16.2598 175.524C16.2927 175.571 16.3256 175.618 16.3596 175.664C17.31 176.981 18.9018 177.977 20.6185 178.332L20.5374 178.723V178.724ZM25.7797 177.344L25.4881 177.07C25.5681 176.986 25.6448 176.896 25.7183 176.805C26.3103 176.063 26.6106 175.19 26.6106 174.209C26.6106 173.546 26.4725 172.864 26.1984 172.182L26.5701 172.033C26.8628 172.762 27.0108 173.495 27.0108 174.209C27.0108 175.267 26.672 176.251 26.0318 177.054C25.9518 177.155 25.8674 177.252 25.7797 177.344ZM9.64506 175.512L9.29755 175.315C9.63739 174.715 10.009 174.126 10.4004 173.566C11.0691 172.608 11.8222 171.728 12.64 170.948L12.9163 171.237C12.1182 171.998 11.3826 172.859 10.7282 173.795C10.3445 174.345 9.97942 174.923 9.64616 175.512H9.64506ZM14.1517 170.549C14.0969 170.005 14.0695 169.428 14.0695 168.834C14.0695 167.675 14.1704 166.439 14.3787 165.06L14.7744 165.119C14.5694 166.479 14.4697 167.694 14.4697 168.834C14.4697 169.415 14.4971 169.978 14.5497 170.509L14.1517 170.548V170.549ZM22.6203 168.434C22.0908 168.198 21.5471 168.048 21.0022 167.986C19.8325 167.852 18.6234 167.989 17.4273 168.393L17.2991 168.014C18.551 167.592 19.8205 167.449 21.0472 167.589C21.6326 167.656 22.2158 167.818 22.7825 168.069L22.6203 168.434ZM15.92 159.811L15.5352 159.703C16.0252 157.957 16.6293 156.215 17.3298 154.526L17.6992 154.679C17.0053 156.354 16.4067 158.079 15.92 159.812V159.811ZM20.0726 149.792L19.724 149.597C20.6152 148.006 21.6106 146.454 22.6806 144.982L23.004 145.217C21.9439 146.675 20.9573 148.215 20.0737 149.792H20.0726ZM26.4539 141.019L26.1612 140.748C27.4076 139.405 28.7417 138.131 30.1285 136.964L30.3861 137.27C29.0125 138.427 27.6893 139.689 26.455 141.02L26.4539 141.019Z" fill="#1D1D1B"/>
<path d="M367.925 309.158C367.873 308.689 367.845 308.21 367.845 307.737C367.845 306.398 368.058 305.036 368.478 303.686L368.859 303.804C368.451 305.115 368.245 306.439 368.245 307.737C368.245 308.196 368.272 308.658 368.323 309.113L367.926 309.158H367.925ZM371.282 299.007L370.955 298.776C371.98 297.33 373.228 295.964 374.663 294.717L374.925 295.018C373.514 296.243 372.288 297.586 371.281 299.006L371.282 299.007ZM379.365 291.927L379.173 291.576C379.258 291.529 379.343 291.483 379.428 291.438C380.853 290.679 382.403 289.981 384.166 289.304L384.31 289.676C382.563 290.346 381.028 291.038 379.617 291.79C379.533 291.835 379.449 291.879 379.366 291.925L379.365 291.927ZM389.468 287.92L389.349 287.539C390.222 287.268 391.112 286.999 391.972 286.739C392.826 286.482 393.71 286.215 394.576 285.946L394.694 286.327C393.827 286.597 392.943 286.863 392.088 287.121C391.228 287.381 390.338 287.649 389.468 287.92ZM399.878 284.564L399.735 284.191C400.249 283.994 400.752 283.792 401.229 283.592C402.396 283.102 403.56 282.553 404.69 281.957L404.876 282.311C403.736 282.912 402.561 283.467 401.384 283.961C400.903 284.162 400.396 284.366 399.878 284.564ZM409.563 279.466L409.335 279.137C410.812 278.115 412.252 276.988 413.616 275.788L413.88 276.088C412.505 277.298 411.052 278.435 409.562 279.466H409.563ZM417.784 272.239L417.487 271.971C418.698 270.633 419.848 269.21 420.904 267.744L421.228 267.977C420.164 269.456 419.005 270.89 417.784 272.239ZM424.174 263.356L423.825 263.161C424.712 261.578 425.513 259.936 426.207 258.278L426.577 258.432C425.877 260.104 425.068 261.761 424.174 263.357V263.356ZM428.39 253.261L428.005 253.152C428.504 251.404 428.896 249.62 429.172 247.848L429.566 247.909C429.288 249.698 428.892 251.498 428.389 253.261H428.39ZM430.069 242.453L429.669 242.441C429.682 241.999 429.689 241.551 429.689 241.108C429.689 239.752 429.626 238.375 429.504 237.012L429.902 236.976C430.026 238.35 430.089 239.741 430.089 241.108C430.089 241.556 430.083 242.008 430.069 242.453ZM428.701 231.64C428.333 229.878 427.858 228.112 427.29 226.393L427.67 226.268C428.242 228.002 428.721 229.782 429.092 231.559L428.7 231.64H428.701ZM425.3 221.337C424.543 219.692 423.687 218.077 422.754 216.536L423.096 216.329C424.036 217.883 424.899 219.512 425.662 221.171L425.3 221.337ZM419.68 212.055C418.568 210.62 417.364 209.243 416.104 207.965L416.389 207.685C417.661 208.974 418.874 210.362 419.997 211.811L419.681 212.055H419.68ZM412.059 204.338L412.029 204.315C410.734 203.293 409.293 202.268 407.625 201.183L407.843 200.848C409.521 201.941 410.973 202.973 412.278 204.002L412.307 204.024L412.06 204.338H412.059ZM402.983 198.318C402.549 198.06 402.114 197.802 401.679 197.544C400.565 196.884 399.414 196.202 398.291 195.516L398.5 195.176C399.62 195.86 400.77 196.542 401.881 197.201C402.317 197.46 402.752 197.717 403.187 197.977L402.982 198.32L402.983 198.318ZM393.7 192.535C392.597 191.762 391.607 191.015 390.672 190.251C390.238 189.896 389.807 189.525 389.39 189.146L389.658 188.85C390.07 189.224 390.497 189.591 390.926 189.941C391.853 190.699 392.835 191.44 393.93 192.208L393.7 192.535ZM385.646 185.131C384.475 183.636 383.482 182.077 382.694 180.501L383.051 180.323C383.828 181.876 384.807 183.411 385.961 184.886L385.646 185.132V185.131ZM380.863 175.321C380.637 174.224 380.517 173.127 380.505 172.056C380.104 172.046 379.703 172.029 379.304 172.005L379.328 171.606C379.72 171.629 380.113 171.646 380.506 171.656C380.514 171.042 380.558 170.428 380.638 169.828L381.035 169.88C380.957 170.466 380.915 171.065 380.906 171.665C381.461 171.673 382.015 171.667 382.562 171.649C383.378 171.62 384.092 171.562 384.744 171.472L384.799 171.868C384.132 171.96 383.404 172.019 382.575 172.047C382.023 172.067 381.464 172.072 380.905 172.065C380.918 173.106 381.035 174.173 381.256 175.241L380.864 175.322L380.863 175.321ZM373.867 171.257C372.096 170.876 370.325 170.356 368.6 169.715L368.74 169.34C370.447 169.975 372.199 170.489 373.951 170.866L373.867 171.257ZM389.873 169.749L389.598 169.459C390.628 168.485 391.269 167.053 391.269 165.72C391.269 165.363 391.223 165.017 391.133 164.693L391.518 164.586C391.617 164.946 391.668 165.327 391.668 165.72C391.668 167.158 390.979 168.702 389.872 169.749H389.873ZM363.604 167.448C362 166.582 360.439 165.596 358.967 164.519L359.202 164.197C360.66 165.263 362.206 166.24 363.793 167.097L363.604 167.449V167.448ZM382.785 164.854L382.453 164.631C383.084 163.688 383.845 162.953 384.714 162.446C385.41 162.039 386.223 161.797 387.062 161.746L387.087 162.144C386.309 162.193 385.557 162.416 384.915 162.791C384.098 163.267 383.381 163.961 382.784 164.854H382.785ZM354.771 160.984C353.451 159.706 352.219 158.332 351.109 156.901L351.424 156.657C352.523 158.073 353.743 159.433 355.049 160.697L354.77 160.984H354.771ZM348.075 152.332C347.175 150.726 346.401 149.052 345.775 147.354L346.15 147.216C346.77 148.894 347.534 150.55 348.424 152.138L348.075 152.332Z" fill="#1D1D1B"/>
<path d="M152.907 83.6442C155.794 83.6442 158.133 81.307 158.133 78.4239C158.133 75.5408 155.794 73.2036 152.907 73.2036C150.021 73.2036 147.682 75.5408 147.682 78.4239C147.682 81.307 150.021 83.6442 152.907 83.6442Z" fill="#474E88"/>
<path d="M383.433 188.216C386.319 188.216 388.659 185.879 388.659 182.996C388.659 180.113 386.319 177.776 383.433 177.776C380.547 177.776 378.207 180.113 378.207 182.996C378.207 185.879 380.547 188.216 383.433 188.216Z" fill="#F5D214"/>
<path d="M30.9195 257.271C33.3183 257.271 35.2629 255.329 35.2629 252.933C35.2629 250.537 33.3183 248.594 30.9195 248.594C28.5208 248.594 26.5762 250.537 26.5762 252.933C26.5762 255.329 28.5208 257.271 30.9195 257.271Z" fill="#F5D214"/>
<path d="M270.411 102.37C270.774 100.132 269.253 98.023 267.012 97.6597C264.772 97.2964 262.661 98.8163 262.297 101.054C261.933 103.292 263.455 105.401 265.695 105.765C267.936 106.128 270.047 104.608 270.411 102.37Z" fill="#ED99BB"/>
<path d="M6.46788 189.793C10.04 189.793 12.9358 186.901 12.9358 183.332C12.9358 179.764 10.04 176.871 6.46788 176.871C2.89577 176.871 0 179.764 0 183.332C0 186.901 2.89577 189.793 6.46788 189.793Z" fill="#ED99BB"/>
<path d="M429.891 244.314C432.161 244.314 434.001 242.476 434.001 240.209C434.001 237.941 432.161 236.103 429.891 236.103C427.621 236.103 425.781 237.941 425.781 240.209C425.781 242.476 427.621 244.314 429.891 244.314Z" fill="#474E88"/>
<mask id="mask0_52_751" style="mask-type:alpha" maskUnits="userSpaceOnUse" x="8" y="0" width="411" height="356">
<path d="M418.763 246.153C416.384 278.762 396.804 309.326 368.877 326.382C353.896 335.533 337.095 340.866 319.833 344.519C316.206 345.288 312.558 345.98 308.903 346.619C303.691 347.531 298.46 348.332 293.253 349.079C284.695 350.306 276.093 351.416 267.469 352.349C264.833 352.636 262.193 352.904 259.554 353.156C233.726 355.614 207.739 356.353 182.103 353.872C170.43 352.742 158.827 350.944 147.346 348.336C146.819 348.217 146.292 348.095 145.765 347.971C143.635 347.472 141.51 346.942 139.391 346.38C137.664 345.923 135.94 345.445 134.223 344.946C126.898 342.824 119.661 340.329 112.577 337.463C106.774 335.118 101.073 332.521 95.5142 329.678C68.1564 315.687 44.186 295.693 27.998 269.758C2.11867 228.299 -0.0443306 170.765 29.781 132.04C33.2757 127.502 37.133 123.285 41.2859 119.378C42.242 118.478 43.2134 117.595 44.2002 116.729C45.8616 115.269 47.5657 113.856 49.3071 112.488C51.7592 110.561 54.288 108.726 56.8814 106.982C57.1289 106.813 57.3775 106.647 57.6283 106.482C59.4069 105.303 61.2151 104.163 63.0495 103.066H63.0506C63.4558 102.823 63.8599 102.581 64.2674 102.345C64.8916 101.977 65.5192 101.617 66.1489 101.262C69.8342 99.179 73.6137 97.2538 77.4655 95.4839C77.8937 95.2859 78.323 95.0901 78.7545 94.8965H78.7556C79.4478 94.5858 80.1421 94.2795 80.8376 93.9787C84.605 92.3467 88.4316 90.8601 92.2933 89.5102C95.0794 88.5356 97.9006 87.5599 100.782 86.5929H100.783C101.456 86.3664 102.13 86.1422 102.811 85.9169H102.813C103.771 85.5985 104.735 85.2835 105.709 84.9696C126.687 78.2072 86.0434 16.8849 123.5 15.9059L161 0.405884C194.869 -2.87902 281.607 14.2567 308.903 34.4059C326.718 47.5576 316.97 125.625 335.391 137.916C349.046 147.029 364.964 152.348 378.564 161.543C405.67 179.871 421.139 213.544 418.76 246.151L418.763 246.153Z" fill="white"/>
</mask>
<g mask="url(#mask0_52_751)">
<path d="M171.436 98.331C172.525 89.1872 165.428 89.1004 164.763 82.2012C163.643 70.6276 174.466 68.7006 176.885 64.5353C182.968 54.0621 170.36 47.9081 183.894 38.4727C188.97 34.9363 197.198 37.2292 204.885 35.8497C213.102 34.3762 212.081 26.5135 220.272 27.4895C230.59 28.7205 231.225 37.9386 236.082 41.2576C239.926 43.8868 246.183 43.1041 250.269 49.4128C253.516 54.4227 250.282 58.1836 252.807 64.1945C254.866 69.0925 258.796 67.781 259.841 75.1964C260.799 81.9713 253.683 84.6005 253.323 93.4088C253.148 97.7039 262.074 99.6684 261.527 106.195C260.718 115.773 256.508 115.351 257.714 122.672C258.398 126.831 262.398 129.945 263.436 133.693C264.531 137.646 259.885 144.676 261.278 148.705C262.776 153.062 266.067 163.213 266.938 170.615C267.324 173.854 261.626 184.297 261.626 190.239C261.626 198.058 267.784 199.985 268.281 206.68C269.165 218.584 262.429 213.287 260.532 225.215C259.891 229.262 266.061 235.397 262.895 244.571C251.109 278.702 141.097 251.409 143.008 217.141C143.605 206.412 149.401 209.924 149.401 196.504C149.401 185.651 139.394 186.453 138.772 179.162C137.565 165.052 147.081 168.495 147.535 159.258C147.915 151.52 139.599 149.275 141.396 144.303C145.352 133.344 156.932 134.147 158.674 128.596C160.44 122.958 154.432 119.471 156.261 110.961C158.444 100.817 170.398 107.082 171.443 98.3426L171.436 98.3301V98.331Z" fill="black"/>
<path d="M192.314 93.7747C193.104 87.1359 188.763 87.1672 188.446 82.1824C187.917 73.816 194.572 72.2746 196.108 69.2222C199.971 61.5518 192.339 57.2693 200.754 50.2511C203.907 47.6156 208.92 49.1695 213.641 48.0691C218.692 46.8883 218.175 41.2129 223.175 41.8033C229.475 42.5557 229.743 49.2187 232.667 51.5626C234.987 53.4153 238.824 52.7623 241.243 57.2809C243.165 60.8674 241.131 63.6336 242.599 67.9536C243.793 71.4784 246.219 70.4711 246.76 75.8226C247.251 80.7143 242.86 82.7165 242.524 89.0995C242.356 92.2137 247.798 93.5126 247.375 98.2496C246.753 105.199 244.178 104.95 244.818 110.234C245.179 113.236 247.586 115.437 248.171 118.14C248.786 120.987 245.85 126.14 246.647 129.043C247.505 132.176 249.383 139.486 249.813 144.837C250.006 147.18 246.374 154.82 246.293 159.121C246.187 164.784 249.931 166.096 250.143 170.938C250.522 179.546 246.467 175.798 245.149 184.469C244.701 187.409 248.395 191.767 246.33 198.455C238.655 223.337 171.664 205.056 173.294 180.211C173.805 172.435 177.305 174.896 177.486 165.174C177.636 157.312 171.497 158.026 171.21 152.762C170.663 142.561 176.441 144.923 176.845 138.223C177.181 132.61 172.124 131.099 173.288 127.469C175.857 119.482 182.94 119.904 184.079 115.858C185.236 111.749 181.604 109.307 182.841 103.122C184.315 95.7438 191.548 100.119 192.307 93.7792L192.313 93.773L192.314 93.7747Z" fill="#16151D"/>
<path d="M236.481 72.933C236.916 71.9382 237.413 70.9255 238.403 70.1668C239.398 69.4145 241.021 68.9922 242.396 69.4145C244.038 69.9244 244.66 71.3477 244.909 72.6029C245.307 74.6292 245.257 76.7181 244.374 78.6263C243.491 80.5407 241.725 82.2629 239.243 83.2076C238.764 83.3874 238.21 83.5493 237.67 83.45C236.655 83.2639 236.32 82.3622 236.208 81.6286C235.748 78.6137 235.368 75.4746 236.482 72.933H236.481Z" fill="#EEAD8E"/>
<path d="M240.803 79.6668C240.672 79.7768 240.476 79.759 240.366 79.6283C240.256 79.4968 240.274 79.3009 240.404 79.1909C241.003 78.689 241.482 78.0494 241.81 77.3399C242.136 76.6314 242.312 75.8531 242.303 75.0739V75.0712C242.302 74.7715 242.27 74.4673 242.19 74.1855C242.122 73.9476 242.02 73.723 241.874 73.5307L241.868 73.5226C241.712 73.324 241.494 73.1675 241.256 73.0861C241.044 73.0136 240.82 73.002 240.621 73.0789C240.462 73.1397 240.282 73.0601 240.222 72.9009C240.161 72.7416 240.24 72.5627 240.4 72.501C240.745 72.3686 241.117 72.3811 241.458 72.4983C241.806 72.6182 242.127 72.849 242.357 73.1415L242.368 73.1558C242.564 73.4144 242.698 73.7078 242.786 74.0147C242.884 74.3591 242.923 74.7205 242.923 75.0703C242.931 75.9425 242.737 76.8094 242.374 77.5985C242.009 78.3893 241.473 79.1041 240.803 79.665L240.803 79.6668Z" fill="#B0765D"/>
<path d="M198.821 85.2965C196.762 103.155 194.697 121.007 192.639 138.865C204.543 138.66 217.125 141.798 229.029 141.6C227.679 123.387 228.942 104.199 229.694 83.5806C219.152 85.564 208.348 86.1231 198.821 85.2965Z" fill="#EEAD8E"/>
<path d="M197.619 95.2974C197.631 97.1376 197.327 98.1199 196.959 101.395C203.776 108.208 217.229 112.826 228.61 112.036C228.661 107.809 228.834 102.408 228.959 98.3802C218.572 97.4731 208.191 96.5713 197.83 95.403C197.936 95.3654 198.035 95.335 197.625 95.2974H197.619Z" fill="#BD795C"/>
<path d="M148.156 133.867C147.615 130.921 158.848 111.912 161.764 111.222C168.065 109.73 253.061 114.38 260.923 125.388C263.404 128.863 262.776 133.587 262.061 137.801C255.723 175.177 255.101 207.997 247.215 246.659C251.612 268.57 256.787 332.027 263.827 353.236C211.669 301.109 200.138 283.929 142.638 355.274C141.257 356.984 138.042 354.615 136.68 352.894C134.989 350.749 135.723 347.648 136.537 345.044C143.005 324.376 151.619 272.094 158.797 251.533C156.303 238.163 150.313 145.596 148.155 133.879V133.867H148.156Z" fill="#EEAD8E"/>
<path d="M195.898 49.8351C188.011 59.3332 185.393 84.2767 197.651 100.096C202.148 105.896 210.657 109.687 218.406 107.648C226.324 105.56 233.383 98.2935 236.039 91.4067C239.813 81.6421 240.803 71.7835 239.534 61.6145C238.987 57.2327 237.587 52.1915 234.938 48.4807C226.417 36.5216 204.033 40.0392 195.891 49.8423L195.898 49.836V49.8351Z" fill="#EEAD8E"/>
<path d="M249.578 121.267C256.382 120.62 263.417 123.045 268.367 127.75C273.399 132.524 276.098 139.193 278.66 145.64C285.464 162.802 292.268 179.963 299.073 197.125C300.217 200.003 301.368 202.938 301.642 206.02C301.916 209.103 301.182 212.422 298.993 214.623C295.802 217.836 290.341 217.737 286.36 215.58C282.38 213.423 279.556 209.662 276.968 205.94C265.829 189.916 256.718 172.567 248.452 154.889C245.777 149.171 243.146 143.247 242.836 136.944C242.525 130.642 244.384 121.759 249.578 121.262V121.268V121.267Z" fill="#EEAD8E"/>
<path d="M199.057 63.7338C202.08 61.9124 205.88 61.3908 209.282 62.3355C209.898 62.5091 210.544 62.7515 210.924 63.2552C211.303 63.7588 211.247 64.063 210.7 64.3985C210.221 64.691 209.605 64.4853 209.071 64.3117C206.558 63.4914 203.753 63.5406 201.265 64.4548C200.233 64.8342 198.958 65.2627 198.653 64.7035C198.485 64.3931 198.691 64.0201 199.058 63.7401V63.7338H199.057Z" fill="black"/>
<path d="M257.57 254.808C257.57 254.808 262.16 307.152 271.129 366.053C242.313 364.337 206.128 367.078 206.128 367.078L202.122 340.723L199.746 366.773C199.746 366.773 160.532 368.32 133.471 366.711C139.517 302.806 148.728 254.925 148.728 254.925L257.576 254.807H257.57V254.808Z" fill="#16151D"/>
<path d="M250.42 272.16C250.432 271.989 250.581 271.86 250.752 271.872C250.923 271.883 251.052 272.032 251.041 272.204C250.649 277.545 250.407 282.936 250.518 288.286C250.629 293.632 251.093 298.947 252.112 304.147C253.175 309.565 254.892 314.866 257.288 319.578C259.48 323.889 262.242 327.708 265.59 330.671C265.718 330.785 265.73 330.98 265.617 331.108C265.504 331.236 265.308 331.248 265.179 331.135C261.769 328.117 258.961 324.235 256.734 319.858C254.31 315.092 252.575 309.736 251.503 304.266C250.477 299.035 250.01 293.683 249.898 288.299C249.787 282.916 250.029 277.51 250.421 272.161L250.42 272.16Z" fill="#1C2529"/>
<path d="M171.815 258.593C171.826 258.422 171.974 258.292 172.145 258.303C172.316 258.314 172.446 258.462 172.435 258.632C171.601 271.416 168.085 283.747 162.68 294.102C157.269 304.469 149.963 312.858 141.556 317.746C141.407 317.831 141.218 317.78 141.132 317.633C141.046 317.484 141.097 317.295 141.244 317.209C149.549 312.381 156.773 304.079 162.131 293.815C167.496 283.536 170.987 271.291 171.815 258.593H171.815Z" fill="#1C2529"/>
<path d="M151.538 308.418C151.536 308.589 151.394 308.726 151.223 308.723C151.052 308.721 150.915 308.579 150.918 308.409C151.008 303.03 151.227 297.983 152.064 293.28C152.904 288.555 154.369 284.174 156.949 280.151C158.542 277.669 160.55 275.718 162.746 274.471C164.918 273.236 167.274 272.689 169.597 272.994C169.767 273.016 169.886 273.172 169.865 273.341C169.842 273.511 169.687 273.63 169.517 273.608C167.333 273.322 165.11 273.841 163.053 275.01C160.945 276.209 159.011 278.089 157.473 280.486C154.942 284.431 153.504 288.738 152.677 293.387C151.845 298.059 151.629 303.075 151.538 308.419V308.418Z" fill="#1C2529"/>
<path d="M141.093 320.382C141.113 320.212 141.267 320.09 141.437 320.109C141.607 320.129 141.729 320.283 141.711 320.453C141.089 325.889 140.312 334.077 139.536 342.264C138.758 350.487 137.978 358.71 137.363 364.088C137.343 364.258 137.189 364.381 137.019 364.361C136.849 364.341 136.727 364.188 136.746 364.018C137.368 358.581 138.144 350.394 138.92 342.206C139.699 333.984 140.478 325.76 141.094 320.382H141.093Z" fill="#1C2529"/>
<path d="M227.63 273.999C227.622 273.828 227.754 273.682 227.925 273.675C228.096 273.668 228.242 273.8 228.249 273.971C228.956 288.049 229.739 303.527 230.522 319.004C231.305 334.482 232.089 349.96 232.795 364.038C232.803 364.209 232.67 364.355 232.499 364.362C232.328 364.369 232.183 364.238 232.175 364.067C231.47 349.988 230.686 334.511 229.903 319.033C229.119 303.555 228.335 288.078 227.629 273.999H227.63Z" fill="#1C2529"/>
<path d="M181.294 265.924C181.307 265.754 181.456 265.626 181.627 265.638C181.798 265.651 181.927 265.8 181.914 265.971C180.77 280.957 179.403 298.025 178.032 315.119C176.624 332.692 175.212 350.294 174.046 365.623C174.034 365.794 173.884 365.923 173.713 365.91C173.542 365.896 173.414 365.748 173.427 365.577C174.597 350.196 176.006 332.618 177.413 315.07C178.785 297.95 180.155 280.856 181.295 265.924H181.294Z" fill="#1C2529"/>
<path d="M208.971 70.7144C207.926 68.8375 205.258 67.7863 202.975 68.3589C201.29 68.7811 199.922 69.9504 198.205 70.2671C198.746 70.8199 199.654 70.9819 200.475 70.8951C201.296 70.8083 202.068 70.5283 202.857 70.3297C204.835 69.8323 206.987 69.8886 208.971 70.7153V70.7144Z" fill="#4F191D"/>
<path d="M220.625 70.1052C221.663 68.2221 224.332 67.1655 226.608 67.7309C228.294 68.1469 229.668 69.3162 231.385 69.6204C230.849 70.1732 229.935 70.3351 229.121 70.2609C228.3 70.1804 227.528 69.9004 226.739 69.7018C224.761 69.2106 222.61 69.2732 220.625 70.1061V70.1052Z" fill="#4F191D"/>
<path d="M231.138 63.1863C228.047 61.5142 224.228 61.185 220.87 62.2908C220.261 62.4894 219.626 62.7694 219.266 63.2918C218.905 63.8143 218.973 64.1185 219.534 64.4235C220.025 64.691 220.635 64.4548 221.157 64.2553C223.632 63.3106 226.437 63.2238 228.962 64.0129C230.007 64.3421 231.295 64.7089 231.581 64.131C231.736 63.8143 231.518 63.4475 231.139 63.1863H231.138Z" fill="black"/>
<path d="M213.348 63.749C213.391 63.5835 213.56 63.4841 213.726 63.5271C213.891 63.57 213.991 63.7391 213.948 63.9046C213.5 65.6169 213.454 67.6333 213.706 69.6221C213.977 71.7673 214.595 73.8786 215.425 75.5417C215.853 76.4014 216.817 77.2978 217.728 78.1441C218.969 79.2973 220.118 80.3654 219.904 81.3522C219.892 81.4005 219.881 81.4533 219.865 81.5007C219.537 82.619 218.269 83.4375 216.899 83.9322C215.55 84.4198 214.078 84.6005 213.333 84.4413L213.223 84.4135C213.058 84.367 212.961 84.1961 213.008 84.0315C213.054 83.8669 213.225 83.7703 213.391 83.8168L213.462 83.8347C214.114 83.9743 215.443 83.7998 216.689 83.3498C217.901 82.9124 219.011 82.2209 219.272 81.3236C219.281 81.2905 219.291 81.2556 219.298 81.2216C219.438 80.5792 218.413 79.6265 217.307 78.5986C216.356 77.7147 215.349 76.778 214.871 75.819C214.011 74.0987 213.374 71.9167 213.093 69.6999C212.832 67.6369 212.881 65.5391 213.35 63.749H213.348Z" fill="#B0765D"/>
<path d="M231.062 77.7568C231.062 75.9542 229.146 74.4933 226.783 74.4933C224.42 74.4933 222.504 75.9542 222.504 77.7568C222.504 79.5595 224.42 81.0204 226.783 81.0204C229.146 81.0204 231.062 79.5595 231.062 77.7568Z" fill="#DB7356"/>
<path d="M206.328 77.5824C206.328 75.6116 204.231 74.0147 201.644 74.0147C199.057 74.0147 196.961 75.6125 196.961 77.5824C196.961 79.5523 199.057 81.1501 201.644 81.1501C204.231 81.1501 206.328 79.5523 206.328 77.5824Z" fill="#DB7356"/>
<path d="M210.258 87.8506C209.151 87.3971 208.317 88.9134 208.535 89.8394C210.227 97.261 215.668 97.2673 218.324 96.0614C220.613 95.0299 221.838 91.99 222.136 90.5166C222.36 89.4287 221.316 88.0054 220.47 88.1485C216.663 88.7953 213.006 88.9689 210.257 87.8381V87.8506H210.258Z" fill="#16151D"/>
<path d="M208.529 89.8465C208.672 90.4558 208.833 91.0149 209.021 91.5311C213.206 92.4141 219.419 92.0839 221.043 90.9594C221.628 90.5551 221.491 89.5486 221.317 88.8589C221.273 88.6665 221.224 88.4984 221.186 88.374C221.007 88.2497 220.826 88.1754 220.646 88.1566C220.59 88.1566 220.528 88.1566 220.466 88.1691C216.66 88.8159 213.002 88.9832 210.253 87.865C209.488 87.5545 208.86 88.1638 208.611 88.8839C208.493 89.2069 208.456 89.5611 208.525 89.8537L208.531 89.8474L208.529 89.8465Z" fill="white"/>
<path d="M208.616 88.8768C212.609 89.7159 218.555 89.8716 221.316 88.858C221.384 88.8329 221.273 88.5842 221.192 88.3731C221.179 88.3355 221.167 88.3105 221.154 88.2801C221.154 88.3114 221.167 88.3364 221.179 88.3668C220.999 88.2425 220.819 88.1682 220.639 88.1495C220.582 88.1495 220.521 88.1495 220.458 88.162C216.652 88.8088 212.994 88.9761 210.245 87.8569C209.48 87.5465 208.852 88.1557 208.604 88.8759H208.616V88.8768Z" fill="#F2F2F2"/>
<path d="M126.543 166.562C118.693 170.863 110.167 174.431 101.223 174.705C96.6513 174.848 91.5642 173.822 88.8832 170.123C86.5451 166.891 86.7187 162.36 88.3363 158.711C89.9538 155.068 92.8084 152.135 95.6756 149.362C104.563 140.778 114.179 132.952 124.385 125.991C137.638 116.952 153.237 109.115 169.091 111.601C172.238 112.092 175.46 113.074 177.724 115.318C179.988 117.562 180.274 121.011 179.217 124.013C173.401 140.479 142.72 157.691 126.543 166.561V166.562Z" fill="#EEAD8E"/>
<path d="M142.11 114.225C155.967 110.52 170.49 109.302 184.173 110.756C184.701 124.356 196.239 136.677 209.785 138.094C223.331 139.511 237.176 129.858 239.857 117.277C247.93 117.389 256.071 119.266 262.981 123.437C276.141 131.388 283.132 146.287 290.608 160.254C282.578 170.138 272.353 178.23 260.99 183.837C259.56 182.04 258.129 180.244 256.667 178.498C256.095 199.806 259.485 211.945 260.884 228.026C263.298 255.836 268.485 281.445 266.793 288.121C245.884 290.079 224.201 287.667 203.64 283.415C194.945 281.619 141.923 301.472 141.357 289.308C143.193 265.849 155.239 233.732 152.03 217.105C147.528 193.796 150.936 161.834 150.936 161.834C150.936 161.834 143.541 163.898 133.471 166.005C126.412 158.098 119.434 143.808 119.434 125.77C128.937 120.834 135.418 116.016 142.117 114.226H142.11V114.225Z" fill="#642AB6"/>
<path d="M212.94 99.2211C212.808 99.3311 212.612 99.3132 212.502 99.1826C212.392 99.0511 212.41 98.8552 212.54 98.7452C212.614 98.6834 212.693 98.6244 212.776 98.5689C213.414 98.1413 214.21 97.9955 214.965 98.1028C215.722 98.2102 216.445 98.5725 216.938 99.1594L216.954 99.1782C217.012 99.2488 217.066 99.3213 217.115 99.3938C217.21 99.536 217.172 99.7283 217.03 99.8232C216.887 99.918 216.695 99.8804 216.6 99.7382C216.561 99.6791 216.519 99.6237 216.478 99.5736L216.463 99.5575C216.072 99.0914 215.491 98.8033 214.879 98.7165C214.266 98.6298 213.627 98.7443 213.121 99.0824C213.061 99.1227 213 99.1692 212.94 99.2193V99.2211Z" fill="#B0765D"/>
<path d="M88.6161 172.212C91.4269 173.698 97.1307 174.207 101.043 172.946C104.949 171.691 105.595 168.446 108.276 165.332C118.426 153.534 124.354 140.997 131.569 124.152C137.695 109.849 142.894 94.5835 154.015 83.917C159.613 80.5354 159.918 78.0305 160.421 73.9842C161.733 71.5661 164.035 69.6579 166.037 67.7872C166.871 67.153 167.107 67.5761 167.847 66.8363C168.63 66.0535 169.968 64.0138 169.987 62.908C170.005 61.9633 168.774 60.7449 168.046 60.1419C167.318 59.5389 166.429 59.1659 165.527 58.7374C166.162 58.1344 166.939 57.0528 166.435 56.3318C166.049 55.7789 164.73 55.4863 164.102 55.2376C161.533 54.2241 158.815 53.5844 156.141 53.7893C154.89 52.6334 153.404 51.7692 151.893 50.9793C150.792 50.4014 149.927 50.3262 148.684 50.4264C147.446 50.5257 146.228 51.4454 146.109 52.714C146.109 52.6952 144.697 52.9814 144.417 54.063C144.137 55.1446 143.577 57.9483 143.403 59.0541C140.909 74.8359 136.866 79.1872 136.866 79.1872C136.866 79.1872 120.322 102.068 110.906 112.467C105.141 118.838 98.9953 124.967 94.4122 132.233C90.5496 138.362 84.8153 148.226 83.5406 155.356C81.625 166.06 85.151 170.368 88.6224 172.201L88.6161 172.213V172.212Z" fill="#EEAD8E"/>
<path d="M285.911 107.984C291.241 127.607 296.547 145.963 300.696 165.866C303.221 177.987 305.503 196.752 302.736 208.823C300.826 217.146 293.662 217.837 289.084 216.661C286.329 215.952 283.853 209.88 282.447 207.405C278.983 201.295 279.008 193.948 277.409 187.11C270.232 156.528 271.812 135.295 269.23 109.431C265.437 105.372 263.055 100.331 263.11 94.613C260.921 93.289 259.335 91.4863 258.172 89.2113C257.817 88.5091 257.556 87.7317 257.593 86.9426C257.631 86.1536 258.395 84.7795 259.391 84.5433C258.788 83.909 259.111 83.0269 259.459 82.2244C259.807 81.4229 260.467 80.5211 261.324 80.6392C260.385 80.2474 259.869 79.1595 260.242 78.2148C260.615 77.2701 261.088 77.0715 262.071 76.8103C263.054 76.5428 264.44 76.4497 265.592 76.5177C264.889 75.2563 265.697 74.0379 266.954 73.3231C268.714 72.322 275.413 72.9008 277.783 72.9008C279.517 72.9008 282.086 72.9196 283.741 73.417C288.654 74.8904 281.626 92.1761 285.924 107.995L285.911 107.983V107.984Z" fill="#EEAD8E"/>
<path d="M267.918 107.779C268 107.929 267.945 108.118 267.795 108.2C267.645 108.283 267.456 108.228 267.373 108.078C265.852 105.313 264.649 102.374 263.762 99.3374C262.856 96.2286 262.283 93.0215 262.042 89.8009C262.029 89.63 262.157 89.4806 262.329 89.4681C262.5 89.4555 262.65 89.5835 262.662 89.7543C262.9 92.9365 263.465 96.1016 264.358 99.1647C265.229 102.155 266.416 105.052 267.917 107.779H267.918Z" fill="#B0765D"/>
<path d="M263.312 94.3823C263.44 94.4959 263.451 94.6927 263.338 94.8206C263.224 94.9486 263.027 94.9602 262.899 94.8457C262.033 94.0763 261.16 93.3007 260.34 92.4633C259.515 91.6224 258.754 90.7269 258.123 89.733L258.11 89.7115C257.851 89.3036 257.615 88.8634 257.458 88.4045C257.291 87.9214 257.211 87.4151 257.281 86.9024C257.373 86.2324 257.706 85.6589 258.17 85.1848C258.702 84.6409 259.409 84.2285 260.115 83.9574C260.67 83.7445 261.24 83.5888 261.811 83.434C262.52 83.2408 263.229 83.0476 263.886 82.747C264.041 82.6763 264.225 82.7443 264.296 82.9C264.367 83.0556 264.299 83.239 264.143 83.3106C263.444 83.6309 262.708 83.8312 261.974 84.0316C261.418 84.1837 260.861 84.3349 260.337 84.5362C259.707 84.7777 259.08 85.1419 258.616 85.6178C258.239 86.0025 257.97 86.4623 257.897 86.9874C257.842 87.3936 257.909 87.8042 258.047 88.2041C258.186 88.6147 258.4 89.011 258.635 89.3805L258.649 89.4011C259.256 90.3574 259.99 91.2189 260.784 92.0294C261.582 92.8444 262.452 93.6165 263.314 94.3823H263.312Z" fill="#B0765D"/>
<path d="M259.651 84.3813C259.74 84.5271 259.695 84.7177 259.549 84.8072C259.404 84.8966 259.213 84.8519 259.123 84.7061C258.777 84.1434 258.723 83.4867 258.875 82.8596C259.037 82.1913 259.437 81.5526 259.964 81.1053C260.453 80.6902 261.014 80.4048 261.606 80.1865C262.176 79.9763 262.782 79.8287 263.376 79.6855C264.274 79.4708 265.173 79.257 266.096 79.0128C266.995 78.7766 267.889 78.5181 268.771 78.2193C268.933 78.1647 269.11 78.2515 269.165 78.4134C269.22 78.5753 269.133 78.7515 268.971 78.807C268.075 79.1103 267.167 79.3724 266.255 79.6131C265.368 79.8466 264.443 80.0675 263.519 80.2885C262.951 80.4254 262.371 80.5667 261.819 80.7698C261.289 80.9648 260.79 81.218 260.364 81.5794C259.934 81.9444 259.608 82.4633 259.477 83.0063C259.361 83.4813 259.398 83.9725 259.65 84.3813H259.651Z" fill="#B0765D"/>
<path d="M272.665 74.3117C272.834 74.2839 272.994 74.3975 273.022 74.5666C273.05 74.7357 272.936 74.8958 272.767 74.9236C271.595 75.1213 270.431 75.3718 269.28 75.6741C268.134 75.9747 267 76.3281 265.887 76.7307C265.702 76.7978 265.518 76.8658 265.335 76.9364C265.271 77.0134 265.171 77.0581 265.063 77.0465H265.061C264.85 77.1324 264.643 77.2227 264.44 77.3193C263.984 77.5385 263.546 77.7935 263.152 78.1111C262.749 78.4349 262.393 78.8339 262.12 79.3063C261.871 79.7366 261.69 80.2304 261.605 80.7877C261.579 80.9577 261.421 81.074 261.251 81.049L261.226 81.0445C260.811 80.9702 260.447 80.735 260.179 80.4147C259.903 80.0837 259.728 79.6569 259.706 79.2231C259.685 78.8187 259.779 78.4233 259.957 78.0663C260.141 77.6933 260.418 77.3605 260.746 77.1046C261.042 76.8738 261.374 76.7021 261.723 76.5795C262.108 76.4435 262.516 76.3657 262.92 76.3308H262.929C263.298 76.3022 263.669 76.3066 264.04 76.329C264.354 76.3478 264.667 76.38 264.977 76.414C265.209 76.3218 265.444 76.2342 265.677 76.1501C266.809 75.7404 267.96 75.3825 269.124 75.0766C270.294 74.7697 271.476 74.5147 272.666 74.3143L272.665 74.3117ZM262.763 77.6271C263.093 77.3614 263.45 77.135 263.823 76.9364C263.54 76.9248 263.257 76.9248 262.975 76.9472H262.97C262.613 76.9785 262.258 77.0456 261.928 77.1619C261.637 77.2648 261.364 77.4043 261.127 77.5904C260.871 77.7899 260.656 78.0484 260.512 78.3383C260.38 78.604 260.309 78.8956 260.324 79.1891C260.34 79.4897 260.462 79.7858 260.655 80.0166C260.768 80.1517 260.904 80.2626 261.056 80.3386C261.169 79.8448 261.349 79.3957 261.581 78.994C261.895 78.4528 262.301 77.9966 262.762 77.6271H262.763Z" fill="#B0765D"/>
<path d="M265.793 76.1456C265.903 76.2762 265.887 76.4721 265.756 76.5831C265.625 76.694 265.429 76.677 265.318 76.5464C265.283 76.5052 265.248 76.4578 265.213 76.4068C264.909 75.9604 264.861 75.4129 264.993 74.8931C265.12 74.393 265.419 73.9117 265.818 73.5727C265.878 73.5226 265.944 73.4716 266.016 73.4233C266.484 73.1057 267.01 72.933 267.556 72.8355C268.08 72.7416 268.627 72.7174 269.157 72.6987C271.522 72.6146 273.891 72.5323 276.278 72.5546C278.667 72.577 281.063 72.7049 283.469 73.0422C283.949 73.095 284.381 73.307 284.743 73.6129C285.133 73.944 285.443 74.3886 285.637 74.8609C285.818 75.2984 285.915 75.7573 285.965 76.2225C286.013 76.6725 286.019 77.1314 286.015 77.5832C286.016 79.3581 285.929 81.1411 285.76 82.9231C285.589 84.7213 285.333 86.5087 284.997 88.2756C284.966 88.4438 284.803 88.5547 284.635 88.5234C284.466 88.4921 284.355 88.3302 284.387 88.1611C284.72 86.4077 284.974 84.639 285.142 82.8641C285.309 81.1169 285.394 79.3537 285.394 77.5823H285.395C285.397 77.1511 285.393 76.7146 285.347 76.2869C285.302 75.8745 285.219 75.4719 285.063 75.0953C284.905 74.7124 284.656 74.3519 284.341 74.0862C284.068 73.8545 283.746 73.6953 283.396 73.6577H283.385C281.002 73.3222 278.632 73.1952 276.271 73.1728C273.906 73.1504 271.54 73.2327 269.177 73.3168C268.676 73.3347 268.159 73.358 267.664 73.4457C267.191 73.5298 266.744 73.6738 266.36 73.9341C266.315 73.9654 266.266 74.0021 266.216 74.045C265.915 74.3009 265.69 74.665 265.593 75.0443C265.502 75.404 265.529 75.7716 265.723 76.0579C265.74 76.0839 265.762 76.1125 265.789 76.1438L265.793 76.1456Z" fill="#B0765D"/>
<path d="M156.226 78.2603C156.185 78.4267 156.015 78.5278 155.849 78.4867C155.682 78.4455 155.581 78.2764 155.622 78.11C156.16 75.9871 156.613 73.8428 156.992 71.7163C157.4 69.4234 157.722 67.1556 157.966 64.9611C157.982 64.8135 158.1 64.7007 158.243 64.6864L162.766 63.9555C162.935 63.9287 163.093 64.0441 163.12 64.2132C163.147 64.3823 163.032 64.5406 162.862 64.5674L158.556 65.2635C158.313 67.4034 157.999 69.605 157.603 71.8227C157.222 73.9617 156.765 76.1204 156.224 78.2603H156.226Z" fill="#B0765D"/>
<path d="M157.758 69.8145C157.648 69.6839 157.664 69.488 157.794 69.377C157.925 69.2661 158.121 69.2831 158.232 69.4137C158.421 69.6365 158.685 69.7787 158.975 69.8503C159.308 69.9317 159.674 69.9209 160.01 69.8306C160.343 69.7402 160.655 69.5855 160.951 69.3976C161.257 69.2035 161.549 68.9727 161.834 68.7392L161.84 68.7338C162.628 68.0825 163.383 67.3946 164.098 66.6726C164.806 65.9578 165.479 65.2064 166.112 64.4209C166.355 64.1212 166.595 63.8081 166.782 63.4851C166.962 63.1729 167.097 62.8428 167.141 62.4939C167.226 61.8507 167.005 61.2432 166.631 60.693C166.24 60.116 165.681 59.5998 165.125 59.166C164.003 58.2955 162.8 57.5378 161.539 56.9044C160.271 56.2683 158.94 55.7539 157.57 55.3728C157.405 55.3272 157.307 55.1563 157.353 54.9917C157.399 54.8271 157.57 54.7305 157.734 54.7752C159.142 55.1662 160.51 55.6949 161.815 56.3506C163.12 57.0055 164.358 57.7847 165.505 58.6766C166.105 59.1445 166.709 59.7072 167.143 60.3468C167.595 61.0133 167.862 61.7621 167.755 62.5735C167.699 63.0128 167.535 63.4171 167.318 63.7938C167.107 64.1597 166.85 64.4942 166.595 64.81C165.949 65.6107 165.262 66.3783 164.537 67.1101C163.803 67.8517 163.034 68.5531 162.235 69.2124L162.227 69.2196C161.927 69.4647 161.617 69.7098 161.283 69.9209C160.938 70.1392 160.571 70.3199 160.172 70.4282C159.739 70.5454 159.262 70.5579 158.826 70.4515C158.416 70.3504 158.037 70.1419 157.758 69.8136V69.8145Z" fill="#B0765D"/>
<path d="M164.11 67.2782C164.012 67.1378 164.048 66.9445 164.188 66.847C164.329 66.7495 164.522 66.7853 164.62 66.9257C164.833 67.2344 165.177 67.4106 165.555 67.4706C165.988 67.5386 166.46 67.4571 166.845 67.2478C167.232 67.0331 167.554 66.7262 167.833 66.3738C168.12 66.0106 168.364 65.5946 168.587 65.1795C168.783 64.8073 168.972 64.4235 169.108 64.0344C169.241 63.6559 169.326 63.2686 169.323 62.8758C169.32 62.3588 169.162 61.8578 168.901 61.4015C168.607 60.8853 168.183 60.4282 167.706 60.0704C167.245 59.7241 166.729 59.4495 166.189 59.2124C165.638 58.97 165.068 58.7696 164.505 58.5737C164.344 58.5173 164.258 58.3411 164.315 58.1791C164.371 58.0172 164.548 57.9322 164.709 57.9886C165.291 58.1908 165.879 58.3974 166.44 58.6443C167.014 58.8966 167.569 59.1936 168.077 59.5747C168.62 59.9818 169.104 60.5033 169.441 61.0956C169.751 61.6377 169.94 62.2416 169.942 62.8732C169.946 63.3437 169.848 63.7991 169.694 64.2383C169.544 64.6669 169.344 65.0757 169.136 65.4684H169.135C168.898 65.9122 168.636 66.3568 168.319 66.7576C167.993 67.17 167.612 67.5314 167.146 67.789H167.143C166.64 68.0655 166.023 68.1719 165.458 68.0825C164.921 67.9975 164.427 67.7372 164.11 67.2773V67.2782Z" fill="#B0765D"/>
<path d="M165.724 58.7588C165.56 58.808 165.387 58.7158 165.337 58.5521C165.288 58.3884 165.38 58.2157 165.544 58.1656C165.755 58.1012 165.923 57.9393 166.03 57.7362C166.149 57.5099 166.191 57.2361 166.139 56.9838C166.089 56.7414 165.969 56.5213 165.807 56.3299C165.617 56.1062 165.371 55.9211 165.106 55.7851C164.588 55.5185 163.979 55.4093 163.38 55.3029C160.881 54.8842 158.381 54.4217 155.884 53.9815C155.715 53.952 155.602 53.791 155.632 53.6219C155.661 53.4528 155.822 53.3401 155.991 53.3696C158.49 53.8098 160.99 54.2454 163.488 54.691C164.132 54.8055 164.788 54.9227 165.391 55.2331C165.724 55.4049 166.037 55.6401 166.281 55.9291C166.507 56.1957 166.674 56.507 166.747 56.8568C166.828 57.2487 166.763 57.6727 166.579 58.0225C166.399 58.3651 166.106 58.6416 165.724 58.7579L165.724 58.7588Z" fill="#B0765D"/>
<path d="M157.89 54.6516C158.055 54.6964 158.152 54.8664 158.107 55.0319C158.063 55.1965 157.893 55.294 157.727 55.2492C156.245 54.844 155.041 53.8671 153.871 52.9188L153.677 52.7622C153.081 52.2827 152.458 51.8077 151.802 51.4337C151.159 51.0669 150.48 50.7941 149.754 50.7037H149.747C149.009 50.6161 148.213 50.795 147.573 51.1993C147.004 51.5599 146.563 52.1011 146.413 52.7918C146.38 52.9456 146.238 53.0485 146.084 53.036C145.871 53.0181 145.66 53.0789 145.472 53.189C145.25 53.3196 145.056 53.5173 144.918 53.7409C144.643 54.1865 144.534 54.7438 144.43 55.285L144.422 55.3244C143.974 57.7246 143.523 60.1258 143.073 62.5251L141.974 68.3794C141.943 68.5476 141.781 68.6585 141.613 68.6272C141.444 68.5959 141.333 68.434 141.365 68.2649L142.463 62.4106C142.913 60.0113 143.364 57.6101 143.813 55.2099L143.82 55.1687C143.936 54.5729 144.055 53.9601 144.39 53.4153C144.579 53.1093 144.847 52.8365 145.159 52.654C145.378 52.5261 145.618 52.4411 145.869 52.4178C146.099 51.6681 146.607 51.0777 147.243 50.6751C148 50.1956 148.946 49.9836 149.818 50.0865H149.829C150.646 50.1893 151.4 50.4917 152.108 50.8952C152.803 51.2915 153.449 51.7835 154.066 52.28L154.262 52.4393C155.382 53.3473 156.536 54.2831 157.89 54.6534V54.6516Z" fill="#B0765D"/>
<path d="M165.527 67.7541C165.637 67.6235 165.833 67.6074 165.964 67.7175C166.094 67.8284 166.111 68.0234 166 68.1549L165.933 68.2336C164.273 70.1946 162.608 72.161 160.621 74.0719C160.819 75.5238 160.516 76.9418 159.903 78.2622C159.151 79.8824 157.932 81.3585 156.611 82.5662C155.815 83.2953 154.984 83.9636 154.154 84.6309C152.486 85.9738 150.819 87.3148 149.575 89.028C149.475 89.1666 149.281 89.1979 149.142 89.0968C149.003 88.9966 148.972 88.8016 149.072 88.6629C150.363 86.8854 152.063 85.5175 153.766 84.147C154.595 83.4787 155.426 82.8104 156.193 82.109C157.457 80.9514 158.624 79.5424 159.339 78.0019C159.926 76.7369 160.207 75.3834 159.984 74.011C159.968 73.9126 159.999 73.808 160.076 73.7346C162.089 71.8148 163.776 69.8216 165.46 67.8338L165.527 67.755V67.7541Z" fill="#B0765D"/>
<path d="M136.775 110.046C136.841 109.888 137.023 109.814 137.181 109.88C137.338 109.947 137.412 110.128 137.346 110.286C136.023 113.426 134.714 116.664 133.394 119.927C128.194 132.783 122.836 146.032 114.852 157.68C114.755 157.822 114.562 157.858 114.421 157.762C114.279 157.665 114.242 157.472 114.339 157.331C122.286 145.736 127.631 132.52 132.818 119.696C134.128 116.457 135.428 113.241 136.774 110.045L136.775 110.046Z" fill="#B0765D"/>
<path d="M213.685 54.8011C214.401 49.6169 210.059 42.0771 206.327 40.89C202.595 39.7028 190.747 46.8015 188.645 50.108C186.81 52.9922 185.348 55.2297 184.571 58.2257C183.315 63.0557 184.621 68.2265 184.621 68.2265C184.621 68.2265 180.815 69.886 185.212 77.7309C186.916 80.7708 180.634 85.2644 180.703 88.7453C180.796 93.0591 175.709 95.8995 175.068 100.17C174.62 103.154 176.461 105.97 178.352 108.326C180.243 110.681 180.877 114.125 181.164 117.128C181.45 120.117 181.345 121.914 180.411 124.767C179.478 127.62 179.516 131.356 182.059 132.947C183.097 133.6 185.909 136.359 186.213 137.286C188.291 143.514 185.566 144.347 184.235 147.716C183.725 149.003 183.216 150.426 183.688 151.726C184.695 154.498 191.855 157.425 192.632 160.267C194.566 167.303 188.178 173.942 189.211 174.712C191.189 176.185 204.642 167.819 203.696 160.752C203.074 156.134 199.001 155.642 197.589 151.204C196.551 147.941 199.747 144.827 200.22 141.433C201.252 134.012 196.078 134.478 196.078 128.616C196.078 122.755 203.69 124.353 200.22 115.706C198.827 112.244 191.811 109.938 191.382 106.233C190.58 99.3402 193.602 98.7497 194.884 95.2438C196.165 91.7378 195.325 88.4805 192.987 85.5721C190.991 83.0923 190.891 80.7421 190.667 77.5663C190.139 70.1195 196.252 67.7766 196.967 63.0772C197.532 59.3413 197.956 54.6544 202.857 51.4973C206.445 49.1785 210.886 51.9885 213.692 54.7913L213.685 54.8038V54.8011Z" fill="black"/>
<path d="M191.084 72.933C190.649 71.9382 190.152 70.9255 189.163 70.1668C188.167 69.4145 186.544 68.9922 185.169 69.4145C183.528 69.9244 182.906 71.3477 182.657 72.6029C182.258 74.6292 182.308 76.7181 183.192 78.6263C184.075 80.5407 185.842 82.2629 188.323 83.2076C188.802 83.3874 189.355 83.5493 189.897 83.45C190.911 83.2639 191.246 82.3622 191.358 81.6286C191.818 78.6137 192.198 75.4746 191.084 72.933Z" fill="#EEAD8E"/>
<path d="M187.158 79.1909C187.29 79.301 187.307 79.4969 187.196 79.6284C187.086 79.7599 186.89 79.7769 186.759 79.6669C186.088 79.105 185.553 78.3912 185.188 77.6003C184.824 76.8113 184.629 75.9435 184.639 75.0721C184.638 74.7215 184.677 74.3609 184.774 74.0174C184.862 73.7088 184.996 73.4153 185.192 73.1568L185.204 73.1425C185.433 72.8499 185.754 72.6191 186.103 72.4993C186.444 72.3821 186.815 72.3686 187.161 72.5019C187.32 72.5628 187.4 72.7417 187.339 72.9018C187.278 73.0611 187.099 73.1416 186.939 73.0799C186.739 73.0029 186.515 73.0145 186.303 73.087C186.067 73.1684 185.848 73.325 185.692 73.5236L185.685 73.5316C185.54 73.7249 185.438 73.9485 185.369 74.1865C185.289 74.4683 185.258 74.7725 185.258 75.0721V75.0748C185.248 75.854 185.422 76.6323 185.75 77.3409C186.077 78.0503 186.556 78.6899 187.155 79.1918L187.158 79.1909Z" fill="#B0765D"/>
<path d="M213.718 52.1306C213.796 52.2827 213.735 52.4697 213.583 52.5475C213.431 52.6253 213.243 52.5645 213.166 52.4124C212.28 50.6903 210.708 49.4119 208.861 48.5656C206.741 47.5958 204.262 47.195 202.031 47.3471C199.951 47.4885 197.946 48.2981 196.288 49.564C194.626 50.8316 193.314 52.5555 192.626 54.5246C191.886 56.6412 191.818 58.9466 191.751 61.2422C191.671 63.9779 191.591 66.702 190.398 69.1586C190.324 69.3125 190.138 69.3778 189.984 69.3026C189.83 69.2284 189.765 69.0423 189.84 68.8884C190.976 66.549 191.054 63.8929 191.132 61.2243C191.2 58.8804 191.269 56.5267 192.04 54.3197C192.771 52.2335 194.156 50.4094 195.912 49.0701C197.664 47.7327 199.787 46.8775 201.991 46.7272C204.317 46.5688 206.904 46.9866 209.119 48.0011C211.086 48.902 212.764 50.2734 213.719 52.1297L213.718 52.1306Z" fill="#1C2529"/>
<path d="M187.52 84.7079C187.453 84.5504 187.527 84.3688 187.685 84.3026C187.843 84.2364 188.024 84.3106 188.091 84.4681C190.244 89.579 189.321 93.1887 188.414 96.7314C187.564 100.05 186.731 103.309 188.582 107.703C188.977 108.641 189.857 110.149 190.736 111.655C191.623 113.175 192.51 114.696 192.924 115.678C194.022 118.286 192.902 120.852 191.76 123.469C191.237 124.666 190.71 125.874 190.402 127.087C189.732 129.731 191.123 132.215 192.542 134.751C193.696 136.813 194.869 138.908 195.038 141.206C195.144 142.653 194.839 144.056 194.533 145.463C194.312 146.479 194.09 147.498 194.031 148.511C193.871 151.324 194.436 152.848 195.203 154.909C195.491 155.685 195.808 156.537 196.12 157.54C196.716 159.454 197.066 161.664 196.686 164.119C196.305 166.568 195.198 169.254 192.882 172.123C192.774 172.256 192.579 172.278 192.446 172.17C192.312 172.063 192.291 171.868 192.398 171.735C194.64 168.959 195.709 166.374 196.075 164.025C196.438 161.682 196.101 159.564 195.528 157.725C195.214 156.715 194.905 155.884 194.623 155.125C193.831 152.993 193.246 151.416 193.412 148.478C193.475 147.408 193.701 146.37 193.927 145.334C194.224 143.969 194.521 142.61 194.42 141.251C194.261 139.091 193.123 137.058 192.003 135.056C190.522 132.411 189.071 129.819 189.801 126.938C190.121 125.679 190.66 124.445 191.193 123.223C192.283 120.728 193.35 118.283 192.354 115.92C191.96 114.981 191.08 113.474 190.201 111.967C189.313 110.448 188.426 108.927 188.013 107.944C186.079 103.356 186.938 99.9985 187.813 96.5802C188.695 93.1351 189.593 89.6255 187.522 84.7096L187.52 84.7079Z" fill="#1C2529"/>
<path d="M213.719 52.1297C213.798 52.2818 213.738 52.4688 213.585 52.5475C213.433 52.6262 213.246 52.5663 213.167 52.4142C212.073 50.2895 210.698 48.2838 209.06 46.5474C207.549 44.9433 205.811 43.5683 203.863 42.5386C201.791 41.4436 199.466 40.7771 197.129 40.634C194.91 40.498 192.681 40.8335 190.648 41.7219C188.53 42.6505 186.685 44.2259 185.404 46.1475C184.171 47.9949 183.461 50.1607 183.532 52.3749C183.574 53.698 183.875 55.0247 184.174 56.3451C184.617 58.3034 185.058 60.2501 184.69 62.2361C184.106 65.404 181.686 67.687 179.277 69.9575C176.833 72.2629 174.4 74.5567 174.058 77.6968C173.784 80.2267 174.968 82.6118 176.145 84.9825C176.517 85.7331 176.89 86.4827 177.225 87.2566C178.728 90.7312 179.239 94.596 178.813 98.3515C178.388 102.107 177.027 105.756 174.784 108.801C174.682 108.939 174.488 108.97 174.35 108.869C174.212 108.767 174.182 108.573 174.283 108.435C176.461 105.478 177.783 101.933 178.197 98.2835C178.61 94.6291 178.115 90.8735 176.656 87.5017C176.337 86.7645 175.963 86.0113 175.588 85.2571C174.371 82.8059 173.146 80.3404 173.441 77.6315C173.806 74.2633 176.323 71.8908 178.852 69.5066C181.187 67.305 183.534 65.0926 184.081 62.1252C184.425 60.2635 183.998 58.3777 183.569 56.4811C183.264 55.132 182.957 53.7767 182.912 52.3945C182.837 50.0453 183.586 47.7551 184.886 45.8057C186.232 43.7875 188.172 42.1316 190.4 41.1547C192.527 40.2252 194.854 39.8736 197.166 40.0158C199.592 40.1643 202.004 40.8559 204.152 41.9911C206.164 43.0539 207.954 44.4719 209.512 46.1233C211.191 47.9036 212.599 49.9567 213.719 52.1306V52.1297Z" fill="#1C2529"/>
<path d="M213.684 54.8011C214.486 52.9609 217.908 46.0366 224.773 49.5676C228.972 51.7245 227.529 56.7782 229.587 60.3709C230.477 61.9249 232.971 63.1058 234.041 64.5416C239.781 72.2057 231.634 79.8019 234.762 86.0731C236.031 88.6093 236.566 89.0879 238.047 91.506C240.087 94.825 239.496 99.0646 238.799 102.894C238.426 104.926 238.047 107.033 238.582 109.029C239.546 112.622 243.297 115.145 243.638 118.844C244.037 123.189 239.645 126.402 238.234 130.529C236.616 135.271 239.123 140.312 241.219 144.869C243.315 149.425 244.945 155.131 241.94 159.147C245.193 159.806 248.316 156.928 249.136 153.72C249.964 150.506 249.105 147.131 248.223 143.936C247.333 140.742 246.4 137.404 247.072 134.159C248.341 128.018 254.785 124.307 257.26 118.551C259.785 112.683 257.695 105.771 254.218 100.407C252.035 97.0383 249.193 93.5887 249.541 89.5916C249.957 84.8054 254.94 80.6723 253.577 76.066C252.9 73.7722 250.778 72.1682 249.945 69.9307C248.147 65.1195 252.799 59.2455 250.094 54.8825C248.334 52.0484 244.267 51.4454 242.326 48.7285C240.522 46.1923 236.841 50.4694 235.833 47.5226C234.477 43.5568 230.111 38.6462 226.056 39.7153C222.834 40.567 224.003 37.9565 220.708 37.4841C218.941 37.2292 217.467 36.0733 215.925 35.1841C214.382 34.2949 212.442 33.649 210.849 34.4568C208.654 35.5759 212.174 39.9202 209.923 40.9212C203.299 43.8672 206.938 46.0053 209.021 47.3177C211.104 48.6292 213.959 52.7873 213.691 54.8136L213.685 54.8011H213.684Z" fill="black"/>
<path d="M247.548 156.623C247.586 156.79 247.482 156.957 247.314 156.994C247.147 157.033 246.98 156.928 246.943 156.761C245.815 151.91 244.691 146.928 244.2 141.953C243.709 136.963 243.856 131.988 245.28 127.179C245.919 125.024 246.8 122.961 247.68 120.9C248.72 118.465 249.761 116.032 250.383 113.48C251.102 110.541 251.236 107.466 250.815 104.469C250.395 101.475 249.42 98.5573 247.92 95.9289C247.101 94.494 246.121 93.1127 245.143 91.7341C242.95 88.645 240.766 85.5667 240.325 81.8326V81.8218C240.016 79.1783 240.626 76.4452 241.225 73.7569C242.084 69.9101 242.922 66.1545 240.919 63.0288C239.965 61.5366 238.456 60.4228 236.962 59.3215C234.966 57.849 232.997 56.3961 232.276 54.0388C231.979 53.0664 231.948 52.0653 231.918 51.0634C231.893 50.2555 231.868 49.4468 231.697 48.6685C231.644 48.4243 231.576 48.1881 231.494 47.9609C230.878 46.2289 229.477 44.9058 227.766 44.1149C226.042 43.3178 224.007 43.062 222.14 43.469C221.82 43.5388 221.505 43.6283 221.2 43.7365C219.119 44.4764 217.656 45.5401 216.548 46.9643C215.429 48.4028 214.659 50.2171 213.974 52.442C213.923 52.6057 213.75 52.6969 213.586 52.6468C213.458 52.6075 213.374 52.493 213.368 52.3659C213.26 51.228 213.073 50.1536 212.894 49.1248C212.409 46.3363 211.98 43.8743 213.268 40.9498L213.276 40.9319C214.204 38.8314 215.924 36.9795 217.944 35.9096C219.808 34.9219 221.931 34.5945 223.935 35.3397C226.569 36.3175 228.114 38.6695 229.675 41.0446C230.972 43.0173 232.28 45.0087 234.217 46.1609C235.519 46.9365 237.069 47.3087 238.604 47.6773C240.798 48.2042 242.964 48.724 244.469 50.3897C246.407 52.5386 246.318 55.4827 246.228 58.4493C246.146 61.1349 246.065 63.8402 247.543 65.8602C248.255 66.8309 249.281 67.5528 250.302 68.2721C251.543 69.1452 252.778 70.0148 253.528 71.3495C254.076 72.322 254.279 73.408 254.25 74.5129C254.215 75.8127 253.858 77.1395 253.364 78.3382C253.032 79.1443 252.647 79.9199 252.263 80.6937C251.616 81.9945 250.97 83.2944 250.61 84.6756C249.315 89.6613 251.823 94.7337 254.166 99.4698L254.73 100.617C255.994 103.197 257.109 106.121 257.487 108.988C257.87 111.891 257.499 114.733 255.773 117.109C255.673 117.247 255.478 117.279 255.339 117.178C255.2 117.078 255.169 116.883 255.27 116.745C256.89 114.514 257.235 111.824 256.872 109.069C256.504 106.278 255.411 103.418 254.174 100.89L253.609 99.7453C251.217 94.9091 248.656 89.7311 250.009 84.5209C250.386 83.0743 251.046 81.7476 251.706 80.42C252.088 79.6515 252.47 78.8822 252.791 78.1029C253.259 76.9668 253.597 75.7143 253.63 74.4995C253.657 73.4993 253.476 72.5215 252.987 71.6537C252.306 70.4415 251.128 69.6131 249.945 68.7802C248.883 68.0323 247.815 67.2809 247.043 66.2279C245.438 64.037 245.523 61.2244 245.607 58.4332C245.693 55.591 245.779 52.7712 244.008 50.8057C242.632 49.2813 240.56 48.7839 238.461 48.2802C236.879 47.9009 235.281 47.5171 233.899 46.6932C231.842 45.4685 230.494 43.4171 229.158 41.3846C227.653 39.0953 226.164 36.8284 223.719 35.9203C221.897 35.2431 219.951 35.5482 218.233 36.4589C216.332 37.4662 214.715 39.208 213.843 41.1851L213.837 41.2003C212.624 43.953 213.037 46.33 213.506 49.021C213.614 49.6374 213.724 50.2699 213.819 50.9319C214.423 49.2285 215.121 47.7864 216.058 46.5832C217.239 45.065 218.79 43.9342 220.994 43.1515C221.326 43.0334 221.667 42.9367 222.009 42.8616C224.008 42.4259 226.183 42.6997 228.027 43.5513C229.881 44.4093 231.404 45.8532 232.081 47.7542C232.171 48.0083 232.246 48.2704 232.304 48.5379C232.485 49.3609 232.512 50.2046 232.538 51.0464C232.568 52.0072 232.598 52.9671 232.869 53.859C233.529 56.0186 235.417 57.4115 237.332 58.8232C238.869 59.9576 240.424 61.1054 241.442 62.696C243.582 66.0382 242.717 69.9164 241.831 73.8902C241.242 76.5266 240.644 79.206 240.942 81.7521V81.7592C241.366 85.3385 243.504 88.3507 245.649 91.3745C246.637 92.7665 247.627 94.1612 248.461 95.6221C250.001 98.3193 251 101.312 251.431 104.383C251.862 107.456 251.724 110.609 250.986 113.625C250.351 116.23 249.301 118.685 248.252 121.142C247.379 123.187 246.504 125.234 245.877 127.352C244.477 132.077 244.333 136.974 244.818 141.891C245.304 146.824 246.424 151.788 247.548 156.621V156.623Z" fill="#1C2529"/>
<path d="M270.571 125.783C270.562 125.612 270.693 125.466 270.865 125.457C271.036 125.448 271.182 125.58 271.191 125.751C271.417 130.077 271.551 134.297 271.683 138.414C272.204 154.744 272.672 169.443 278.65 183.784C278.716 183.942 278.641 184.124 278.483 184.189C278.325 184.255 278.143 184.18 278.077 184.022C272.057 169.579 271.586 154.825 271.063 138.433C270.932 134.332 270.798 130.127 270.572 125.782L270.571 125.783Z" fill="#B0765D"/>
<path d="M248.781 165.921C248.702 165.769 248.762 165.582 248.914 165.504C249.066 165.425 249.253 165.485 249.332 165.637C250.981 168.812 252.827 171.885 254.853 174.836C256.889 177.805 259.109 180.651 261.493 183.357C261.606 183.486 261.594 183.682 261.465 183.796C261.336 183.909 261.14 183.897 261.026 183.768C258.63 181.047 256.395 178.18 254.341 175.186C252.302 172.215 250.442 169.12 248.781 165.921V165.921Z" fill="#1C2529"/>
<path d="M156.933 160.148C157.098 160.101 157.271 160.196 157.317 160.361C157.364 160.526 157.269 160.699 157.103 160.745C153.063 161.904 148.824 162.84 144.575 163.78C140.971 164.576 137.36 165.375 133.824 166.322C133.7 166.355 133.573 166.308 133.498 166.213L131.28 163.59C130.539 162.713 129.797 161.834 129.054 160.957C128.943 160.827 128.96 160.631 129.091 160.52C129.221 160.409 129.417 160.426 129.528 160.557C130.271 161.433 131.013 162.311 131.755 163.189L133.854 165.672C137.31 164.752 140.879 163.963 144.441 163.176C148.665 162.242 152.879 161.311 156.932 160.149L156.933 160.148Z" fill="#1C2529"/>
<path d="M261.379 183.709C261.219 183.772 261.038 183.693 260.977 183.533C260.914 183.373 260.993 183.193 261.153 183.131C261.819 182.871 262.468 182.562 263.094 182.21C263.729 181.852 264.337 181.452 264.91 181.016C265.046 180.913 265.24 180.939 265.344 181.075C265.447 181.211 265.421 181.405 265.284 181.509C264.682 181.967 264.05 182.383 263.397 182.751C262.748 183.116 262.073 183.437 261.379 183.709Z" fill="#1C2529"/>
<path d="M208.791 140.741C208.62 140.728 208.492 140.579 208.505 140.408C208.517 140.237 208.667 140.109 208.838 140.122C211.501 140.328 214.183 140.256 216.827 139.912C219.471 139.567 222.081 138.951 224.598 138.069C224.76 138.012 224.936 138.098 224.992 138.259C225.049 138.421 224.963 138.597 224.802 138.654C222.245 139.549 219.594 140.176 216.907 140.526C214.217 140.877 211.492 140.95 208.792 140.741H208.791Z" fill="#1C2529"/>
<path d="M226.937 137.546C226.784 137.621 226.597 137.556 226.523 137.402C226.449 137.248 226.513 137.062 226.667 136.988C227.621 136.526 228.546 136.001 229.43 135.417C230.31 134.836 231.15 134.196 231.94 133.504C232.069 133.391 232.265 133.404 232.378 133.533C232.491 133.662 232.478 133.858 232.349 133.971C231.534 134.684 230.673 135.34 229.773 135.934C228.866 136.534 227.918 137.073 226.937 137.547V137.546Z" fill="#1C2529"/>
<path d="M153.255 224.924C153.24 225.095 153.09 225.222 152.919 225.207C152.748 225.192 152.621 225.042 152.636 224.871C152.933 221.468 153.417 217.981 154.382 214.687C155.352 211.38 156.808 208.274 159.048 205.651C159.159 205.521 159.355 205.506 159.485 205.617C159.615 205.728 159.63 205.924 159.519 206.054C157.343 208.603 155.925 211.632 154.978 214.862C154.027 218.103 153.549 221.554 153.255 224.925V224.924Z" fill="#1C2529"/>
<path d="M190.624 277.566C190.475 277.48 190.425 277.29 190.511 277.142C190.597 276.993 190.786 276.943 190.935 277.029C194.865 279.319 199.026 281.212 203.331 282.676C207.635 284.14 212.083 285.176 216.586 285.754C216.756 285.776 216.876 285.931 216.855 286.101C216.833 286.27 216.679 286.39 216.508 286.369C211.959 285.785 207.472 284.74 203.132 283.264C198.788 281.786 194.589 279.877 190.624 277.566H190.624Z" fill="#1C2529"/>
<path d="M182.995 249.441C182.86 249.337 182.835 249.142 182.94 249.007C183.044 248.871 183.24 248.846 183.375 248.951C186.945 251.698 190.665 254.253 194.511 256.599C198.371 258.955 202.358 261.103 206.448 263.031C206.603 263.105 206.669 263.289 206.597 263.444C206.523 263.598 206.339 263.665 206.184 263.592C202.074 261.655 198.068 259.496 194.188 257.128C190.324 254.769 186.585 252.203 182.996 249.44L182.995 249.441Z" fill="#1C2529"/>
<path d="M224.22 282.569C224.052 282.537 223.941 282.376 223.972 282.207C224.003 282.039 224.165 281.928 224.334 281.96C227.845 282.622 231.386 283.119 234.937 283.451C238.508 283.785 242.094 283.953 245.678 283.956C245.849 283.956 245.988 284.095 245.988 284.266C245.988 284.437 245.849 284.575 245.678 284.575C242.076 284.572 238.471 284.403 234.881 284.067C231.304 283.733 227.745 283.233 224.22 282.569Z" fill="#1C2529"/>
<path d="M249.359 284.498C249.189 284.473 249.072 284.316 249.097 284.146C249.122 283.976 249.28 283.859 249.45 283.884C250.962 284.105 252.488 284.216 254.011 284.212C255.531 284.209 257.057 284.093 258.57 283.865C258.74 283.84 258.898 283.956 258.923 284.126C258.949 284.296 258.832 284.454 258.662 284.479C257.127 284.711 255.571 284.828 254.011 284.831C252.451 284.835 250.895 284.723 249.359 284.497V284.498Z" fill="#1C2529"/>
<path d="M136.918 120.138C136.756 120.192 136.58 120.106 136.524 119.944C136.47 119.782 136.556 119.606 136.718 119.55C140.17 118.377 143.689 117.39 147.253 116.592C150.825 115.792 154.437 115.183 158.066 114.768C158.236 114.749 158.39 114.871 158.41 115.041C158.429 115.211 158.307 115.365 158.137 115.385C154.519 115.798 150.93 116.403 147.388 117.196C143.853 117.988 140.356 118.97 136.918 120.138Z" fill="#1C2529"/>
<path d="M161.914 114.871C161.743 114.88 161.596 114.75 161.586 114.579C161.577 114.408 161.707 114.261 161.878 114.251L167.656 113.896C167.827 113.886 167.974 114.017 167.985 114.188C167.995 114.359 167.864 114.506 167.693 114.516L161.915 114.871H161.914Z" fill="#1C2529"/>
</g>
</svg>
