<svg width="14" height="13" viewBox="0 0 14 13" fill="none" xmlns="http://www.w3.org/2000/svg">
<path d="M7 13C10.8593 13 14 10.0837 14 6.5C14 2.91634 10.8594 0 7 0C3.14063 0 0 2.91634 0 6.5C0 10.0837 3.14067 13 7 13ZM7 0.866652C10.346 0.866652 13.0667 3.39298 13.0667 6.5C13.0667 9.60702 10.346 12.1333 7 12.1333C3.65398 12.1333 0.933318 9.60702 0.933318 6.5C0.933318 3.39298 3.65401 0.866652 7 0.866652Z" fill="#8C61C9"/>
<path d="M9.04153 8.57131C9.12788 8.63629 9.23052 8.66665 9.33319 8.66665C9.47086 8.66665 9.60619 8.61031 9.69718 8.50415C9.85819 8.31781 9.82549 8.04481 9.62486 7.8953L7.46652 6.29197V3.0333C7.46652 2.79497 7.25653 2.59998 6.99986 2.59998C6.74319 2.59998 6.5332 2.79497 6.5332 3.0333V6.49998C6.5332 6.63216 6.59855 6.75565 6.7082 6.83797L9.04153 8.57131Z" fill="#8C61C9"/>
</svg>
