<svg xmlns="http://www.w3.org/2000/svg" width="56" height="56" viewBox="0 0 56 56" fill="none"><rect width="56" height="56" rx="16" fill="#F2EFFD"></rect><path d="M42.24 20.32C42.24 20 42.08 19.84 41.76 19.68L28.16 12.16C28.16 12 27.84 12 27.52 12.16L14.08 19.84C13.92 19.84 13.76 20.16 13.76 20.32C13.44 23.04 12.48 38.72 27.68 43.84H28.16C43.52 38.72 42.56 23.04 42.24 20.32ZM35.36 26.08L27.52 33.92C26.88 34.56 25.92 34.56 25.28 33.92L22.24 30.88C21.6 30.24 21.6 29.28 22.24 28.64C22.88 28 23.84 28 24.48 28.64L26.4 30.4L33.12 23.68C33.76 23.04 34.72 23.04 35.36 23.68C36 24.32 36 25.44 35.36 26.08Z" fill="#795DEC"></path></svg>