<svg xmlns="http://www.w3.org/2000/svg" width="56" height="56" viewBox="0 0 56 56" fill="none"><rect width="56" height="56" rx="16" fill="#F2EFFD"></rect><path d="M43 33H41V28C41 27.448 40.552 27 40 27H29V23H31C31.552 23 32 22.552 32 22V16C32 15.448 31.552 15 31 15H25C24.448 15 24 15.448 24 16V22C24 22.552 24.448 23 25 23H27V27H16C15.448 27 15 27.448 15 28V33H13C12.448 33 12 33.448 12 34V40C12 40.552 12.448 41 13 41H19C19.552 41 20 40.552 20 40V34C20 33.448 19.552 33 19 33H17V29H27V33H25C24.448 33 24 33.448 24 34V40C24 40.552 24.448 41 25 41H31C31.552 41 32 40.552 32 40V34C32 33.448 31.552 33 31 33H29V29H39V33H37C36.448 33 36 33.448 36 34V40C36 40.552 36.448 41 37 41H43C43.552 41 44 40.552 44 40V34C44 33.448 43.552 33 43 33Z" fill="#795DEC"></path></svg>