<svg xmlns="http://www.w3.org/2000/svg" width="56" height="56" viewBox="0 0 56 56" fill="none"><rect width="56" height="56" rx="16" fill="#F2EFFD"></rect><path d="M25 28C28.3137 28 31 25.3137 31 22C31 18.6863 28.3137 16 25 16C21.6863 16 19 18.6863 19 22C19 25.3137 21.6863 28 25 28Z" fill="#795DEC"></path><path d="M39 32H36C35.45 32 35 32.45 35 33C35 33.55 35.45 34 36 34H36.59L35 35.59L33.71 34.3C33.32 33.91 32.69 33.91 32.3 34.3L28.3 38.3C27.91 38.69 27.91 39.32 28.3 39.71C28.5 39.91 28.75 40 29.01 40C29.27 40 29.52 39.9 29.72 39.71L33.01 36.42L34.3 37.71C34.69 38.1 35.32 38.1 35.71 37.71L38 35.42V36.01C38 36.56 38.45 37.01 39 37.01C39.55 37.01 40 36.56 40 36.01V33.01C40 32.46 39.55 32.01 39 32.01V32Z" fill="#795DEC"></path><path d="M30.88 32.88C31.45 32.31 32.2 32 33 32C33.06 32 33.12 32.01 33.18 32.02C33.26 31.8 33.37 31.6 33.49 31.4C32.89 29.91 31.79 28.66 30.4 27.89C28.98 29.2 27.08 30 25 30C22.92 30 21.03 29.19 19.6 27.89C17.45 29.09 16 31.38 16 34V38C16 39.1 16.9 40 18 40H26.18C26.07 39.68 26 39.35 26 39C26 38.2 26.31 37.45 26.88 36.88L30.88 32.88Z" fill="#795DEC"></path></svg>