<svg xmlns="http://www.w3.org/2000/svg" width="56" height="56" viewBox="0 0 56 56" fill="none"><rect width="56" height="56" rx="16" fill="#F2EFFD"></rect><path d="M39.3333 23.3333H27.3333C26.4496 23.3344 25.6024 23.6859 24.9775 24.3108C24.3526 24.9357 24.0011 25.7829 24 26.6667V34.6667C24.0011 35.5504 24.3526 36.3976 24.9775 37.0225C25.6024 37.6474 26.4496 37.9989 27.3333 38H34.0573L36.9593 40.9027C37.0992 41.0426 37.2774 41.1379 37.4715 41.1765C37.6655 41.2152 37.8666 41.1954 38.0494 41.1196C38.2322 41.0439 38.3884 40.9157 38.4983 40.7511C38.6082 40.5866 38.6668 40.3932 38.6667 40.1953V38H39.3333C40.2171 37.9989 41.0643 37.6474 41.6892 37.0225C42.3141 36.3976 42.6656 35.5504 42.6667 34.6667V26.6667C42.6656 25.7829 42.3141 24.9357 41.6892 24.3108C41.0643 23.6859 40.2171 23.3344 39.3333 23.3333ZM36.6667 29.6667H36.294C36.1399 31.0432 35.5129 32.3236 34.52 33.2893C35.0929 33.5359 35.7097 33.6642 36.3333 33.6667C36.5127 33.6657 36.6853 33.7349 36.8143 33.8595C36.9434 33.984 37.0186 34.1541 37.024 34.3333C37.0267 34.4196 37.012 34.5056 36.9809 34.5862C36.9498 34.6667 36.9029 34.7402 36.843 34.8024C36.783 34.8645 36.7112 34.914 36.6318 34.948C36.5524 34.9819 36.467 34.9996 36.3807 35C35.315 34.9971 34.2687 34.7143 33.3467 34.18C32.4331 34.7165 31.3928 34.9996 30.3333 35C30.154 35.0009 29.9814 34.9318 29.8523 34.8072C29.7233 34.6827 29.6481 34.5126 29.6427 34.3333C29.64 34.247 29.6546 34.161 29.6857 34.0805C29.7168 33.9999 29.7637 33.9264 29.8237 33.8643C29.8837 33.8021 29.9555 33.7526 30.0349 33.7187C30.1143 33.6848 30.1997 33.6671 30.286 33.6667C30.9301 33.6674 31.5677 33.5372 32.16 33.284C31.6431 32.7924 31.2196 32.2113 30.91 31.5687C30.8692 31.4892 30.8448 31.4024 30.8382 31.3133C30.8316 31.2243 30.843 31.1348 30.8717 31.0502C30.9003 30.9656 30.9457 30.8877 31.005 30.821C31.0644 30.7542 31.1366 30.7001 31.2173 30.6619C31.2979 30.6236 31.3855 30.6019 31.4747 30.5981C31.5639 30.5943 31.653 30.6085 31.7366 30.6397C31.8203 30.671 31.8968 30.7188 31.9616 30.7802C32.0264 30.8417 32.0783 30.9155 32.114 30.9973C32.4016 31.6013 32.8161 32.1362 33.3293 32.5653C34.2074 31.8316 34.7834 30.7993 34.9467 29.6667H30C29.8232 29.6667 29.6536 29.5964 29.5286 29.4714C29.4036 29.3464 29.3333 29.1768 29.3333 29C29.3333 28.8232 29.4036 28.6536 29.5286 28.5286C29.6536 28.4036 29.8232 28.3333 30 28.3333H32.6667V27C32.6667 26.8232 32.7369 26.6536 32.8619 26.5286C32.987 26.4036 33.1565 26.3333 33.3333 26.3333C33.5101 26.3333 33.6797 26.4036 33.8047 26.5286C33.9298 26.6536 34 26.8232 34 27V28.3333H36.6667C36.8435 28.3333 37.013 28.4036 37.1381 28.5286C37.2631 28.6536 37.3333 28.8232 37.3333 29C37.3333 29.1768 37.2631 29.3464 37.1381 29.4714C37.013 29.5964 36.8435 29.6667 36.6667 29.6667Z" fill="#795DEC"></path><path d="M22.6667 21.6113L21.5807 24H23.5093C23.5573 23.9333 23.6087 23.8667 23.6607 23.8L22.6667 21.6113Z" fill="#795DEC"></path><path d="M28.6667 16H16.6667C15.7829 16.0011 14.9357 16.3526 14.3108 16.9775C13.6859 17.6024 13.3344 18.4496 13.3333 19.3333V27.3333C13.3344 28.2171 13.6859 29.0643 14.3108 29.6892C14.9357 30.3141 15.7829 30.6656 16.6667 30.6667H17.3333V32.862C17.3332 33.0598 17.3918 33.2533 17.5017 33.4178C17.6116 33.5823 17.7678 33.7106 17.9506 33.7863C18.1334 33.862 18.3345 33.8818 18.5285 33.8432C18.7226 33.8046 18.9008 33.7093 19.0407 33.5693L21.9427 30.6667H22.6667V26.6667C22.668 26.2149 22.7354 25.7657 22.8667 25.3333H20.9747L19.94 27.6093C19.8643 27.7663 19.7302 27.8873 19.5664 27.9466C19.4026 28.0059 19.222 27.9987 19.0635 27.9265C18.9049 27.8544 18.7808 27.723 18.7179 27.5606C18.6549 27.3981 18.6581 27.2175 18.7267 27.0573L22.06 19.724C22.113 19.6076 22.1984 19.5089 22.306 19.4397C22.4136 19.3705 22.5388 19.3337 22.6667 19.3337C22.7946 19.3337 22.9198 19.3705 23.0273 19.4397C23.1349 19.5089 23.2203 19.6076 23.2733 19.724L24.6847 22.8287C25.4622 22.2884 26.3865 21.9992 27.3333 22H32V19.3333C31.9989 18.4496 31.6474 17.6024 31.0225 16.9775C30.3976 16.3526 29.5504 16.0011 28.6667 16Z" fill="#795DEC"></path></svg>