<svg xmlns="http://www.w3.org/2000/svg" width="56" height="56" viewBox="0 0 56 56" fill="none"><rect width="56" height="56" rx="16" fill="#F2EFFD"></rect><g clip-path="url(#clip0_11_19)"><path d="M25.2813 38.5938C25.6688 38.9812 25.6688 39.6062 25.2813 39.9937L23.9063 41.3687C23.25 42.0062 22.2063 42.0062 21.55 41.3687L19.2375 39.0562L16.925 41.3687C16.6188 41.6812 16.1938 41.8625 15.75 41.8625C15.4563 41.8625 15.175 41.7875 14.9125 41.65C14.8125 41.6 14.725 41.5313 14.6438 41.45L13.6688 40.475C13.1438 39.95 13.0313 39.1438 13.3875 38.4688C13.4438 38.3687 13.5125 38.275 13.5938 38.1938L15.9813 35.8062L13.1875 33.0125C12.8063 32.625 12.8063 32 13.1875 31.6125L15.0438 29.7563C15.2313 29.5688 15.4813 29.4688 15.7438 29.4688C16.0063 29.4688 16.2563 29.575 16.4438 29.7563L19.2375 32.55L22.025 29.7625C22.2125 29.575 22.4625 29.4688 22.725 29.475C22.9875 29.475 23.2375 29.5812 23.425 29.7687L25.275 31.6187C25.6625 32.0062 25.6625 32.6312 25.275 33.0187L22.4875 35.8062L25.2813 38.5938Z" fill="#795DEC"></path><path d="M26.475 18.375V20.9937C26.475 21.5375 26.0313 21.9812 25.4875 21.9812H21.5437V25.9312C21.5437 26.475 21.1 26.9187 20.5562 26.9187H17.9313C17.3813 26.9187 16.9375 26.475 16.9375 25.9312V21.9812H12.9875C12.4438 21.9812 12 21.5375 12 20.9937V18.375C12 17.8312 12.4438 17.3875 12.9875 17.3875H16.9375V13.4375C16.9375 12.8937 17.3813 12.45 17.9313 12.45H20.55C21.0938 12.45 21.5375 12.8937 21.5375 13.4375V17.3875H25.4812C26.0312 17.3875 26.475 17.8312 26.475 18.375Z" fill="#795DEC"></path><path d="M36.4875 32.6563C35.2187 32.6688 34.1812 31.65 34.1687 30.3875C34.1687 30.3813 34.1687 30.375 34.1687 30.375V30.3375C34.1687 29.075 35.1937 28.0563 36.45 28.05H36.4812C37.7437 28.05 38.7625 29.075 38.7625 30.3375V30.375C38.7687 31.6313 37.7437 32.65 36.4875 32.6563Z" fill="#795DEC"></path><path d="M44 18.375V20.9937C44 21.5375 43.5562 21.9812 43.0125 21.9812H30.5125C29.9687 21.9812 29.525 21.5375 29.525 20.9937V18.375C29.525 17.8312 29.9687 17.3875 30.5125 17.3875H43.0125C43.5562 17.3875 44 17.8312 44 18.375Z" fill="#795DEC"></path><path d="M38.7687 41.2312V41.2687C38.7687 42.5375 37.7375 43.5687 36.4687 43.5687C35.2 43.5687 34.1687 42.5375 34.1687 41.2687V41.2312C34.1687 39.9687 35.1937 38.95 36.45 38.95H36.4812C37.7437 38.9437 38.7687 39.9687 38.7687 41.2312Z" fill="#795DEC"></path><path d="M43.7 34.4875V37.1063C43.7 37.65 43.2562 38.0938 42.7125 38.0938H30.2187C29.675 38.0938 29.2312 37.65 29.2312 37.1063V34.4875C29.2312 33.9437 29.675 33.5 30.2187 33.5H42.7125C43.2562 33.5 43.7 33.9437 43.7 34.4875Z" fill="#795DEC"></path></g><defs><clipPath id="clip0_11_19"><rect width="32" height="32" fill="white" transform="translate(12 12)"></rect></clipPath></defs></svg>