<svg xmlns="http://www.w3.org/2000/svg" width="56" height="56" viewBox="0 0 56 56" fill="none"><rect width="56" height="56" rx="16" fill="#F2EFFD"></rect><path d="M32.7752 22.0307C32.8002 23.2503 32.3659 24.4207 31.5522 25.3259C31.1887 25.7301 30.931 26.2197 30.807 26.7422C30.7488 26.9865 30.5286 27.1573 30.2716 27.1573H29.3683V23.2956C29.3683 23.2847 29.3679 23.274 29.3668 23.2631C29.3655 23.2489 29.363 23.235 29.3596 23.2217C29.356 23.206 29.351 23.1904 29.3448 23.1752L29.3434 23.172L28.2903 20.6029C28.2413 20.4838 28.1252 20.4057 27.9964 20.4057C27.8675 20.4057 27.7513 20.4838 27.7026 20.6029L26.6494 23.172L26.6481 23.1752C26.6419 23.1904 26.6368 23.206 26.6332 23.2217C26.6298 23.2352 26.6274 23.2491 26.6261 23.2631C26.6249 23.274 26.6246 23.2847 26.6246 23.2956V27.1571H25.7205C25.4633 27.1571 25.2433 26.9864 25.1851 26.742C25.0609 26.2195 24.8032 25.7299 24.4399 25.3257C23.6506 24.4478 23.2158 23.3133 23.2158 22.1314C23.2158 21.9194 23.2299 21.7105 23.2572 21.5055C23.5637 19.1996 25.5383 17.3884 27.9209 17.3519C27.9458 17.3515 27.9704 17.3513 27.9949 17.3513C30.4015 17.3513 32.4179 19.1516 32.733 21.4897C32.7337 21.4953 32.7345 21.5008 32.7352 21.5065C32.7582 21.6785 32.7716 21.8534 32.7752 22.0307Z" fill="#795DEC"></path><path d="M27.996 21.561L28.5769 22.9779H27.4152L27.996 21.561Z" fill="#795DEC"></path><path d="M27.2593 23.6134H28.7328V27.1573H27.2593V23.6134Z" fill="#795DEC"></path><path d="M26.2839 29.1991C26.0855 29.1991 25.924 29.0376 25.924 28.8392V27.7926H30.0678V28.8392C30.0678 29.0376 29.9064 29.1991 29.7079 29.1991H26.2839Z" fill="#795DEC"></path><path d="M29.1117 29.8345V29.9059C29.1117 30.5073 28.6225 30.9967 28.0211 30.9967H28H27.971C27.3696 30.9967 26.8804 30.5075 26.8804 29.9059V29.8345H29.1117Z" fill="#795DEC"></path><path d="M40.0469 40.1623H30.3482C29.5356 40.1623 28.807 40.5274 28.3176 41.1025V31.6062C29.1285 31.4652 29.7468 30.7563 29.7468 29.9055V29.8332C30.2776 29.8127 30.7031 29.3747 30.7031 28.839V27.7128C31.0581 27.5763 31.3331 27.2749 31.4249 26.8888C31.5247 26.4695 31.732 26.0759 32.0245 25.7506C32.9466 24.7249 33.4389 23.399 33.4103 22.0173C33.4088 21.9362 33.4052 21.8552 33.3997 21.7749H40.0467V40.1623H40.0469ZM37.7141 27.2006C37.7141 27.0249 37.572 26.8828 37.3963 26.8828H33.7152C33.5396 26.8828 33.3975 27.0249 33.3975 27.2006C33.3975 27.376 33.5396 27.5183 33.7152 27.5183H37.3963C37.5718 27.5183 37.7141 27.3758 37.7141 27.2006ZM37.7141 29.7126C37.7141 29.5371 37.572 29.3948 37.3963 29.3948H32.87C32.6946 29.3948 32.5523 29.5371 32.5523 29.7126C32.5523 29.8882 32.6946 30.0303 32.87 30.0303H37.3963C37.5718 30.0303 37.7141 29.888 37.7141 29.7126ZM37.7141 32.2248C37.7141 32.0491 37.572 31.907 37.3963 31.907H30.9681C30.7925 31.907 30.6504 32.0491 30.6504 32.2248C30.6504 32.4004 30.7925 32.5425 30.9681 32.5425H37.3963C37.5718 32.5425 37.7141 32.4004 37.7141 32.2248ZM37.7141 34.7369C37.7141 34.5613 37.572 34.4192 37.3963 34.4192H30.9681C30.7925 34.4192 30.6504 34.5613 30.6504 34.7369C30.6504 34.9124 30.7925 35.0547 30.9681 35.0547H37.3963C37.5718 35.0547 37.7141 34.9124 37.7141 34.7369ZM37.7141 37.2489C37.7141 37.0735 37.572 36.9312 37.3963 36.9312H30.9681C30.7925 36.9312 30.6504 37.0735 30.6504 37.2489C30.6504 37.4246 30.7925 37.5667 30.9681 37.5667H37.3963C37.5718 37.5667 37.7141 37.4246 37.7141 37.2489ZM37.7141 24.6882C37.7141 24.5128 37.5718 24.3704 37.3963 24.3704H34.9431C34.7674 24.3704 34.6253 24.5128 34.6253 24.6882C34.6253 24.8638 34.7674 25.0059 34.9431 25.0059H37.3963C37.5716 25.0059 37.7141 24.8636 37.7141 24.6882Z" fill="#795DEC"></path><path d="M15.9531 21.7753H22.592C22.5843 21.8935 22.5805 22.0122 22.5805 22.1318C22.5805 23.4707 23.0729 24.7561 23.9676 25.751C24.2601 26.0762 24.4674 26.4698 24.5672 26.8892C24.6588 27.2751 24.9336 27.5767 25.2888 27.7131V28.8393C25.2888 29.3751 25.7144 29.8133 26.2453 29.8336V29.9059C26.2453 30.7593 26.8678 31.4701 27.6826 31.6079V41.1027C27.1934 40.5276 26.4646 40.1625 25.652 40.1625H15.9531V21.7753ZM25.3495 32.2248C25.3495 32.0491 25.2073 31.907 25.0317 31.907H18.6037C18.428 31.907 18.2859 32.0491 18.2859 32.2248C18.2859 32.4004 18.428 32.5425 18.6037 32.5425H25.0317C25.2072 32.5425 25.3495 32.4004 25.3495 32.2248ZM25.3495 34.7369C25.3495 34.5613 25.2073 34.4192 25.0317 34.4192H18.6037C18.428 34.4192 18.2859 34.5613 18.2859 34.7369C18.2859 34.9124 18.428 35.0547 18.6037 35.0547H25.0317C25.2072 35.0547 25.3495 34.9124 25.3495 34.7369ZM25.3495 37.2489C25.3495 37.0735 25.2073 36.9312 25.0317 36.9312H18.6037C18.428 36.9312 18.2859 37.0735 18.2859 37.2489C18.2859 37.4246 18.428 37.5667 18.6037 37.5667H25.0317C25.2072 37.5667 25.3495 37.4246 25.3495 37.2489ZM23.4475 29.7126C23.4475 29.5371 23.3054 29.3948 23.1298 29.3948H18.6037C18.428 29.3948 18.2859 29.5371 18.2859 29.7126C18.2859 29.8882 18.428 30.0303 18.6037 30.0303H23.1298C23.3054 30.0303 23.4475 29.888 23.4475 29.7126ZM22.6022 27.2006C22.6022 27.0249 22.46 26.8828 22.2844 26.8828H18.6037C18.428 26.8828 18.2859 27.0249 18.2859 27.2006C18.2859 27.376 18.428 27.5183 18.6037 27.5183H22.2844C22.46 27.5183 22.6022 27.3758 22.6022 27.2006ZM21.3668 24.6882C21.3668 24.5128 21.2245 24.3705 21.049 24.3705H18.6035C18.428 24.3705 18.2857 24.5128 18.2857 24.6882C18.2857 24.8638 18.428 25.0059 18.6035 25.0059H21.049C21.2243 25.0059 21.3668 24.8636 21.3668 24.6882Z" fill="#795DEC"></path><path d="M27.6574 42.5107H13.5435V24.1845H15.3176V40.48C15.3176 40.6554 15.4598 40.7977 15.6354 40.7977H25.6516C26.6633 40.7977 27.5046 41.5413 27.6574 42.5107Z" fill="#795DEC"></path><path d="M42.4565 24.1845V42.5107H28.3426C28.4954 41.5413 29.3367 40.7977 30.3484 40.7977H40.3646C40.5402 40.7977 40.6824 40.6554 40.6824 40.48V24.1845H42.4565Z" fill="#795DEC"></path><path d="M35.6488 17.9055C35.7365 18.0574 35.6845 18.2519 35.5326 18.3394L34.1205 19.1546C34.0706 19.1836 34.0158 19.1974 33.962 19.1974C33.8522 19.1974 33.7453 19.1403 33.6866 19.0385C33.5989 18.8864 33.6508 18.6921 33.8027 18.6044L35.2149 17.7892C35.3668 17.7015 35.561 17.7534 35.6488 17.9055Z" fill="#795DEC"></path><path d="M32.416 14.6726C32.5681 14.7603 32.62 14.9545 32.5323 15.1066L31.7171 16.5186C31.6583 16.6204 31.5514 16.6775 31.4417 16.6775C31.3879 16.6775 31.3331 16.6637 31.2832 16.6347C31.1311 16.5472 31.0791 16.3528 31.1669 16.2008L31.9821 14.7889C32.0698 14.637 32.2641 14.5848 32.416 14.6726Z" fill="#795DEC"></path><path d="M28.3177 13.8071V15.4374C28.3177 15.613 28.1756 15.7551 28 15.7551C27.8244 15.7551 27.6823 15.613 27.6823 15.4374V13.8071C27.6823 13.6316 27.8244 13.4893 28 13.4893C28.1756 13.4893 28.3177 13.6316 28.3177 13.8071Z" fill="#795DEC"></path><path d="M24.8331 16.2008C24.9208 16.3527 24.8689 16.5472 24.717 16.6347C24.6669 16.6637 24.6121 16.6775 24.5583 16.6775C24.4486 16.6775 24.3416 16.6204 24.2829 16.5186L23.4677 15.1066C23.38 14.9545 23.4319 14.7603 23.584 14.6726C23.7359 14.5848 23.9302 14.6368 24.0179 14.7889L24.8331 16.2008Z" fill="#795DEC"></path><path d="M22.1971 18.6042C22.349 18.692 22.4009 18.8862 22.3132 19.0383C22.2545 19.1401 22.1476 19.1972 22.0378 19.1972C21.984 19.1972 21.9292 19.1834 21.8793 19.1544L20.4672 18.3392C20.3153 18.2517 20.2633 18.0572 20.3511 17.9053C20.4388 17.7534 20.633 17.7013 20.7849 17.789L22.1971 18.6042Z" fill="#795DEC"></path></svg>