<svg width="48" height="47" viewBox="0 0 48 47" fill="none" xmlns="http://www.w3.org/2000/svg">
<path d="M17.5801 38.1875H19.0488V39.6562H17.5801V38.1875Z" fill="#4E2B7B"/>
<path d="M17.5801 35.25H19.0488V36.7188H17.5801V35.25Z" fill="#4E2B7B"/>
<path d="M40.3125 27.9018L38.9906 27.9114L38.5493 26.5983L38.1366 26.5131C37.6489 26.4125 37.1672 26.4125 36.6796 26.5131L36.2639 26.5991L35.8314 27.9099L34.4258 27.904L34.2165 28.2889C33.9793 28.7236 33.7979 29.3111 33.7413 29.8215L33.6958 30.2372L34.8466 31.1037L34.4052 32.5123L34.6813 32.8229C35.0162 33.1996 35.4113 33.4978 35.8549 33.71L36.2573 33.9024L37.4081 33.0337L38.5596 33.9017L38.962 33.7093C39.4056 33.4978 39.8007 33.1996 40.1355 32.8222L40.4117 32.5115L39.9703 31.103L41.1211 30.2364L41.0755 29.8208C41.0285 29.3897 40.842 28.8742 40.5226 28.2881L40.3125 27.9018ZM38.2592 30.5529L38.7498 32.1201C38.7321 32.1348 38.7131 32.1495 38.694 32.1634L37.4081 31.1948L36.1222 32.1634C36.1031 32.1495 36.084 32.1348 36.0664 32.1201L36.5569 30.5529L35.2769 29.5894C35.296 29.5175 35.318 29.4462 35.3415 29.3765L36.8925 29.3831L37.3787 27.9063C37.3993 27.9063 37.4198 27.9055 37.4404 27.9063L37.9383 29.3882L39.4247 29.3772C39.4599 29.4572 39.4915 29.5336 39.5172 29.6063L38.2592 30.5529Z" fill="#4E2B7B"/>
<path d="M37.4082 23.5C33.7635 23.5 30.7988 26.4654 30.7988 30.1094C30.7988 33.7533 33.7635 36.7188 37.4082 36.7188C41.0529 36.7188 44.0176 33.7533 44.0176 30.1094C44.0176 26.4654 41.0529 23.5 37.4082 23.5ZM37.4082 35.25C34.5742 35.25 32.2676 32.9441 32.2676 30.1094C32.2676 27.2747 34.5742 24.9688 37.4082 24.9688C40.2422 24.9688 42.5488 27.2747 42.5488 30.1094C42.5488 32.9441 40.2422 35.25 37.4082 35.25Z" fill="#4E2B7B"/>
<path d="M37.4082 20.5625C33.4727 20.5625 30.0872 22.9566 28.628 26.3648C28.2762 26.132 27.9113 25.9227 27.5279 25.7487C27.5757 25.6943 27.6153 25.6429 27.6682 25.5842C28.0603 25.159 28.5957 24.5759 28.5957 23.4934C28.5957 22.4109 28.0589 21.8293 27.666 21.4048C27.3296 21.0413 27.127 20.8217 27.127 20.3135C27.127 19.8054 27.3296 19.5858 27.666 19.2223C28.0589 18.7978 28.5957 18.2162 28.5957 17.1337C28.5957 16.0512 28.0589 15.4696 27.666 15.0451C27.3296 14.6809 27.127 14.4606 27.127 13.9531V10.3965C27.127 5.06866 22.7927 0.734375 17.4648 0.734375C14.5133 0.734375 11.7638 2.05625 9.91981 4.36072L9.81039 4.49731C7.88706 5.09289 6.56445 6.86934 6.56445 8.90283V13.9531C6.56445 14.4606 6.36177 14.6809 6.02542 15.0451C5.63253 15.4696 5.0957 16.0512 5.0957 17.1337C5.0957 18.2162 5.63253 18.7978 6.02542 19.2223C6.36177 19.5858 6.56445 19.8061 6.56445 20.3135C6.56445 20.821 6.36177 21.0413 6.02542 21.4048C5.63253 21.83 5.0957 22.4117 5.0957 23.4934C5.0957 24.5751 5.63106 25.159 6.02248 25.5842C6.07609 25.6429 6.11575 25.6943 6.16348 25.7487C3.30236 27.0485 1.42383 29.9192 1.42383 33.102V42.5938H30.7988V45.7376L37.4082 44.0853L44.0176 45.7376V36.9824C45.8241 35.2441 46.9551 32.8082 46.9551 30.1094C46.9551 24.8454 42.6722 20.5625 37.4082 20.5625ZM7.10348 22.4021C7.49638 21.9776 8.0332 21.396 8.0332 20.3135C8.0332 19.2311 7.49638 18.6495 7.10348 18.225C6.76714 17.8615 6.56445 17.6412 6.56445 17.1337C6.56445 16.6262 6.76714 16.4059 7.10348 16.0417C7.49638 15.6172 8.0332 15.0356 8.0332 13.9531V8.90283C8.0332 7.45758 9.01212 6.204 10.414 5.85297L10.6549 5.79275L11.0669 5.27795C12.6304 3.32378 14.9628 2.20312 17.4648 2.20312C21.9827 2.20312 25.6582 5.87867 25.6582 10.3965V13.9531C25.6582 15.0356 26.195 15.6172 26.5879 16.0417C26.9243 16.4059 27.127 16.6262 27.127 17.1337C27.127 17.6412 26.9243 17.8615 26.5879 18.225C26.195 18.6502 25.6582 19.2318 25.6582 20.3135C25.6582 21.3953 26.195 21.9776 26.5879 22.4021C26.9243 22.7656 27.127 22.9859 27.127 23.4934C27.127 24.003 26.9243 24.2248 26.5879 24.5905C26.4293 24.7639 26.2508 24.9643 26.0922 25.2067L20.7636 23.326C20.2209 23.1343 19.8574 22.64 19.8045 22.0746C22.5055 20.1615 24.1895 17.0331 24.1895 13.5955V10.2812H22.164C20.3509 10.2812 18.6471 9.57552 17.3649 8.2933L16.8457 7.77409L16.3265 8.2933C15.0443 9.57552 13.3405 10.2812 11.5274 10.2812H9.50195V13.5955C9.50195 17.0331 11.1859 20.1615 13.8869 22.0753C13.8333 22.64 13.4705 23.135 12.9278 23.3267L7.59919 25.2074C7.44056 24.9651 7.26284 24.7646 7.10348 24.5913C6.76714 24.2248 6.56445 24.0038 6.56445 23.4934C6.56445 22.9859 6.76714 22.7656 7.10348 22.4021ZM16.8457 32.2053C16.4073 31.7926 15.9938 31.3563 15.6142 30.893L16.8457 29.1694L18.0772 30.893C17.6976 31.3563 17.2841 31.7926 16.8457 32.2053ZM16.8457 21.9879C13.3214 20.7057 10.9707 17.3643 10.9707 13.5955V11.75H11.5274C13.4962 11.75 15.3593 11.0656 16.8457 9.80905C18.3321 11.0656 20.1959 11.75 22.164 11.75H22.7207V13.5955C22.7207 17.3643 20.37 20.7057 16.8457 21.9879ZM16.6136 23.4625L16.8457 23.5397L17.0778 23.4625C17.5617 23.301 18.0251 23.1027 18.4709 22.8787C18.5583 23.1365 18.6802 23.3796 18.8329 23.6021L16.8457 26.5822L14.8585 23.6006C15.0112 23.3781 15.1331 23.1357 15.2198 22.878C15.6656 23.1027 16.129 23.301 16.6136 23.4625ZM13.4169 24.711C13.5285 24.6713 13.6335 24.6199 13.7386 24.5685L15.9542 27.8916L14.7021 29.6445C13.7738 28.2154 13.1151 26.6204 12.7574 24.9438L13.4169 24.711ZM18.9901 29.6453L17.738 27.8923L19.9536 24.5693C20.0579 24.6207 20.1629 24.6721 20.2745 24.7117L20.9347 24.9445C20.5771 26.6211 19.9183 28.2162 18.9901 29.6453ZM2.89258 33.102C2.89258 30.3047 4.66463 27.7998 7.3025 26.8693L11.3614 25.4365C12.0297 28.3909 13.5638 31.1 15.7581 33.1945L14.6426 34.1859V41.125H8.76758V30.8438H7.29883V41.125H2.89258V33.102ZM26.3926 41.125V31.5781H24.9238V41.125H16.1113V34.8454L17.5441 33.5712C19.9514 31.432 21.6221 28.5672 22.33 25.4365L26.3889 26.8693C27.0227 27.0933 27.6116 27.4157 28.1499 27.8218C27.9685 28.5562 27.8613 29.3192 27.8613 30.1094C27.8613 32.8082 28.9923 35.2441 30.7988 36.9824V41.125H26.3926ZM42.5488 43.8561L37.4082 42.571L32.2676 43.8561V38.1412C33.7532 39.0952 35.515 39.6562 37.4082 39.6562C39.3014 39.6562 41.0632 39.0952 42.5488 38.1412V43.8561ZM37.4082 38.1875C32.9542 38.1875 29.3301 34.5634 29.3301 30.1094C29.3301 25.6554 32.9542 22.0312 37.4082 22.0312C41.8622 22.0312 45.4863 25.6554 45.4863 30.1094C45.4863 34.5634 41.8622 38.1875 37.4082 38.1875Z" fill="#4E2B7B"/>
<path d="M44.752 0.734375H30.7988C29.5842 0.734375 28.5957 1.72284 28.5957 2.9375V12.4844C28.5957 13.699 29.5842 14.6875 30.7988 14.6875H35.2051V16.9244C35.2051 18.1207 36.1781 19.0938 37.3744 19.0938C38.1015 19.0938 38.7763 18.7324 39.1795 18.128L41.473 14.6875H44.752C45.9666 14.6875 46.9551 13.699 46.9551 12.4844V2.9375C46.9551 1.72284 45.9666 0.734375 44.752 0.734375ZM45.4863 12.4844C45.4863 12.889 45.1573 13.2188 44.752 13.2188H40.6872L37.9575 17.3129C37.8268 17.5082 37.6087 17.625 37.3744 17.625C36.9881 17.625 36.6738 17.3107 36.6738 16.9244V13.2188H30.7988C30.3935 13.2188 30.0645 12.889 30.0645 12.4844V2.9375C30.0645 2.53286 30.3935 2.20312 30.7988 2.20312H44.752C45.1573 2.20312 45.4863 2.53286 45.4863 2.9375V12.4844Z" fill="#4E2B7B"/>
<path d="M36.674 9.24284L34.9901 7.55892L33.9517 8.59733L36.674 11.3197L43.0682 4.92545L42.0298 3.88705L36.674 9.24284Z" fill="#4E2B7B"/>
</svg>
