<svg width="51" height="44" viewBox="0 0 51 44" fill="none" xmlns="http://www.w3.org/2000/svg">
<path d="M28.7787 43.7878H46.0998C47.5449 43.7878 48.721 42.6117 48.721 41.1667V37.4178C48.721 37.0283 48.4049 36.7122 48.0154 36.7122C47.6259 36.7122 47.3098 37.0283 47.3098 37.4178V41.1667C47.3098 41.8338 46.767 42.3767 46.0998 42.3767H28.7787C28.1116 42.3767 27.5687 41.8338 27.5687 41.1667V37.4178C27.5687 37.0283 27.2527 36.7122 26.8632 36.7122C26.4737 36.7122 26.1576 37.0283 26.1576 37.4178V41.1667C26.1576 42.6117 27.3337 43.7878 28.7787 43.7878Z" fill="#4E2B7B" stroke="#4E2B7B" stroke-width="0.3"/>
<path d="M41.0544 38.1889H47.5466C48.8705 38.1889 49.9477 37.1129 49.9477 35.7878V26.9567C49.9477 25.6327 48.8706 24.5556 47.5466 24.5556H27.3322C26.0082 24.5556 24.9311 25.6327 24.9311 26.9567V35.7878C24.9311 37.1117 26.0082 38.1889 27.3322 38.1889H33.8244C34.2139 38.1889 34.5299 37.8728 34.5299 37.4833C34.5299 37.0938 34.2139 36.7778 33.8244 36.7778H27.3322C26.7861 36.7778 26.3422 36.3338 26.3422 35.7878V26.9567C26.3422 26.4106 26.7861 25.9667 27.3322 25.9667H47.5466C48.0927 25.9667 48.5366 26.4106 48.5366 26.9567V35.7878C48.5366 36.3338 48.0927 36.7778 47.5466 36.7778H41.0544C40.6649 36.7778 40.3488 37.0938 40.3488 37.4833C40.3488 37.8728 40.6649 38.1889 41.0544 38.1889Z" fill="#4E2B7B" stroke="#4E2B7B" stroke-width="0.3"/>
<path d="M44.011 25.2611C44.011 25.6506 44.3271 25.9667 44.7166 25.9667C45.1061 25.9667 45.4221 25.6506 45.4221 25.2611V22.8444C45.4221 20.6294 43.6194 18.8267 41.4044 18.8267H33.4732C31.2582 18.8267 29.4555 20.6294 29.4555 22.8444V25.2611C29.4555 25.6506 29.7715 25.9667 30.161 25.9667C30.5505 25.9667 30.8666 25.6506 30.8666 25.2611V22.8444C30.8666 21.4073 32.0361 20.2378 33.4732 20.2378H41.4044C42.8415 20.2378 44.011 21.4073 44.011 22.8444V25.2611Z" fill="#4E2B7B" stroke="#4E2B7B" stroke-width="0.3"/>
<path d="M41.7613 37.4846V37.4844V35.6044C41.7613 34.726 41.0474 34.0122 40.169 34.0122H34.7113C33.8329 34.0122 33.119 34.726 33.119 35.6044V37.4844C33.119 39.0751 34.4129 40.3689 36.0035 40.3689H38.8757C40.4664 40.3689 41.7601 39.0751 41.7613 37.4846ZM34.529 35.6044C34.529 35.5076 34.6138 35.4233 34.7102 35.4233H40.1668C40.2637 35.4233 40.3479 35.5081 40.3479 35.6044V37.4844C40.3479 38.2972 39.6873 38.9578 38.8746 38.9578H36.0024C35.1897 38.9578 34.529 38.2972 34.529 37.4844V35.6044Z" fill="#4E2B7B" stroke="#4E2B7B" stroke-width="0.3"/>
<path d="M25.6366 30.6956H44.0833C44.4724 30.6956 44.7899 30.3799 44.7899 29.99C44.7899 29.6005 44.4739 29.2844 44.0844 29.2844H25.6366C25.2471 29.2844 24.9311 29.6005 24.9311 29.99C24.9311 30.3795 25.2471 30.6956 25.6366 30.6956Z" fill="#4E2B7B" stroke="#4E2B7B" stroke-width="0.3"/>
<path d="M43.2095 20.7304L43.2101 20.7304C43.5978 20.6923 43.8817 20.3481 43.8436 19.9598C43.3155 14.5849 40.8215 9.62833 36.8206 6.00109C32.8197 2.37385 27.6427 0.376667 22.2421 0.376667C10.2737 0.376667 0.536523 10.1138 0.536523 22.0822C0.536523 34.0506 10.2737 43.7878 22.2421 43.7878C24.0232 43.7878 25.8032 43.5674 27.5307 43.1333C27.9094 43.0386 28.1376 42.6546 28.0432 42.277C27.9485 41.8983 27.5644 41.6701 27.1868 41.7645L27.1866 41.7645C25.5719 42.1704 23.9075 42.3767 22.2421 42.3767C11.0516 42.3767 1.94763 33.2727 1.94763 22.0822C1.94763 10.8917 11.0516 1.78778 22.2421 1.78778C32.7315 1.78778 41.4135 9.65796 42.4394 20.0966C42.4763 20.4855 42.8214 20.767 43.2095 20.7304Z" fill="#4E2B7B" stroke="#4E2B7B" stroke-width="0.3"/>
<path d="M21.5365 6.36C21.5365 6.74951 21.8526 7.06556 22.2421 7.06556C22.6316 7.06556 22.9476 6.74951 22.9476 6.36V1.08222C22.9476 0.692713 22.6316 0.376667 22.2421 0.376667C21.8526 0.376667 21.5365 0.692713 21.5365 1.08222V6.36Z" fill="#4E2B7B" stroke="#4E2B7B" stroke-width="0.3"/>
<path d="M29.7506 9.07768L29.7514 9.07812C29.8618 9.141 29.9829 9.17222 30.1034 9.17222C30.3458 9.17222 30.5844 9.04561 30.7145 8.81928C30.7145 8.81926 30.7146 8.81924 30.7146 8.81922L33.3533 4.24945L33.3533 4.24945C33.5481 3.91214 33.4324 3.48041 33.0951 3.28566C32.7578 3.09089 32.3261 3.20659 32.1313 3.54388C32.1313 3.54388 32.1313 3.54388 32.1313 3.54388L29.4924 8.11388L29.4924 8.11388C29.2976 8.45119 29.4133 8.88293 29.7506 9.07768Z" fill="#4E2B7B" stroke="#4E2B7B" stroke-width="0.3"/>
<path d="M40.076 10.9712L40.076 10.9712L35.506 13.6101C35.506 13.6101 35.506 13.6101 35.506 13.6101C35.1688 13.8048 35.053 14.2365 35.2477 14.5738C35.3778 14.7999 35.6152 14.9267 35.8588 14.9267C35.9793 14.9267 36.1004 14.8954 36.2108 14.8326L36.2108 14.8326L36.2116 14.8321L40.7816 12.1932C41.1189 11.9985 41.2346 11.5667 41.0398 11.2294C40.845 10.8922 40.4133 10.7764 40.076 10.9712Z" fill="#4E2B7B" stroke="#4E2B7B" stroke-width="0.3"/>
<path d="M21.5365 43.0822C21.5365 43.4717 21.8526 43.7878 22.2421 43.7878C22.6316 43.7878 22.9476 43.4717 22.9476 43.0822V37.8044C22.9476 37.4149 22.6316 37.0989 22.2421 37.0989C21.8526 37.0989 21.5365 37.4149 21.5365 37.8044V43.0822Z" fill="#4E2B7B" stroke="#4E2B7B" stroke-width="0.3"/>
<path d="M11.3883 40.8799L11.3891 40.8803L12.2222 40.5467L12.3521 40.6217L12.3522 40.6216C12.3522 40.6215 12.3522 40.6215 12.3523 40.6214L14.991 36.0517L14.991 36.0517C15.1858 35.7144 15.0701 35.2826 14.7328 35.0879C14.3955 34.8931 13.9637 35.0088 13.769 35.3461C13.769 35.3461 13.769 35.3461 13.769 35.3461L11.1301 39.9161L11.1301 39.9161C10.9353 40.2534 11.051 40.6852 11.3883 40.8799Z" fill="#4E2B7B" stroke="#4E2B7B" stroke-width="0.3"/>
<path d="M8.27376 29.3323L8.27376 29.3323L3.70376 31.9712C3.70376 31.9712 3.70376 31.9712 3.70376 31.9712C3.36652 32.1659 3.2508 32.5976 3.44544 32.9349C3.57554 33.161 3.81291 33.2878 4.05654 33.2878C4.1762 33.2878 4.29701 33.2564 4.40786 33.1941L4.40787 33.1941L4.40933 33.1932L8.97933 30.5543C9.31662 30.3596 9.43232 29.9279 9.23756 29.5906C9.0428 29.2533 8.61107 29.1376 8.27376 29.3323Z" fill="#4E2B7B" stroke="#4E2B7B" stroke-width="0.3"/>
<path d="M1.24208 22.7878H6.51986C6.90937 22.7878 7.22541 22.4717 7.22541 22.0822C7.22541 21.6927 6.90937 21.3767 6.51986 21.3767H1.24208C0.85257 21.3767 0.536523 21.6927 0.536523 22.0822C0.536523 22.4717 0.85257 22.7878 1.24208 22.7878Z" fill="#4E2B7B" stroke="#4E2B7B" stroke-width="0.3"/>
<path d="M8.27278 14.8321L8.27355 14.8326C8.38394 14.8954 8.50508 14.9267 8.62557 14.9267C8.86914 14.9267 9.10647 14.8 9.23658 14.5739C9.43134 14.2366 9.31564 13.8049 8.97835 13.6101L4.40835 10.9712L4.40835 10.9712C4.07104 10.7764 3.63931 10.8922 3.44456 11.2294C3.24979 11.5667 3.3655 11.9985 3.70278 12.1932C3.70278 12.1932 3.70278 12.1932 3.70278 12.1932L8.27278 14.8321Z" fill="#4E2B7B" stroke="#4E2B7B" stroke-width="0.3"/>
<path d="M11.1311 4.24945L11.1311 4.24945C10.9363 3.91214 11.052 3.48041 11.3893 3.28566C11.7266 3.09089 12.1583 3.20659 12.3531 3.54388C12.3531 3.54388 12.3531 3.54388 12.3531 3.54388L14.992 8.11388L14.8621 8.18889L14.992 8.11388C15.1868 8.45119 15.0711 8.88293 14.7338 9.07768L14.733 9.07812C14.6226 9.141 14.5015 9.17222 14.381 9.17222C14.1374 9.17222 13.9001 9.04554 13.77 8.81945L11.1311 4.24945ZM11.1311 4.24945L13.7698 8.81921L11.1311 4.24945Z" fill="#4E2B7B" stroke="#4E2B7B" stroke-width="0.3"/>
<path d="M26.8112 5.0283L26.8112 5.02831L26.8133 5.02885C26.8721 5.04356 26.9322 5.05222 26.9942 5.05222C27.3056 5.05222 27.5911 4.84518 27.6747 4.52854C27.6747 4.52843 27.6747 4.52832 27.6748 4.52821L28.3579 1.97995L28.358 1.97979C28.4582 1.60426 28.234 1.21645 27.8584 1.11618C27.4832 1.01604 27.0951 1.23864 26.9948 1.61575C26.9948 1.6158 26.9948 1.61585 26.9947 1.6159L26.3115 4.16449L26.3114 4.16465C26.2113 4.53988 26.434 4.92799 26.8112 5.0283Z" fill="#4E2B7B" stroke="#4E2B7B" stroke-width="0.3"/>
<path d="M34.7259 9.59829L34.7264 9.59883C34.8643 9.73527 35.0448 9.80445 35.2253 9.80445C35.4056 9.80445 35.5865 9.73534 35.7236 9.59829L37.5891 7.73273C37.8644 7.45749 37.8644 7.01029 37.5891 6.73505C37.3139 6.4598 36.8667 6.4598 36.5914 6.73505L34.7259 8.6006C34.4506 8.87585 34.4506 9.32304 34.7259 9.59829Z" fill="#4E2B7B" stroke="#4E2B7B" stroke-width="0.3"/>
<path d="M39.2959 17.5121L39.2958 17.5119C39.1957 17.1356 39.4183 16.7488 39.7954 16.6484L39.7952 16.6485L39.8341 16.7933L39.7955 16.6484L39.2959 17.5121ZM39.2959 17.5121C39.3806 17.8283 39.6658 18.0356 39.9774 18.0356C40.0355 18.0356 40.0978 18.0287 40.1603 18.0114L39.2959 17.5121Z" fill="#4E2B7B" stroke="#4E2B7B" stroke-width="0.3"/>
<path d="M16.6632 42.9033C16.3665 42.8244 16.191 42.5189 16.2699 42.2233L16.6632 42.9033ZM16.6632 42.9033L16.6237 43.0481C16.6867 43.0652 16.7479 43.0722 16.8076 43.0722C17.1183 43.0722 17.4034 42.8648 17.4881 42.5488C17.4881 42.5488 17.4881 42.5488 17.4881 42.5488L18.1714 40L18.1714 39.9998C18.2716 39.6246 18.049 39.2365 17.6718 39.1362M16.6632 42.9033L16.6246 43.0483C16.2474 42.948 16.0248 42.5599 16.1249 42.1847L16.125 42.1845L16.8083 39.6356L16.8084 39.6354C16.9098 39.2591 17.2962 39.0359 17.6718 39.1362M17.6718 39.1362C17.6718 39.1362 17.6718 39.1362 17.6717 39.1362L17.6332 39.2811L17.6719 39.1362C17.6718 39.1362 17.6718 39.1362 17.6718 39.1362Z" fill="#4E2B7B" stroke="#4E2B7B" stroke-width="0.3"/>
<path d="M6.89384 37.4305L6.89438 37.4311C7.03223 37.5675 7.21274 37.6367 7.39324 37.6367C7.57359 37.6367 7.75447 37.5676 7.89152 37.4305L9.75708 35.565C10.0323 35.2897 10.0323 34.8425 9.75708 34.5673C9.48183 34.292 9.03464 34.292 8.75939 34.5673L6.89384 36.4328C6.61859 36.7081 6.61859 37.1553 6.89384 37.4305Z" fill="#4E2B7B" stroke="#4E2B7B" stroke-width="0.3"/>
<path d="M1.27584 27.6999L1.27577 27.6997C1.17571 27.3234 1.39832 26.9365 1.77537 26.8362L1.77522 26.8362L1.81406 26.9811L1.77551 26.8361L1.27584 27.6999ZM1.27584 27.6999C1.36053 28.0161 1.64574 28.2233 1.9574 28.2233C2.01922 28.2233 2.07953 28.2147 2.1379 28.1998L2.13791 28.1998L2.13957 28.1993L4.68817 27.5161L1.27584 27.6999Z" fill="#4E2B7B" stroke="#4E2B7B" stroke-width="0.3"/>
<path d="M4.32313 18.0116L4.32313 18.0116L1.77454 17.3283C1.77447 17.3283 1.77441 17.3283 1.77435 17.3282C1.39729 17.2279 1.17471 16.8399 1.27481 16.4647M4.32313 18.0116L5.04198 17.4733C5.12086 17.1778 4.94531 16.8722 4.64864 16.7933L4.68748 16.6485L4.68734 16.6484C4.68729 16.6484 4.68724 16.6484 4.68719 16.6484L2.13859 15.9651L2.13844 15.9651C1.76323 15.8649 1.37514 16.0876 1.27481 16.4647M4.32313 18.0116L4.32559 18.0122C4.38441 18.0269 4.4445 18.0356 4.50642 18.0356C4.81788 18.0356 5.10344 17.8285 5.18697 17.5118L4.32313 18.0116ZM1.27481 16.4647C1.2748 16.4647 1.2748 16.4648 1.27479 16.4648L1.41975 16.5033L1.27483 16.4647C1.27482 16.4647 1.27481 16.4647 1.27481 16.4647Z" fill="#4E2B7B" stroke="#4E2B7B" stroke-width="0.3"/>
<path d="M8.75939 9.59829L8.75994 9.59883C8.89778 9.73527 9.07829 9.80445 9.25879 9.80445C9.43915 9.80445 9.62003 9.73534 9.75708 9.59829C10.0323 9.32304 10.0323 8.87585 9.75708 8.6006L7.89152 6.73505C7.61628 6.4598 7.16908 6.4598 6.89384 6.73505C6.61859 7.01029 6.61859 7.45749 6.89384 7.73273L8.75939 9.59829L8.75939 9.59829Z" fill="#4E2B7B" stroke="#4E2B7B" stroke-width="0.3"/>
<path d="M16.125 1.97995L16.1249 1.97966C16.0248 1.60343 16.2474 1.21661 16.6244 1.11622C17.0014 1.0147 17.3879 1.23928 17.4881 1.61571L17.4881 1.6156L17.3432 1.65444L17.4881 1.6159L16.125 1.97995ZM16.125 1.97995L16.8083 4.52881C16.8083 4.52882 16.8083 4.52883 16.8083 4.52884C16.893 4.84501 17.1782 5.05222 17.4899 5.05222C17.5479 5.05222 17.6102 5.04538 17.6726 5.02806L16.125 1.97995Z" fill="#4E2B7B" stroke="#4E2B7B" stroke-width="0.3"/>
<path d="M18.641 22.0822C18.641 24.0684 20.256 25.6833 22.2421 25.6833C24.2283 25.6833 25.8432 24.0684 25.8432 22.0822C25.8432 20.096 24.2283 18.4811 22.2421 18.4811C20.256 18.4811 18.641 20.096 18.641 22.0822ZM20.0521 22.0822C20.0521 20.8751 21.035 19.8922 22.2421 19.8922C23.4493 19.8922 24.4321 20.8751 24.4321 22.0822C24.4321 23.2894 23.4493 24.2722 22.2421 24.2722C21.035 24.2722 20.0521 23.2894 20.0521 22.0822Z" fill="#4E2B7B" stroke="#4E2B7B" stroke-width="0.3"/>
<path d="M21.5365 19.1867C21.5365 19.5762 21.8526 19.8922 22.2421 19.8922C22.6316 19.8922 22.9476 19.5762 22.9476 19.1867V10.9289C22.9476 10.5394 22.6316 10.2233 22.2421 10.2233C21.8526 10.2233 21.5365 10.5394 21.5365 10.9289V19.1867Z" fill="#4E2B7B" stroke="#4E2B7B" stroke-width="0.3"/>
<path d="M11.0888 22.7878H19.3465C19.736 22.7878 20.0521 22.4717 20.0521 22.0822C20.0521 21.6927 19.736 21.3767 19.3465 21.3767H11.0888C10.6992 21.3767 10.3832 21.6927 10.3832 22.0822C10.3832 22.4717 10.6992 22.7878 11.0888 22.7878Z" fill="#4E2B7B" stroke="#4E2B7B" stroke-width="0.3"/>
</svg>
