<svg width="50" height="50" viewBox="0 0 50 50" fill="none" xmlns="http://www.w3.org/2000/svg">
<path d="M24.6915 49.3831C38.3062 49.3831 49.3831 38.3062 49.3831 24.6915C49.3831 11.0768 38.3062 -6.20035e-05 24.6915 -6.31938e-05C11.0768 -6.4384e-05 -5.76863e-05 11.0768 -5.88766e-05 24.6915C-6.00668e-05 38.3062 11.0768 49.3831 24.6915 49.3831ZM24.6915 3.08638C36.6048 3.08638 46.2966 12.7782 46.2966 24.6915C46.2966 36.6048 36.6048 46.2966 24.6915 46.2966C12.7782 46.2966 3.08638 36.6048 3.08639 24.6915C3.08639 12.7782 12.7782 3.08638 24.6915 3.08638ZM14.3411 25.7826C13.7381 25.1795 13.7381 24.2031 14.3411 23.6004L22.0572 15.8843C22.3585 15.583 22.7536 15.4322 23.1483 15.4322C23.543 15.4322 23.938 15.583 24.2393 15.8843C24.8424 16.4873 24.8424 17.4638 24.2393 18.0664L19.1575 23.1483L33.9508 23.1483C34.8031 23.1483 35.4941 23.8385 35.4941 24.6915C35.4941 25.5445 34.8031 26.2347 33.9508 26.2347L19.1575 26.2347L24.2393 31.3165C24.8424 31.9196 24.8424 32.896 24.2393 33.4987C23.6363 34.1013 22.6598 34.1017 22.0572 33.4987L14.3411 25.7826Z" fill="#491D7F"/>
</svg>
