<svg width="39" height="39" viewBox="0 0 39 39" fill="none" xmlns="http://www.w3.org/2000/svg">
<path d="M19.5 0C8.74788 0 0 8.74788 0 19.5C0 30.2521 8.74788 39 19.5 39C30.2521 39 39 30.2521 39 19.5C39 8.74788 30.2521 0 19.5 0ZM19.5 36.5625C10.0916 36.5625 2.4375 28.9084 2.4375 19.5C2.4375 10.0916 10.0916 2.4375 19.5 2.4375C28.9084 2.4375 36.5625 10.0916 36.5625 19.5C36.5625 28.9084 28.9084 36.5625 19.5 36.5625ZM27.6742 18.6383C28.1504 19.1146 28.1504 19.8857 27.6742 20.3617L21.5804 26.4554C21.3424 26.6934 21.0304 26.8125 20.7188 26.8125C20.4071 26.8125 20.0951 26.6934 19.8571 26.4554C19.3809 25.9792 19.3809 25.208 19.8571 24.7321L23.8704 20.7188H12.1875C11.5144 20.7188 10.9688 20.1737 10.9688 19.5C10.9688 18.8263 11.5144 18.2812 12.1875 18.2812H23.8704L19.8571 14.2679C19.3809 13.7917 19.3809 13.0205 19.8571 12.5446C20.3333 12.0687 21.1045 12.0684 21.5804 12.5446L27.6742 18.6383Z" fill="white"/>
</svg>
