<svg width="50" height="50" viewBox="0 0 50 50" fill="none" xmlns="http://www.w3.org/2000/svg">
<path d="M25.309 0.000244141C11.6943 0.000244141 0.617432 11.0771 0.617432 24.6918C0.617432 38.3065 11.6943 49.3834 25.309 49.3834C38.9237 49.3834 50.0005 38.3065 50.0005 24.6918C50.0005 11.0771 38.9237 0.000244141 25.309 0.000244141ZM25.309 46.2969C13.3957 46.2969 3.70388 36.6051 3.70388 24.6918C3.70388 12.7785 13.3957 3.08669 25.309 3.08669C37.2223 3.08669 46.9141 12.7785 46.9141 24.6918C46.9141 36.6051 37.2223 46.2969 25.309 46.2969ZM35.6594 23.6007C36.2624 24.2038 36.2624 25.1802 35.6594 25.7829L27.9433 33.499C27.642 33.8003 27.2469 33.9511 26.8522 33.9511C26.4575 33.9511 26.0625 33.8003 25.7612 33.499C25.1581 32.896 25.1581 31.9195 25.7612 31.3169L30.843 26.235H16.0497C15.1974 26.235 14.5064 25.5448 14.5064 24.6918C14.5064 23.8388 15.1974 23.1486 16.0497 23.1486H30.843L25.7612 18.0667C25.1581 17.4637 25.1581 16.4873 25.7612 15.8846C26.3642 15.282 27.3406 15.2816 27.9433 15.8846L35.6594 23.6007Z" fill="#401D6C"/>
</svg>
