<svg width="51" height="51" viewBox="0 0 51 51" fill="none" xmlns="http://www.w3.org/2000/svg">
<path d="M18.2028 7.83202L18.2028 7.83201C18.0003 7.61608 18.0111 7.27698 18.227 7.07452C18.4429 6.87198 18.782 6.8828 18.9845 7.09866M18.2028 7.83202L18.9845 7.09866M18.2028 7.83202C18.7881 8.45578 19.5823 8.7998 20.4378 8.7998C21.2932 8.7998 22.0875 8.4559 22.6728 7.83203M18.2028 7.83202L22.6728 7.83203M18.9845 7.09866L18.9115 7.16707L22.6487 7.07452C22.4327 6.87184 22.0936 6.88284 21.8912 7.09866C21.1147 7.92627 19.7609 7.92627 18.9845 7.09866ZM22.6728 7.83203C22.8754 7.6162 22.8645 7.27699 22.6487 7.07454L22.6728 7.83203Z" fill="#4E2B7B" stroke="#4E2B7B" stroke-width="0.2"/>
<path d="M22.0766 5.15209C22.4491 5.15209 22.7215 4.79673 22.7215 4.39824C22.7215 3.99974 22.4491 3.64438 22.0766 3.64438C21.7042 3.64438 21.4317 3.99974 21.4317 4.39824C21.4317 4.79673 21.7042 5.15209 22.0766 5.15209Z" fill="#4E2B7B" stroke="#4E2B7B" stroke-width="0.2"/>
<path d="M18.7988 5.15209C19.1712 5.15209 19.4437 4.79673 19.4437 4.39824C19.4437 3.99974 19.1712 3.64438 18.7988 3.64438C18.4263 3.64438 18.1539 3.99974 18.1539 4.39824C18.1539 4.79673 18.4263 5.15209 18.7988 5.15209Z" fill="#4E2B7B" stroke="#4E2B7B" stroke-width="0.2"/>
<path d="M9.08453 15.1897L9.08454 15.1898C9.26062 15.395 9.25451 15.7089 9.06786 15.906M9.08453 15.1897L8.34717 15.8228L8.27129 15.8879C8.4772 16.1278 8.85211 16.1339 9.06786 15.906M9.08453 15.1897C8.19114 14.149 6.53109 14.1489 5.63769 15.1898L5.63768 15.1898M9.08453 15.1897L5.63768 15.1898M9.06786 15.906L8.99525 15.8372L9.06787 15.906C9.06787 15.906 9.06787 15.906 9.06786 15.906ZM5.63768 15.1898C5.44493 15.4144 5.47062 15.7527 5.69531 15.9455M5.63768 15.1898L5.69531 15.9455M5.69531 15.9455C5.92006 16.1384 6.25835 16.1124 6.45093 15.8879L5.69531 15.9455C5.69531 15.9455 5.69531 15.9455 5.69531 15.9455Z" fill="#4E2B7B" stroke="#4E2B7B" stroke-width="0.2"/>
<path d="M8.78637 13.4064C9.1261 13.4064 9.37197 13.0828 9.37197 12.7236C9.37197 12.3644 9.1261 12.0408 8.78637 12.0408C8.44665 12.0408 8.20078 12.3644 8.20078 12.7236C8.20078 13.0828 8.44665 13.4064 8.78637 13.4064Z" fill="#4E2B7B" stroke="#4E2B7B" stroke-width="0.2"/>
<path d="M5.93579 13.4064C6.27551 13.4064 6.52138 13.0828 6.52138 12.7236C6.52138 12.3644 6.27551 12.0408 5.93579 12.0408C5.59606 12.0408 5.3502 12.3644 5.3502 12.7236C5.3502 13.0828 5.59606 13.4064 5.93579 13.4064Z" fill="#4E2B7B" stroke="#4E2B7B" stroke-width="0.2"/>
<path d="M35.7623 14.7862H33.4462C33.1502 14.7862 32.9103 15.0262 32.9103 15.3221C32.9103 15.6181 33.1502 15.858 33.4462 15.858H35.7623C36.0583 15.858 36.2982 15.6181 36.2982 15.3221C36.2982 15.0262 36.0583 14.7862 35.7623 14.7862Z" fill="#4E2B7B" stroke="#4E2B7B" stroke-width="0.2"/>
<path d="M36.0295 13.2712C36.3693 13.2712 36.6151 12.9476 36.6151 12.5884C36.6151 12.2291 36.3693 11.9056 36.0295 11.9056C35.6898 11.9056 35.4439 12.2291 35.4439 12.5884C35.4439 12.9476 35.6898 13.2712 36.0295 13.2712Z" fill="#4E2B7B" stroke="#4E2B7B" stroke-width="0.2"/>
<path d="M33.179 13.2712C33.5187 13.2712 33.7645 12.9476 33.7645 12.5884C33.7645 12.2291 33.5187 11.9056 33.179 11.9056C32.8392 11.9056 32.5934 12.2291 32.5934 12.5884C32.5934 12.9476 32.8392 13.2712 33.179 13.2712Z" fill="#4E2B7B" stroke="#4E2B7B" stroke-width="0.2"/>
<path d="M44.154 45.0808L44.1541 45.0808C44.5063 45.0327 44.8324 45.2784 44.881 45.6314C44.881 45.6314 44.881 45.6314 44.881 45.6314L45.5349 50.3672L45.5349 50.3672L45.4358 50.3809C45.4757 50.6697 45.2727 50.9451 44.9853 50.9928L44.154 45.0808ZM44.154 45.0808C43.8011 45.1295 43.5547 45.4549 43.6034 45.8078L44.154 45.0808Z" fill="#4E2B7B" stroke="#4E2B7B" stroke-width="0.2"/>
<path d="M34.7409 45.0808L34.7409 45.0808C35.0937 45.1295 35.3403 45.4551 35.2915 45.8078M34.7409 45.0808L35.1925 45.7941M34.7409 45.0808C34.3892 45.0324 34.0627 45.2785 34.0139 45.6314L34.0139 45.6314L33.36 50.3672C33.36 50.3672 33.36 50.3672 33.36 50.3672C33.3127 50.7097 33.5525 51.0349 33.8932 51.0914C34.2473 51.1502 34.5886 50.8996 34.6377 50.5437M34.7409 45.0808L34.5386 50.53M35.2915 45.8078L35.1925 45.7941M35.2915 45.8078L35.2915 45.8078L35.1925 45.7941M35.2915 45.8078L34.6377 50.5437M35.1925 45.7941L34.5386 50.53M34.6377 50.5437L34.5386 50.53M34.6377 50.5437L34.6377 50.5437L34.5386 50.53" fill="#4E2B7B" stroke="#4E2B7B" stroke-width="0.2"/>
<mask id="path-12-outside-1_557_3736" maskUnits="userSpaceOnUse" x="-0.177246" y="-1" width="51" height="53" fill="black">
<rect fill="white" x="-0.177246" y="-1" width="51" height="53"/>
<path d="M50.0715 50.3697L48.166 38.4151C47.9581 37.1108 47.2165 35.9368 46.1448 35.1797C46.4999 34.4816 46.6357 33.6847 46.5189 32.8943L45.4427 25.6108C44.998 22.6015 42.3615 20.447 39.3457 20.4876C37.5566 20.4978 35.9487 21.2798 34.8547 22.5419V18.6284C37.5028 18.4974 39.617 16.302 39.617 13.6219C39.617 10.9417 37.5028 8.74634 34.8547 8.61535V7.1444C34.8547 6.24307 34.1214 5.50978 33.2201 5.50978H25.9942C25.9682 2.4673 23.4862 0 20.4378 0C17.3895 0 14.9075 2.4673 14.8814 5.50978H7.99615C7.09481 5.50978 6.36152 6.24307 6.36152 7.1444V8.7094C4.0749 9.17396 2.3484 11.2 2.3484 13.6219C2.3484 16.0437 4.0749 18.0698 6.36163 18.5344V38.9041H3.00225C2.70137 38.9041 2.45738 39.1481 2.45738 39.449V42.8734H1.36763C1.06675 42.8734 0.822754 43.1174 0.822754 43.4183C0.822754 43.7192 1.06675 43.9632 1.36763 43.9632H29.8448L28.8236 50.3697C28.7181 51.0309 29.7819 51.2804 29.8997 50.5412L31.8052 38.5867C31.967 37.5724 32.5436 36.6595 33.3774 36.0706C34.0964 36.832 35.0968 37.266 36.1493 37.266H42.7458C43.7983 37.266 44.7985 36.8319 45.5177 36.0706C46.3514 36.6595 46.9281 37.5725 47.0899 38.5867L48.9954 50.5412C49.1049 51.2284 50.1826 51.0658 50.0715 50.3697ZM38.5273 13.6219C38.5273 15.7851 36.7674 17.545 34.6043 17.545C32.4411 17.545 30.6813 15.7851 30.6813 13.6219C30.6813 11.4586 32.4411 9.69878 34.6043 9.69878C36.7674 9.69878 38.5273 11.4586 38.5273 13.6219ZM20.4378 1.08975C22.9014 1.08975 24.9057 3.09413 24.9057 5.55773C24.9057 8.02133 22.9014 10.0257 20.4378 10.0257C17.9742 10.0257 15.97 8.02133 15.97 5.55773C15.97 3.09413 17.9742 1.08975 20.4378 1.08975ZM3.43816 13.6219C3.43816 11.4586 5.19799 9.69878 7.36115 9.69878C9.5243 9.69878 11.2841 11.4586 11.2841 13.6219C11.2841 15.7851 9.5243 17.545 7.36115 17.545C5.19799 17.545 3.43816 15.7851 3.43816 13.6219ZM3.54713 42.8734V39.9938H30.4776L30.0186 42.8734H3.54713ZM18.8368 20.6462C19.5518 21.5853 20.9188 21.9715 22.1702 21.5486L23.9881 21.0703V22.4968C23.9881 24.8218 21.5278 27.4866 19.1274 26.0932C17.9558 25.4132 17.2281 24.1492 17.2281 22.7945V20.6793L18.8368 20.6462ZM19.2598 27.3467C20.1311 27.6487 21.1032 27.619 21.9564 27.2689V28.5348C21.9564 29.2782 21.3516 29.8831 20.6082 29.8831C19.8646 29.8831 19.2598 29.2783 19.2598 28.5348V27.3467ZM23.0461 26.6301C24.3166 25.6522 25.0779 24.1349 25.0779 22.4968V20.3636C25.0779 20.0123 24.7346 19.7472 24.3944 19.8367L21.874 20.4997C20.4361 20.8767 18.844 19.9014 19.617 18.2809C19.7466 18.0093 19.6316 17.684 19.3601 17.5545C19.0887 17.4247 18.7633 17.5399 18.6336 17.8114C18.5507 17.9851 18.2344 18.7221 18.373 19.5658L16.6721 19.6009C16.3756 19.607 16.1384 19.8492 16.1384 20.1457V22.7946C16.1384 24.3714 16.9071 25.8507 18.1702 26.7658V27.1583C17.0962 27.3582 16.0455 27.672 15.0404 28.0936C14.7853 28.2006 14.5426 28.3293 14.3124 28.4754L15.6933 19.1299C16.0501 16.7152 18.0768 14.9528 20.5129 14.9391C22.9871 14.8953 25.1582 16.6605 25.523 19.1299L26.8426 28.0608C25.6255 27.5585 24.3511 27.2154 23.0461 27.0388V26.6301ZM13.2189 31.7646C13.4925 30.5694 14.331 29.5727 15.4618 29.0984C16.333 28.7331 17.2416 28.4563 18.1701 28.2699V28.5349C18.1701 29.8792 19.2637 30.973 20.608 30.973C21.9524 30.973 23.046 29.8793 23.046 28.5349V28.1393C24.2346 28.3127 25.3953 28.6337 26.5036 29.0985C27.6343 29.5728 28.4727 30.5695 28.7464 31.7647L30.3809 38.9041H27.2416L26.6362 35.5348C26.583 35.2386 26.2997 35.0415 26.0035 35.0949C25.7073 35.1481 25.5104 35.4314 25.5636 35.7276L26.1344 38.9041H15.2004L15.7711 35.7276C15.8243 35.4314 15.6273 35.1482 15.3311 35.0949C15.0343 35.0417 14.7516 35.2386 14.6984 35.5348L14.0932 38.9041H11.5845L13.2189 31.7646ZM31.1037 37.1776L29.8087 31.5215C29.5551 30.4142 28.9233 29.441 28.0467 28.7546L26.601 18.9707C26.1577 15.9699 23.5193 13.7992 20.5062 13.8494C17.5286 13.8662 15.0511 16.02 14.6151 18.9707L13.0378 29.6459C12.6193 30.1949 12.3144 30.8322 12.1566 31.5216L10.4665 38.9041H7.45127V18.6324C10.1737 18.584 12.3738 16.3557 12.3738 13.6219C12.3738 10.888 10.1737 8.65981 7.45127 8.61132V7.1444C7.45127 6.84396 7.6957 6.59953 7.99615 6.59953H14.9795C15.4687 9.16764 17.7294 11.1155 20.4377 11.1155C23.1461 11.1155 25.4068 9.16764 25.896 6.59953H33.2199C33.5204 6.59953 33.7648 6.84396 33.7648 7.1444V8.68073C31.3992 9.08144 29.5914 11.144 29.5914 13.622C29.5914 16.1 31.3992 18.1625 33.7648 18.5632V24.3893C33.6217 24.7775 33.5153 25.1856 33.4524 25.611L32.3762 32.8946C32.2593 33.6848 32.3952 34.4817 32.7503 35.1799C32.0322 35.6869 31.464 36.3822 31.1037 37.1776ZM42.7458 36.1762H36.1493C34.5166 36.1762 33.2156 34.6693 33.4542 33.0537L34.5305 25.7701C34.8808 23.3996 36.9517 21.5909 39.3514 21.5774C41.827 21.5334 43.9995 23.2992 44.3647 25.7701L45.441 33.0537C45.6794 34.6688 44.379 36.1762 42.7458 36.1762Z"/>
</mask>
<path d="M50.0715 50.3697L48.166 38.4151C47.9581 37.1108 47.2165 35.9368 46.1448 35.1797C46.4999 34.4816 46.6357 33.6847 46.5189 32.8943L45.4427 25.6108C44.998 22.6015 42.3615 20.447 39.3457 20.4876C37.5566 20.4978 35.9487 21.2798 34.8547 22.5419V18.6284C37.5028 18.4974 39.617 16.302 39.617 13.6219C39.617 10.9417 37.5028 8.74634 34.8547 8.61535V7.1444C34.8547 6.24307 34.1214 5.50978 33.2201 5.50978H25.9942C25.9682 2.4673 23.4862 0 20.4378 0C17.3895 0 14.9075 2.4673 14.8814 5.50978H7.99615C7.09481 5.50978 6.36152 6.24307 6.36152 7.1444V8.7094C4.0749 9.17396 2.3484 11.2 2.3484 13.6219C2.3484 16.0437 4.0749 18.0698 6.36163 18.5344V38.9041H3.00225C2.70137 38.9041 2.45738 39.1481 2.45738 39.449V42.8734H1.36763C1.06675 42.8734 0.822754 43.1174 0.822754 43.4183C0.822754 43.7192 1.06675 43.9632 1.36763 43.9632H29.8448L28.8236 50.3697C28.7181 51.0309 29.7819 51.2804 29.8997 50.5412L31.8052 38.5867C31.967 37.5724 32.5436 36.6595 33.3774 36.0706C34.0964 36.832 35.0968 37.266 36.1493 37.266H42.7458C43.7983 37.266 44.7985 36.8319 45.5177 36.0706C46.3514 36.6595 46.9281 37.5725 47.0899 38.5867L48.9954 50.5412C49.1049 51.2284 50.1826 51.0658 50.0715 50.3697ZM38.5273 13.6219C38.5273 15.7851 36.7674 17.545 34.6043 17.545C32.4411 17.545 30.6813 15.7851 30.6813 13.6219C30.6813 11.4586 32.4411 9.69878 34.6043 9.69878C36.7674 9.69878 38.5273 11.4586 38.5273 13.6219ZM20.4378 1.08975C22.9014 1.08975 24.9057 3.09413 24.9057 5.55773C24.9057 8.02133 22.9014 10.0257 20.4378 10.0257C17.9742 10.0257 15.97 8.02133 15.97 5.55773C15.97 3.09413 17.9742 1.08975 20.4378 1.08975ZM3.43816 13.6219C3.43816 11.4586 5.19799 9.69878 7.36115 9.69878C9.5243 9.69878 11.2841 11.4586 11.2841 13.6219C11.2841 15.7851 9.5243 17.545 7.36115 17.545C5.19799 17.545 3.43816 15.7851 3.43816 13.6219ZM3.54713 42.8734V39.9938H30.4776L30.0186 42.8734H3.54713ZM18.8368 20.6462C19.5518 21.5853 20.9188 21.9715 22.1702 21.5486L23.9881 21.0703V22.4968C23.9881 24.8218 21.5278 27.4866 19.1274 26.0932C17.9558 25.4132 17.2281 24.1492 17.2281 22.7945V20.6793L18.8368 20.6462ZM19.2598 27.3467C20.1311 27.6487 21.1032 27.619 21.9564 27.2689V28.5348C21.9564 29.2782 21.3516 29.8831 20.6082 29.8831C19.8646 29.8831 19.2598 29.2783 19.2598 28.5348V27.3467ZM23.0461 26.6301C24.3166 25.6522 25.0779 24.1349 25.0779 22.4968V20.3636C25.0779 20.0123 24.7346 19.7472 24.3944 19.8367L21.874 20.4997C20.4361 20.8767 18.844 19.9014 19.617 18.2809C19.7466 18.0093 19.6316 17.684 19.3601 17.5545C19.0887 17.4247 18.7633 17.5399 18.6336 17.8114C18.5507 17.9851 18.2344 18.7221 18.373 19.5658L16.6721 19.6009C16.3756 19.607 16.1384 19.8492 16.1384 20.1457V22.7946C16.1384 24.3714 16.9071 25.8507 18.1702 26.7658V27.1583C17.0962 27.3582 16.0455 27.672 15.0404 28.0936C14.7853 28.2006 14.5426 28.3293 14.3124 28.4754L15.6933 19.1299C16.0501 16.7152 18.0768 14.9528 20.5129 14.9391C22.9871 14.8953 25.1582 16.6605 25.523 19.1299L26.8426 28.0608C25.6255 27.5585 24.3511 27.2154 23.0461 27.0388V26.6301ZM13.2189 31.7646C13.4925 30.5694 14.331 29.5727 15.4618 29.0984C16.333 28.7331 17.2416 28.4563 18.1701 28.2699V28.5349C18.1701 29.8792 19.2637 30.973 20.608 30.973C21.9524 30.973 23.046 29.8793 23.046 28.5349V28.1393C24.2346 28.3127 25.3953 28.6337 26.5036 29.0985C27.6343 29.5728 28.4727 30.5695 28.7464 31.7647L30.3809 38.9041H27.2416L26.6362 35.5348C26.583 35.2386 26.2997 35.0415 26.0035 35.0949C25.7073 35.1481 25.5104 35.4314 25.5636 35.7276L26.1344 38.9041H15.2004L15.7711 35.7276C15.8243 35.4314 15.6273 35.1482 15.3311 35.0949C15.0343 35.0417 14.7516 35.2386 14.6984 35.5348L14.0932 38.9041H11.5845L13.2189 31.7646ZM31.1037 37.1776L29.8087 31.5215C29.5551 30.4142 28.9233 29.441 28.0467 28.7546L26.601 18.9707C26.1577 15.9699 23.5193 13.7992 20.5062 13.8494C17.5286 13.8662 15.0511 16.02 14.6151 18.9707L13.0378 29.6459C12.6193 30.1949 12.3144 30.8322 12.1566 31.5216L10.4665 38.9041H7.45127V18.6324C10.1737 18.584 12.3738 16.3557 12.3738 13.6219C12.3738 10.888 10.1737 8.65981 7.45127 8.61132V7.1444C7.45127 6.84396 7.6957 6.59953 7.99615 6.59953H14.9795C15.4687 9.16764 17.7294 11.1155 20.4377 11.1155C23.1461 11.1155 25.4068 9.16764 25.896 6.59953H33.2199C33.5204 6.59953 33.7648 6.84396 33.7648 7.1444V8.68073C31.3992 9.08144 29.5914 11.144 29.5914 13.622C29.5914 16.1 31.3992 18.1625 33.7648 18.5632V24.3893C33.6217 24.7775 33.5153 25.1856 33.4524 25.611L32.3762 32.8946C32.2593 33.6848 32.3952 34.4817 32.7503 35.1799C32.0322 35.6869 31.464 36.3822 31.1037 37.1776ZM42.7458 36.1762H36.1493C34.5166 36.1762 33.2156 34.6693 33.4542 33.0537L34.5305 25.7701C34.8808 23.3996 36.9517 21.5909 39.3514 21.5774C41.827 21.5334 43.9995 23.2992 44.3647 25.7701L45.441 33.0537C45.6794 34.6688 44.379 36.1762 42.7458 36.1762Z" fill="#4E2B7B"/>
<path d="M50.0715 50.3697L48.166 38.4151C47.9581 37.1108 47.2165 35.9368 46.1448 35.1797C46.4999 34.4816 46.6357 33.6847 46.5189 32.8943L45.4427 25.6108C44.998 22.6015 42.3615 20.447 39.3457 20.4876C37.5566 20.4978 35.9487 21.2798 34.8547 22.5419V18.6284C37.5028 18.4974 39.617 16.302 39.617 13.6219C39.617 10.9417 37.5028 8.74634 34.8547 8.61535V7.1444C34.8547 6.24307 34.1214 5.50978 33.2201 5.50978H25.9942C25.9682 2.4673 23.4862 0 20.4378 0C17.3895 0 14.9075 2.4673 14.8814 5.50978H7.99615C7.09481 5.50978 6.36152 6.24307 6.36152 7.1444V8.7094C4.0749 9.17396 2.3484 11.2 2.3484 13.6219C2.3484 16.0437 4.0749 18.0698 6.36163 18.5344V38.9041H3.00225C2.70137 38.9041 2.45738 39.1481 2.45738 39.449V42.8734H1.36763C1.06675 42.8734 0.822754 43.1174 0.822754 43.4183C0.822754 43.7192 1.06675 43.9632 1.36763 43.9632H29.8448L28.8236 50.3697C28.7181 51.0309 29.7819 51.2804 29.8997 50.5412L31.8052 38.5867C31.967 37.5724 32.5436 36.6595 33.3774 36.0706C34.0964 36.832 35.0968 37.266 36.1493 37.266H42.7458C43.7983 37.266 44.7985 36.8319 45.5177 36.0706C46.3514 36.6595 46.9281 37.5725 47.0899 38.5867L48.9954 50.5412C49.1049 51.2284 50.1826 51.0658 50.0715 50.3697ZM38.5273 13.6219C38.5273 15.7851 36.7674 17.545 34.6043 17.545C32.4411 17.545 30.6813 15.7851 30.6813 13.6219C30.6813 11.4586 32.4411 9.69878 34.6043 9.69878C36.7674 9.69878 38.5273 11.4586 38.5273 13.6219ZM20.4378 1.08975C22.9014 1.08975 24.9057 3.09413 24.9057 5.55773C24.9057 8.02133 22.9014 10.0257 20.4378 10.0257C17.9742 10.0257 15.97 8.02133 15.97 5.55773C15.97 3.09413 17.9742 1.08975 20.4378 1.08975ZM3.43816 13.6219C3.43816 11.4586 5.19799 9.69878 7.36115 9.69878C9.5243 9.69878 11.2841 11.4586 11.2841 13.6219C11.2841 15.7851 9.5243 17.545 7.36115 17.545C5.19799 17.545 3.43816 15.7851 3.43816 13.6219ZM3.54713 42.8734V39.9938H30.4776L30.0186 42.8734H3.54713ZM18.8368 20.6462C19.5518 21.5853 20.9188 21.9715 22.1702 21.5486L23.9881 21.0703V22.4968C23.9881 24.8218 21.5278 27.4866 19.1274 26.0932C17.9558 25.4132 17.2281 24.1492 17.2281 22.7945V20.6793L18.8368 20.6462ZM19.2598 27.3467C20.1311 27.6487 21.1032 27.619 21.9564 27.2689V28.5348C21.9564 29.2782 21.3516 29.8831 20.6082 29.8831C19.8646 29.8831 19.2598 29.2783 19.2598 28.5348V27.3467ZM23.0461 26.6301C24.3166 25.6522 25.0779 24.1349 25.0779 22.4968V20.3636C25.0779 20.0123 24.7346 19.7472 24.3944 19.8367L21.874 20.4997C20.4361 20.8767 18.844 19.9014 19.617 18.2809C19.7466 18.0093 19.6316 17.684 19.3601 17.5545C19.0887 17.4247 18.7633 17.5399 18.6336 17.8114C18.5507 17.9851 18.2344 18.7221 18.373 19.5658L16.6721 19.6009C16.3756 19.607 16.1384 19.8492 16.1384 20.1457V22.7946C16.1384 24.3714 16.9071 25.8507 18.1702 26.7658V27.1583C17.0962 27.3582 16.0455 27.672 15.0404 28.0936C14.7853 28.2006 14.5426 28.3293 14.3124 28.4754L15.6933 19.1299C16.0501 16.7152 18.0768 14.9528 20.5129 14.9391C22.9871 14.8953 25.1582 16.6605 25.523 19.1299L26.8426 28.0608C25.6255 27.5585 24.3511 27.2154 23.0461 27.0388V26.6301ZM13.2189 31.7646C13.4925 30.5694 14.331 29.5727 15.4618 29.0984C16.333 28.7331 17.2416 28.4563 18.1701 28.2699V28.5349C18.1701 29.8792 19.2637 30.973 20.608 30.973C21.9524 30.973 23.046 29.8793 23.046 28.5349V28.1393C24.2346 28.3127 25.3953 28.6337 26.5036 29.0985C27.6343 29.5728 28.4727 30.5695 28.7464 31.7647L30.3809 38.9041H27.2416L26.6362 35.5348C26.583 35.2386 26.2997 35.0415 26.0035 35.0949C25.7073 35.1481 25.5104 35.4314 25.5636 35.7276L26.1344 38.9041H15.2004L15.7711 35.7276C15.8243 35.4314 15.6273 35.1482 15.3311 35.0949C15.0343 35.0417 14.7516 35.2386 14.6984 35.5348L14.0932 38.9041H11.5845L13.2189 31.7646ZM31.1037 37.1776L29.8087 31.5215C29.5551 30.4142 28.9233 29.441 28.0467 28.7546L26.601 18.9707C26.1577 15.9699 23.5193 13.7992 20.5062 13.8494C17.5286 13.8662 15.0511 16.02 14.6151 18.9707L13.0378 29.6459C12.6193 30.1949 12.3144 30.8322 12.1566 31.5216L10.4665 38.9041H7.45127V18.6324C10.1737 18.584 12.3738 16.3557 12.3738 13.6219C12.3738 10.888 10.1737 8.65981 7.45127 8.61132V7.1444C7.45127 6.84396 7.6957 6.59953 7.99615 6.59953H14.9795C15.4687 9.16764 17.7294 11.1155 20.4377 11.1155C23.1461 11.1155 25.4068 9.16764 25.896 6.59953H33.2199C33.5204 6.59953 33.7648 6.84396 33.7648 7.1444V8.68073C31.3992 9.08144 29.5914 11.144 29.5914 13.622C29.5914 16.1 31.3992 18.1625 33.7648 18.5632V24.3893C33.6217 24.7775 33.5153 25.1856 33.4524 25.611L32.3762 32.8946C32.2593 33.6848 32.3952 34.4817 32.7503 35.1799C32.0322 35.6869 31.464 36.3822 31.1037 37.1776ZM42.7458 36.1762H36.1493C34.5166 36.1762 33.2156 34.6693 33.4542 33.0537L34.5305 25.7701C34.8808 23.3996 36.9517 21.5909 39.3514 21.5774C41.827 21.5334 43.9995 23.2992 44.3647 25.7701L45.441 33.0537C45.6794 34.6688 44.379 36.1762 42.7458 36.1762Z" stroke="#4E2B7B" stroke-width="0.4" mask="url(#path-12-outside-1_557_3736)"/>
</svg>
