<svg width="52" height="55" viewBox="0 0 52 55" fill="none" xmlns="http://www.w3.org/2000/svg">
<path d="M28.762 32.1622C29.2011 32.0904 29.4988 31.6761 29.4269 31.237C29.0506 28.9374 27.8645 26.8314 26.0872 25.3069C24.2898 23.765 21.9942 22.916 19.623 22.916C14.144 22.916 9.68652 27.3735 9.68652 32.8525C9.68652 38.3316 14.144 42.789 19.623 42.789C24.164 42.789 28.1223 39.7205 29.2486 35.327C29.3591 34.8959 29.0993 34.457 28.6683 34.3464C28.2372 34.2359 27.7982 34.4957 27.6877 34.9267C26.7441 38.6072 23.4278 41.1776 19.623 41.1776C15.0325 41.1776 11.2979 37.4429 11.2979 32.8524C11.2979 28.2619 15.0325 24.5272 19.623 24.5272C21.6095 24.5272 23.5327 25.2384 25.0381 26.5298C26.5277 27.8075 27.5216 29.5716 27.8367 31.4972C27.9085 31.9364 28.3225 32.2342 28.762 32.1622Z" fill="#4E2B7B"/>
<path d="M19.623 26.5034C16.1221 26.5034 13.2739 29.3516 13.2739 32.8526C13.2739 36.3535 16.1221 39.2017 19.623 39.2017C23.124 39.2017 25.9722 36.3535 25.9722 32.8526C25.9722 29.3516 23.124 26.5034 19.623 26.5034ZM19.623 37.5904C17.0106 37.5904 14.8853 35.465 14.8853 32.8526C14.8853 30.2401 17.0106 28.1148 19.623 28.1148C22.2355 28.1148 24.3608 30.2401 24.3608 32.8526C24.3608 35.465 22.2355 37.5904 19.623 37.5904Z" fill="#4E2B7B"/>
<path d="M19.6231 29.7154C17.8932 29.7154 16.4858 31.1228 16.4858 32.8526C16.4858 34.5824 17.8932 35.9899 19.6231 35.9899C21.353 35.9899 22.7604 34.5824 22.7604 32.8526C22.7604 31.1228 21.353 29.7154 19.6231 29.7154ZM19.6231 34.3785C18.7817 34.3785 18.0972 33.6939 18.0972 32.8526C18.0972 32.0113 18.7817 31.3267 19.6231 31.3267C20.4645 31.3267 21.149 32.0113 21.149 32.8526C21.149 33.6939 20.4645 34.3785 19.6231 34.3785Z" fill="#4E2B7B"/>
<path d="M46.4624 33.9949V28.8965C46.4624 28.4515 46.1017 28.0908 45.6567 28.0908C45.2118 28.0908 44.8511 28.4515 44.8511 28.8965V32.9867C43.805 32.4452 42.667 32.058 41.467 31.8545V19.5615C41.467 18.9396 40.9611 18.4336 40.3391 18.4336H38.4888L43.1534 12.0934L47.7382 18.4336H45.979C45.357 18.4336 44.8511 18.9396 44.8511 19.5615V25.1367C44.8511 25.5817 45.2118 25.9424 45.6567 25.9424C46.1017 25.9424 46.4624 25.5817 46.4624 25.1367V20.0449H48.6844C49.1101 20.0449 49.495 19.8095 49.6888 19.4303C49.8826 19.0511 49.8479 18.6012 49.5985 18.2559L44.0707 10.6123C43.8604 10.3213 43.5204 10.1467 43.1613 10.1452C43.1598 10.1452 43.1583 10.1452 43.1568 10.1452C42.7994 10.1452 42.4601 10.3168 42.2482 10.6047L36.6244 18.2486C36.3708 18.5932 36.3334 19.0444 36.5263 19.4261C36.7193 19.8078 37.1051 20.0449 37.5328 20.0449H39.8556V31.6949C39.7411 31.6916 39.6264 31.6895 39.511 31.6895C39.1776 31.6895 38.8476 31.7043 38.5211 31.7319C38.4951 31.2786 38.4553 30.826 38.3966 30.3783C38.2896 29.5607 37.5847 28.9441 36.7571 28.9441H32.7746C32.7566 28.9441 32.7413 28.9311 32.7353 28.9111C32.4713 28.0311 32.1172 27.1754 31.6823 26.3678C31.6722 26.3491 31.6739 26.3288 31.6866 26.3161L34.5015 23.5012C35.0866 22.9161 35.1489 21.9816 34.6465 21.3275C34.3708 20.9686 34.0814 20.6209 33.7811 20.283V9.89979H36.003C36.4289 9.89979 36.8138 9.66421 37.0075 9.28501C37.2012 8.90581 37.1666 8.45593 36.9171 8.11089L31.3898 0.46707C31.1795 0.176172 30.8395 0.00150391 30.4805 0C30.4789 0 30.4774 0 30.4758 0C30.1185 0 29.7791 0.171553 29.5672 0.459443L23.9433 8.10337C23.6898 8.44798 23.6523 8.89915 23.8452 9.28082C24.0383 9.6626 24.424 9.89968 24.8518 9.89968H27.1746V19.7734L26.1593 20.7886C26.1467 20.8012 26.1263 20.8029 26.1077 20.7929C25.3003 20.3582 24.4446 20.0039 23.5642 19.74C23.5442 19.7339 23.5314 19.7186 23.5314 19.7006V15.7181C23.5314 14.8905 22.9148 14.1857 22.0972 14.0786C20.4634 13.8647 18.7821 13.8647 17.1485 14.0786C16.3309 14.1856 15.7143 14.8904 15.7143 15.7181V19.7006C15.7143 19.7186 15.7014 19.7339 15.6813 19.74C14.8013 20.0039 13.9456 20.3581 13.138 20.7929C13.1193 20.8029 13.0989 20.8013 13.0864 20.7886L10.2715 17.9737C9.6864 17.3885 8.75183 17.3262 8.09784 17.8287C6.78504 18.8373 5.6078 20.0144 4.59911 21.3274C4.0967 21.9815 4.159 22.916 4.74413 23.5011L7.55901 26.316C7.57169 26.3287 7.57341 26.349 7.56331 26.3677C7.12857 27.1753 6.7743 28.0309 6.51047 28.911C6.50445 28.931 6.48909 28.944 6.47115 28.944H2.48859C1.66102 28.944 0.956113 29.5606 0.849121 30.3782C0.742129 31.195 0.687988 32.0275 0.687988 32.8525C0.687988 33.6775 0.742236 34.51 0.849121 35.3269C0.956113 36.1445 1.66102 36.7611 2.48859 36.7611H6.47115C6.48909 36.7611 6.50445 36.7741 6.51047 36.794C6.7744 37.674 7.12857 38.5298 7.56342 39.3374C7.57352 39.356 7.5718 39.3762 7.55912 39.3889L4.74413 42.2039C4.159 42.789 4.0967 43.7235 4.59922 44.3776C5.60791 45.6906 6.78515 46.8677 8.09795 47.8763C8.75193 48.3788 9.6865 48.3164 10.2716 47.7313L13.0865 44.9164C13.0993 44.9037 13.1195 44.902 13.1382 44.9121C13.946 45.347 14.8016 45.7012 15.6815 45.965C15.7016 45.971 15.7145 45.9863 15.7145 46.0043V49.9868C15.7145 50.8144 16.331 51.5192 17.1487 51.6263C17.9656 51.7333 18.7981 51.7874 19.6229 51.7874C20.4477 51.7874 21.2802 51.7333 22.0974 51.6263C22.9149 51.5191 23.5315 50.8143 23.5315 49.9868V46.0043C23.5315 45.9863 23.5445 45.971 23.5643 45.965C24.4443 45.7011 25.3001 45.347 26.1077 44.9121C26.1265 44.902 26.1466 44.9036 26.1594 44.9164L28.5497 47.3067C30.1748 51.7889 34.4747 55 39.5111 55C45.9378 55 51.1664 49.7715 51.1664 43.3447C51.1664 39.5209 49.3153 36.1215 46.4624 33.9949ZM25.8077 8.28846L30.4724 1.94831L35.0573 8.28846H33.298C32.6761 8.28846 32.1701 8.79441 32.1701 9.41639V18.6738C31.8393 18.3808 31.4989 18.0983 31.1481 17.8288C30.4941 17.3263 29.5596 17.3886 28.9744 17.9738L28.7861 18.1621V9.41639C28.7861 8.79441 28.2802 8.28846 27.6582 8.28846H25.8077ZM27.9025 44.3808L27.2987 43.7771C26.7794 43.2577 25.9939 43.1436 25.3439 43.4934C24.6319 43.8767 23.8775 44.189 23.1016 44.4216C22.3948 44.6336 21.9201 45.2696 21.9201 46.0044V49.9869C21.9201 50.0077 21.9057 50.0265 21.8882 50.0287C20.3923 50.2245 18.8536 50.2245 17.3579 50.0287C17.3402 50.0265 17.3259 50.0077 17.3259 49.9869V46.0044C17.3259 45.2696 16.8511 44.6336 16.1444 44.4216C15.3686 44.1891 14.6142 43.8768 13.9021 43.4934C13.6509 43.3582 13.3796 43.2923 13.111 43.2923C12.6848 43.2923 12.2658 43.4584 11.9472 43.7771L9.13231 46.592C9.1176 46.6067 9.09386 46.6096 9.07946 46.5986C7.87773 45.6755 6.80029 44.598 5.87689 43.3961C5.86583 43.3817 5.86884 43.358 5.88345 43.3433L8.69833 40.5284C9.21782 40.009 9.3318 39.2233 8.98203 38.5736C8.59875 37.8617 8.28647 37.1073 8.0538 36.3313C7.84186 35.6245 7.20581 35.1497 6.47105 35.1497H2.48859C2.46786 35.1497 2.44917 35.1354 2.44681 35.1177C2.34884 34.37 2.29921 33.6079 2.29921 32.8526C2.29921 32.0973 2.34884 31.3353 2.44681 30.5875C2.44906 30.5698 2.46786 30.5555 2.48859 30.5555H6.47115C7.20592 30.5555 7.84196 30.0807 8.05391 29.3741C8.28658 28.5981 8.59886 27.8436 8.98214 27.1318C9.33191 26.482 9.21793 25.6964 8.69844 25.1769L5.88356 22.362C5.86884 22.3473 5.86594 22.3237 5.877 22.3094C6.8004 21.1074 7.87784 20.0299 9.07957 19.1068C9.09397 19.0957 9.1176 19.0987 9.13231 19.1134L11.9472 21.9282C12.4667 22.4477 13.2524 22.5616 13.9021 22.2119C14.6139 21.8287 15.3684 21.5164 16.1443 21.2837C16.851 21.0719 17.3259 20.4358 17.3259 19.701V15.7184C17.3259 15.6977 17.3402 15.679 17.3579 15.6766C18.8535 15.4808 20.3926 15.4808 21.8882 15.6766C21.9058 15.6789 21.9202 15.6977 21.9202 15.7184V19.701C21.9202 20.4358 22.395 21.0719 23.1017 21.2837C23.8778 21.5165 24.6322 21.8288 25.344 22.2119C25.9936 22.5618 26.7794 22.4478 27.2989 21.9283L30.1138 19.1134C30.1286 19.0987 30.152 19.0958 30.1665 19.1068C31.3683 20.03 32.4458 21.1075 33.3691 22.3094C33.3801 22.3238 33.3772 22.3474 33.3625 22.3621L30.5476 25.177C30.0281 25.6965 29.9142 26.4821 30.2639 27.1319C30.6472 27.8438 30.9595 28.5982 31.1921 29.3742C31.4041 30.0808 32.0401 30.5556 32.7749 30.5556H36.7575C36.7782 30.5556 36.7969 30.57 36.7993 30.5876C36.8595 31.0479 36.899 31.5137 36.9221 31.9799C31.7374 33.1605 27.8561 37.8078 27.8561 43.3449C27.8558 43.6938 27.8722 44.0393 27.9025 44.3808ZM39.5111 53.3887C33.9729 53.3887 29.4672 48.883 29.4672 43.3447C29.4672 37.8065 33.9729 33.3008 39.5111 33.3008C45.0494 33.3008 49.5551 37.8065 49.5551 43.3447C49.5551 48.883 45.0494 53.3887 39.5111 53.3887Z" fill="#4E2B7B"/>
<path d="M46.7682 42.1341C46.8412 42.573 47.2558 42.8698 47.6951 42.7967C48.134 42.7237 48.4307 42.3087 48.3576 41.8698C48.0136 39.8001 46.9407 37.9038 45.3367 36.5301C43.7142 35.1404 41.6453 34.375 39.5112 34.375C34.5653 34.375 30.5415 38.3988 30.5415 43.3447C30.5415 48.2906 34.5653 52.3145 39.5112 52.3145C41.462 52.3145 43.3182 51.6963 44.8791 50.5271C46.3872 49.3973 47.5237 47.7898 48.0794 46.0007C48.2114 45.5758 47.9739 45.1243 47.549 44.9924C47.1241 44.8605 46.6725 45.098 46.5406 45.5228C46.0848 46.9904 45.1516 48.3096 43.9131 49.2376C42.6331 50.1963 41.111 50.7031 39.5112 50.7031C35.4538 50.7031 32.1528 47.4022 32.1528 43.3447C32.1528 39.2873 35.4538 35.9863 39.5112 35.9863C41.2611 35.9863 42.9578 36.6141 44.2887 37.754C45.6056 38.8818 46.4861 40.4374 46.7682 42.1341Z" fill="#4E2B7B"/>
<path d="M39.5112 36.7921C39.0663 36.7921 38.7056 37.1528 38.7056 37.5978V43.3447C38.7056 43.6401 38.8671 43.9118 39.1267 44.0527C39.2469 44.1179 39.3792 44.1504 39.5111 44.1504C39.6642 44.1504 39.8168 44.1069 39.9498 44.0205L43.6121 41.6433C43.9854 41.401 44.0914 40.9021 43.8492 40.5288C43.6069 40.1556 43.1078 40.0496 42.7347 40.2916L40.3168 41.8611V37.5978C40.3169 37.1528 39.9562 36.7921 39.5112 36.7921Z" fill="#4E2B7B"/>
</svg>
