<svg width="50" height="49" viewBox="0 0 50 49" fill="none" xmlns="http://www.w3.org/2000/svg">
<g clip-path="url(#clip0_562_3794)">
<path d="M49.473 1.63837H47.8398V3.27153H49.473V1.63837Z" fill="#4E2B7B"/>
<path d="M47.8397 0.00531006H46.2065V1.63848H47.8397V0.00531006Z" fill="#4E2B7B"/>
<path d="M46.2064 1.63837H44.5732V3.27153H46.2064V1.63837Z" fill="#4E2B7B"/>
<path d="M47.8397 3.27155H46.2065V4.90471H47.8397V3.27155Z" fill="#4E2B7B"/>
<path d="M42.9403 1.63837H41.3071V3.27153H42.9403V1.63837Z" fill="#4E2B7B"/>
<path d="M41.307 17.97H39.6738V19.6032H41.307V17.97Z" fill="#4E2B7B"/>
<path d="M44.5731 17.97H42.9399V19.6032H44.5731V17.97Z" fill="#4E2B7B"/>
<path d="M42.9403 16.3369H41.3071V17.97H42.9403V16.3369Z" fill="#4E2B7B"/>
<path d="M42.9403 19.6032H41.3071V21.2364H42.9403V19.6032Z" fill="#4E2B7B"/>
<path d="M11.0946 15.5203H9.46143V17.1535H11.0946V15.5203Z" fill="#4E2B7B"/>
<path d="M9.46129 13.8871H7.82812V15.5203H9.46129V13.8871Z" fill="#4E2B7B"/>
<path d="M7.82701 15.5203H6.19385V17.1535H7.82701V15.5203Z" fill="#4E2B7B"/>
<path d="M9.46129 17.1535H7.82812V18.7866H9.46129V17.1535Z" fill="#4E2B7B"/>
<path d="M4.5609 15.5203H2.92773V17.1535H4.5609V15.5203Z" fill="#4E2B7B"/>
<path d="M2.11168 4.90471H0.478516V6.53788H2.11168V4.90471Z" fill="#4E2B7B"/>
<path d="M5.37731 4.90471H3.74414V6.53788H5.37731V4.90471Z" fill="#4E2B7B"/>
<path d="M3.74401 3.27155H2.11084V4.90471H3.74401V3.27155Z" fill="#4E2B7B"/>
<path d="M3.74401 6.53787H2.11084V8.17104H3.74401V6.53787Z" fill="#4E2B7B"/>
<path d="M13.5443 0.00531006H11.9111V1.63848H13.5443V0.00531006Z" fill="#4E2B7B"/>
<path d="M44.4326 38.3767C44.0855 37.4003 43.1602 36.749 42.124 36.7515H40.1486L37.2245 31.6347V22.8695C37.2245 21.0656 35.7621 19.6032 33.9581 19.6032V8.98762C34.1238 4.19244 30.3709 0.17087 25.5757 0.00520572C25.3757 -0.00173524 25.1757 -0.00173524 24.9757 0.00520572C19.3609 0.00520572 16.1566 4.61727 15.9933 8.95659C15.9933 8.96721 15.999 8.97701 15.999 8.98762H15.9933V19.6032C14.1894 19.6032 12.727 21.0656 12.727 22.8695V31.6347L9.80277 36.7515H7.82756C6.47775 36.7487 5.38128 37.8406 5.37842 39.1904C5.37628 40.2263 6.0275 41.1511 7.00363 41.4983C5.82418 42.8314 5.94881 44.8684 7.28208 46.0479C7.76387 46.4741 8.36232 46.7464 9.00017 46.8297L24.8656 48.9929C24.9391 49.0025 25.0134 49.0025 25.0869 48.9929L40.9523 46.8297C42.7173 46.5991 43.9613 44.9814 43.7307 43.2163C43.6474 42.5785 43.3751 41.98 42.9488 41.4983C44.2205 41.0461 44.8849 39.6485 44.4326 38.3767ZM24.9758 1.63847C28.8546 1.45842 32.145 4.45681 32.3251 8.33568C32.3352 8.55289 32.3352 8.77051 32.3251 8.98772H30.6919C28.4381 8.98507 26.6116 7.15858 26.609 4.90481C26.6089 4.45385 26.2432 4.08833 25.7922 4.08843C25.5757 4.08843 25.3682 4.17448 25.2151 4.32748C23.1907 6.35965 20.5584 7.67568 17.718 8.0756C18.167 4.40628 21.279 1.64613 24.9758 1.63847ZM23.3426 20.4199V16.9274C23.875 17.0733 24.4239 17.1494 24.9758 17.1536C25.528 17.1489 26.0772 17.0711 26.609 16.9225V20.4199C26.609 20.8708 26.9746 21.2365 27.4256 21.2365H29.0587V22.2809L24.9758 23.6421L20.8929 22.2809V21.2365H22.5261C22.977 21.2365 23.3426 20.8708 23.3426 20.4199ZM18.5999 9.57485C21.0245 9.12634 23.2982 8.07846 25.2143 6.52654C25.9354 8.95139 28.1621 10.6158 30.6919 10.6209H31.0479C30.0272 13.3605 27.4386 15.5204 24.9758 15.5204C22.1398 15.5204 19.2752 12.7718 18.5999 9.57485ZM28.2421 19.6033V16.2676C30.045 15.253 31.4757 13.688 32.3251 11.8017V19.6033H29.8753H28.2421ZM17.6266 11.8041C18.4708 13.6944 19.9028 15.2615 21.7095 16.2725V19.6033H17.6266V11.8041ZM19.2597 21.2365V22.8696C19.26 23.221 19.4849 23.5327 19.8183 23.6438V23.6446L24.7178 25.2777C24.8855 25.3341 25.067 25.3341 25.2347 25.2777L30.1342 23.6446C30.4674 23.5332 30.6921 23.2211 30.6919 22.8696V21.2365H32.9122L29.2376 35.935H20.7141L17.0394 21.2365H19.2597ZM20.4519 37.5681H29.4997L32.7807 41.3955L24.9758 42.4603L17.1709 41.3987L20.4519 37.5681ZM15.2487 41.1333L13.7421 40.9284L18.858 35.2433L19.1846 36.5409L15.2487 41.1333ZM30.7735 36.5409L31.1002 35.2433L36.2161 40.9284L34.7062 41.1333L30.7735 36.5409ZM7.01098 39.2013C7.01098 38.7504 7.3766 38.3847 7.82756 38.3847H10.2773C10.5696 38.3853 10.8399 38.2296 10.9861 37.9764L14.2524 32.2603C14.3236 32.136 14.3607 31.9953 14.3602 31.8521V22.8696C14.3602 22.2026 14.766 21.6025 15.385 21.3541L16.8827 27.3437L18.3794 33.3333L12.3637 40.0179H7.82756C7.3765 40.0179 7.01098 39.6523 7.01098 39.2013ZM24.9758 47.3598L9.22065 45.2105C8.33895 45.0941 7.71865 44.2849 7.83511 43.4032C7.94127 42.5996 8.62812 42.0002 9.43868 42.0038C9.51135 42.0038 9.58393 42.009 9.65589 42.0193L15.4626 42.8114L24.69 44.0698L29.0612 46.8021L24.9758 47.3598ZM40.731 45.2105L31.5901 46.4575L27.3202 43.7889L34.4833 42.809L40.2892 42.0169C41.1704 41.8933 41.9848 42.5075 42.1084 43.3886C42.1189 43.4636 42.1242 43.5392 42.1241 43.6149C42.1212 44.4193 41.5275 45.0992 40.731 45.2105ZM42.1241 40.0179H37.5879L31.5714 33.3325L33.0681 27.3429L34.5658 21.3532C35.1854 21.6016 35.5916 22.2021 35.5914 22.8696V31.8521C35.5909 31.9953 35.628 32.136 35.6992 32.2603L38.9655 37.9764C39.1117 38.2296 39.382 38.3853 39.6743 38.3847H42.1241C42.575 38.3847 42.9406 38.7504 42.9406 39.2013C42.9406 39.6523 42.575 40.0179 42.1241 40.0179Z" fill="#4E2B7B"/>
</g>
<defs>
<clipPath id="clip0_562_3794">
<rect width="49" height="49" fill="white" transform="translate(0.475586)"/>
</clipPath>
</defs>
</svg>
